<?xml version="1.0" encoding="UTF-8"?>
<svg id="Camada_1" data-name="Camada 1" xmlns="http://www.w3.org/2000/svg" viewBox="0 0 192 192">
  <defs>
    <style>
      .cls-1 {
        fill: #979f82;
      }

      .cls-2, .cls-3 {
        fill: #2b3647;
      }

      .cls-4, .cls-5 {
        fill: #fff;
      }

      .cls-5, .cls-3, .cls-6 {
        fill-rule: evenodd;
      }

      .cls-7 {
        fill: #193657;
      }

      .cls-8 {
        fill: #173557;
      }

      .cls-9, .cls-6 {
        fill: #68813c;
      }

      .cls-10 {
        fill: #d6d6cc;
      }
    </style>
  </defs>
  <path class="cls-9" d="M96,10.52C48.45,10.52,9.66,49.3,9.66,96.85s38.78,86.34,86.34,86.34,86.34-38.78,86.34-86.34S143.55,10.52,96,10.52"/>
  <path class="cls-8" d="M96,18.49c-43.3,0-78.37,35.07-78.37,78.37s35.07,78.37,78.37,78.37,78.37-35.07,78.37-78.37S139.3,18.49,96,18.49"/>
  <path class="cls-10" d="M29.32,98.71c-.8-1.06-1.33-2.39-1.06-3.72,0-3.45,2.66-4.78,5.05-4.78s4.78,1.86,4.52,5.05c0,1.33-.53,2.39-1.59,3.45l-1.06-1.33c.53-.53,1.06-1.33,1.06-2.13,0-2.13-1.59-3.19-2.92-3.45-1.59,0-3.19.8-3.19,2.92s0,1.86.8,2.39l-1.33,1.06v.53h-.27Z"/>
  <path class="cls-10" d="M28.52,101.37l9.3-.8v1.86l-9.03.8v-1.86h-.27ZM40.48,103.5v-1.86l-2.13-.8h0v1.33l1.86,1.33h.27Z"/>
  <polygon class="cls-10" points="29.59 111.46 29.32 109.61 37.82 104.03 38.09 105.89 31.45 110.14 39.15 111.46 39.42 113.32 29.59 111.46"/>
  <rect class="cls-10" x="31.48" y="116.34" width="9.3" height="1.86" transform="translate(-34.65 17.03) rotate(-18.1)"/>
  <path class="cls-10" d="M37.56,129.53c-1.33-.53-2.13-1.33-2.66-2.66-1.33-3.19,0-5.31,2.13-6.38,2.13-1.06,5.05-.53,6.38,2.39.53,1.06.53,2.39,0,3.72l-1.59-.53v-2.39c-1.06-2.13-2.92-2.13-4.25-1.59-1.33.53-2.39,2.13-1.59,4.25,0,.8,1.06,1.33,1.86,1.86l-.53,1.59h0l.27-.27Z"/>
  <path class="cls-10" d="M46.85,137.5c-1.86,1.33-4.78,1.59-6.64-1.06-1.86-2.66-.8-5.31,1.06-6.64,1.86-1.33,4.78-1.59,6.64,1.06s.8,5.31-1.33,6.64M42.34,131.12c-1.33.8-2.13,2.39-.8,4.25,1.33,1.86,3.19,1.59,4.25.8,1.33-.8,2.13-2.66,1.06-4.25-1.33-1.86-3.19-1.59-4.52-.53"/>
  <rect class="cls-10" x="49.06" y="138.59" width="1.59" height="4.78" transform="translate(-83.35 73.03) rotate(-43.5)"/>
  <polygon class="cls-10" points="61.2 147.86 56.42 149.19 56.15 148.92 56.15 144.14 52.17 149.45 50.84 148.39 56.42 140.95 58.01 142.28 57.75 147.06 62.53 145.73 64.12 147.06 58.54 154.23 57.22 153.17 61.2 147.86"/>
  <rect class="cls-10" x="60.05" y="151.21" width="9.3" height="1.86" transform="translate(-99.51 132.96) rotate(-60.3)"/>
  <polygon class="cls-10" points="71.29 150.52 68.11 157.69 72.62 159.55 71.83 160.88 65.98 158.48 69.7 149.98 71.29 150.52"/>
  <rect class="cls-10" x="72.07" y="156.71" width="9.3" height="1.86" transform="translate(-96.79 182.8) rotate(-72.3)"/>
  <path class="cls-10" d="M83.78,156.36l-2.92-.53v-1.59c2.92.53,5.05,1.06,7.7,1.59v1.59l-3.19-.53-1.59,7.44h-1.59l1.59-7.7h0v-.27Z"/>
  <path class="cls-10" d="M96.27,163.8h-4.78l-.8,1.59h-1.86l4.52-9.03h1.86l3.72,9.3h-1.86l-.8-1.86h0ZM94.14,158.22l-1.86,3.98h3.45l-1.59-3.98Z"/>
  <path class="cls-10" d="M109.81,164.33h-2.13l-3.19-2.39h-1.59l.53,3.19h-1.86l-1.33-9.03c1.33,0,2.92,0,4.25-.53,2.13,0,3.45,1.06,3.72,2.66,0,1.33,0,2.66-1.86,3.19l3.19,2.66h.27v.27ZM102.38,157.69v2.92h2.92c1.06,0,1.59-1.06,1.33-1.59,0-.8-.8-1.33-1.86-1.33h-2.66.27Z"/>
  <path class="cls-10" d="M122.3,155.3c.8,2.13,0,4.78-2.66,6.11-1.06,0-2.39.8-3.45,1.33l-3.19-8.77c1.06,0,2.39-.8,3.45-1.33,2.92-1.06,5.05.53,5.84,2.66M117.25,160.61l1.86-.53c1.86-.8,2.13-2.39,1.59-3.72-.53-1.33-1.86-2.39-3.72-1.59l-1.86.53,2.13,5.58h0v-.27Z"/>
  <path class="cls-10" d="M132.66,149.98c1.06,2.13,1.06,4.78-1.59,6.64-2.92,1.59-5.31,0-6.64-1.59-1.33-2.13-1.06-5.05,1.59-6.64s5.31,0,6.64,1.86M125.75,153.97c.8,1.33,2.39,2.39,4.25,1.06,1.86-1.06,1.86-2.92,1.06-4.25-.8-1.33-2.39-2.39-4.25-1.33s-1.86,3.19-1.06,4.52"/>
  <path class="cls-10" d="M141.96,144.41l-1.86,1.86,1.86,1.86-1.33,1.33-6.38-6.64c1.06-1.06,2.13-2.13,3.19-2.92,3.19-3.19,7.7,1.59,4.52,4.78M139.04,144.94l1.86-1.86c1.59-1.59-.53-3.98-2.13-2.39l-1.86,1.86,2.13,2.39Z"/>
  <path class="cls-10" d="M150.99,135.37l-2.92,3.98.8,1.59-1.06,1.59-4.78-8.77,1.06-1.59,9.83,2.13-1.06,1.59-1.86-.53ZM145.15,134.05l2.13,3.72,2.13-2.66-4.25-1.06Z"/>
  <path class="cls-10" d="M159.22,124.48l-1.06,1.86-3.98,1.06-.8,1.59,2.66,1.33-.8,1.59-8.24-4.25c.8-1.33,1.33-2.66,2.13-3.98,1.06-1.86,2.92-2.39,4.25-1.59,1.06.53,1.86,1.59,1.59,3.45l3.98-1.06h.27ZM149.4,126.87l2.66,1.33,1.33-2.39c.53-1.06,0-1.86-.53-2.13-.53,0-1.59,0-2.13.8l-1.33,2.39Z"/>
  <path class="cls-10" d="M160.55,115.18l-1.33,4.52,1.33,1.33-.53,1.86-7.44-6.64.53-1.86,10.09-1.33-.53,1.86h-2.13v.27ZM154.44,115.98l3.19,2.92,1.06-3.19-4.25.53h0v-.27Z"/>
  <polygon class="cls-10" points="155.24 103.23 155.51 101.64 164.54 102.7 164.27 103.76 164.54 103.76 157.63 107.75 163.74 108.54 163.48 110.4 154.44 109.07 154.71 107.75 160.82 104.03 155.24 103.23"/>
  <path class="cls-10" d="M152.58,93.13l1.86,1.33v1.33h0l-1.86-.8v-1.86h0ZM164.54,91.81v-1.86l-9.03,4.52v1.86l9.56,3.72v-1.86l-1.86-.8v-4.78l1.59-.8h-.27ZM161.35,96.85l-3.98-1.59,3.72-1.86v3.45h.27Z"/>
  <path class="cls-10" d="M72.62,40.54c0,.8-.8,1.33-1.59,1.59-1.86.8-3.19,0-3.72-1.33s0-2.92,1.59-3.72h2.13v.8h-1.86c-1.33.53-1.33,1.59-1.06,2.39,0,.8,1.06,1.59,2.39,1.06.53,0,.8-.53,1.06-1.06h1.06v.27Z"/>
  <path class="cls-10" d="M81.39,35.75c0,1.33,0,2.92-2.13,3.45-1.86.53-2.92-.53-3.45-2.13,0-1.33,0-2.92,2.13-3.45,1.86-.53,3.19.8,3.45,2.13M77.14,37.08c0,.8,1.06,1.59,2.13,1.33,1.33,0,1.59-1.33,1.33-2.13,0-.8-1.06-1.86-2.13-1.33-1.33,0-1.59,1.33-1.33,2.39"/>
  <polygon class="cls-10" points="86.97 32.3 87.5 36.55 90.16 36.29 90.42 37.35 86.44 37.61 85.91 32.3 86.97 32.3"/>
  <path class="cls-10" d="M98.66,37.08h-3.98v-5.58h3.98v1.06h-2.92v1.06h2.92v1.06h-2.92v1.06h2.92v1.06h0v.27ZM98.13,30.18h-1.06l-.53,1.06h.8l.8-1.06h0Z"/>
  <path class="cls-10" d="M107.95,34.16s-.8-.8-1.33-.8c-1.06,0-1.86.53-2.13,1.59,0,.8,0,1.86,1.59,2.13h1.33v-1.06h-1.33v-.8h2.39v2.39c-1.06.53-1.59.8-2.66.53-2.13,0-2.66-1.86-2.39-3.19,0-1.59,1.33-2.66,3.19-2.39.8,0,1.33.53,1.86,1.06l-.8.53h.27Z"/>
  <rect class="cls-10" x="111.06" y="36.49" width="5.31" height="1.06" transform="translate(48 136.94) rotate(-74.7)"/>
  <path class="cls-10" d="M123.89,40.54c-.53,1.33-1.86,2.13-3.72,1.59-1.86-.8-2.13-2.39-1.59-3.72.53-1.33,1.86-2.39,3.72-1.59,1.86.8,2.13,2.39,1.59,3.72M119.91,38.68c0,.8,0,1.86,1.06,2.39s1.86,0,2.39-1.06c0-.8,0-1.86-.8-2.39-1.06-.53-2.13,0-2.39,1.06"/>
  <path class="cls-9" d="M64.65,131.39c8.24,8.24,19.39,12.75,31.08,12.75s22.58-4.52,31.08-12.75c8.24-8.24,12.75-19.39,12.75-31.08v-47.55h-25.77l-3.72,6.38h22.85v40.91c0,10.09-3.98,19.39-10.89,26.3-6.91,6.91-16.47,10.89-26.3,10.89s-19.39-3.98-26.3-10.89c-.8-.8-1.86-1.86-2.66-2.92l-3.45,5.84c.53.53.8,1.06,1.33,1.33"/>
  <path class="cls-4" d="M64.39,121.03c-3.98-6.11-6.11-13.02-6.11-20.46v-40.91h47.55l3.72-6.38h-57.65v47.55c0,9.83,3.19,18.86,9.03,26.57l3.45-6.11h0v-.27Z"/>
  <path class="cls-2" d="M112.74,93.93c-.8-1.06-8.77-7.44-12.22-9.56h-2.39l-1.59-1.33.8,1.59h-.8v.53h0v.53h0v-.53h-.8l.8-1.59-1.59,1.59h-2.39c-3.45,2.13-11.42,8.77-12.22,9.83v.8c0,.27.8.53,1.59.53s2.66,0,3.45-1.06h.53c-1.33,1.59-2.66,3.19-3.19,4.25v1.33h.53c1.33,0,3.45-1.33,3.72-1.59l1.06-1.06c-1.06,2.13-1.59,3.72-1.59,4.52s0,1.06.8,1.33h.8c.53,0,1.33,0,1.86-.53s1.59-2.13,2.39-3.72c0,1.06,0,2.39-.53,3.45h0c0,.8.53,2.92,1.33,3.19h0s.8,0,1.06-.8c.53-.8.8-1.86,1.06-2.92v1.59c0,1.59.53,3.72,1.59,3.72s1.86-2.13,2.13-4.25c0,.8.53,1.33.8,1.86.53.8.8.8,1.06.8s0,0,0,0c1.06,0,1.59-2.39,1.33-3.19h0c0-1.33,0-2.66-.53-3.72.8,1.59,1.59,3.19,2.39,3.72.53.53,1.06.53,1.86.53h.8c.53,0,.8-.8.8-1.33,0-.8-.8-2.39-1.59-4.52.53.53.8,1.06,1.06,1.06.53,0,2.66,1.59,3.72,1.59s.53,0,.53,0v-1.33c-.53-1.06-1.59-2.66-3.19-4.25h.53c.8.53,2.39,1.06,3.45,1.06s1.33,0,1.59-.53v-.8"/>
  <path class="cls-5" d="M111.14,94.2h.53c-1.86-1.59-8.24-6.91-11.42-8.77h-.53l.8,1.33,1.06,2.13c.53.8,3.19,2.66,4.78,3.72,0,0,.8.53,1.06.8.8.53,2.66,1.06,3.72,1.06"/>
  <path class="cls-5" d="M109.81,98.71h0c-1.33-3.45-6.91-9.03-8.77-10.89l-1.59-1.06c0,.53.53,1.59,1.06,3.19.8,1.86,5.58,6.91,6.38,7.44.53,0,2.39,1.33,3.19,1.59"/>
  <path class="cls-5" d="M105.03,101.9h.8c0-1.06-1.86-5.84-4.78-10.09h0l-3.45-6.11h0v1.33c0,.8.53,1.86.8,2.66.53,1.59,1.33,4.25,1.86,5.84.8,2.13,2.66,5.84,3.45,6.38,0,0,.8.53,1.33.53"/>
  <path class="cls-5" d="M99.72,104.29h0c.53-.53.8-1.59.53-2.13h0c-.53-6.38-2.13-11.42-2.66-13.28l-1.33-1.59c0,2.13.53,6.11.53,7.44v1.59c0,1.86.8,5.58,2.13,7.7q0,.53.53.53"/>
  <path class="cls-3" d="M104.77,88.35c.8,1.06,0,2.66-1.33,1.86s.53.53.53.53c0,0,2.92-.8,1.06-2.13h0"/>
  <path class="cls-3" d="M107.95,90.74c.8,1.06,0,2.39-1.33,1.59-1.33-.8,0,.53,0,.53,0,0,3.72,0,1.59-1.59h-.53"/>
  <path class="cls-3" d="M102.91,89.95c0,.53,0,2.13-1.86,1.33-.53,0,0,0,0,0v.53c.53,0,2.66.8,2.39-1.33h0"/>
  <path class="cls-3" d="M105.56,92.87c0,.53,0,2.13-1.86,1.33-.8-.53-.8,0-.8,0l.53.53s2.66.53,2.13-1.59h0"/>
  <path class="cls-3" d="M99.19,92.07c0,.53,2.39,1.06,1.86-.53v1.33h-1.86"/>
  <path class="cls-3" d="M100.52,95.53c0,.53,3.19,1.33,2.66-.53.53.53.53,1.33,0,1.59-.8.53-2.13,0-2.66-.53v-.53"/>
  <path class="cls-3" d="M99.19,92.34c0,.53-.53,1.33-.8,1.33-.53,0-1.06,0-1.33-.8,0,1.06.53,1.33,1.33,1.06.8,0,1.06-1.06.8-1.86"/>
  <path class="cls-3" d="M99.98,96.59c0,.53,0,1.59-.8,1.59s-1.59-.53-1.59-1.06c0,1.06.8,1.59,1.86,1.59s1.06-1.06.8-1.86"/>
  <path class="cls-5" d="M80.33,94.2h-.53c1.86-1.59,8.24-6.91,11.42-8.77h.53l-.8,1.33-1.06,2.13c-.53.8-3.19,2.66-4.78,3.72,0,0-.8.53-1.06.8-.8.53-2.66,1.06-3.72,1.06"/>
  <path class="cls-5" d="M81.92,98.71h0c1.33-3.45,6.91-9.03,8.77-10.89l1.59-1.06c0,.53-.53,1.59-1.06,3.19-.8,1.86-5.58,6.91-6.38,7.44-.53,0-2.39,1.33-3.19,1.59"/>
  <path class="cls-5" d="M86.7,101.9h-.8c0-1.06,1.86-5.84,4.78-10.09h0l3.45-6.11h0v1.33c0,.8-.53,1.86-.8,2.66-.53,1.59-1.33,4.25-1.86,5.84-.8,2.13-2.66,5.84-3.45,6.38,0,0-.8.53-1.33.53"/>
  <path class="cls-5" d="M92.02,104.29h0c-.53-.53-.8-1.59-.53-2.13h0c.53-6.38,2.13-11.42,2.66-13.28l1.33-1.59c0,2.13-.53,6.11-.53,7.44v1.59c0,1.86-.8,5.58-2.13,7.7q0,.53-.53.53"/>
  <path class="cls-5" d="M95.73,105.62s-.53-.8-.8-2.66v-15.67l.53-.8h.53c0,1.59.8,11.42.8,14.08s-1.33,5.31-1.59,5.31"/>
  <path class="cls-3" d="M86.7,88.35c-.8,1.06,0,2.66,1.33,1.86,1.33-.8-.53.53-.53.53,0,0-2.92-.8-1.06-2.13h0"/>
  <path class="cls-3" d="M83.51,90.74c-.8,1.06,0,2.39,1.33,1.59s0,.53,0,.53c0,0-3.72,0-1.59-1.59h.53"/>
  <path class="cls-3" d="M88.56,89.95c0,.53,0,2.13,1.86,1.33.53,0,0,0,0,0v.53c-.53,0-2.66.8-2.39-1.33h0"/>
  <path class="cls-3" d="M85.91,92.87c0,.53,0,2.13,1.86,1.33.8-.53.8,0,.8,0l-.53.53s-2.66.53-2.13-1.59h0"/>
  <path class="cls-3" d="M92.28,92.07c0,.53-2.39,1.06-1.86-.53v1.33h1.86"/>
  <path class="cls-3" d="M91.22,95.53c0,.53-3.19,1.33-2.66-.53-.53.53-.53,1.33,0,1.59.8.53,2.13,0,2.66-.53v-.53"/>
  <path class="cls-3" d="M92.55,92.34c0,.53.53,1.33.8,1.33.53,0,1.06,0,1.33-.8,0,1.06-.53,1.33-1.33,1.06-.8,0-1.06-1.06-.8-1.86"/>
  <path class="cls-3" d="M91.75,96.59c0,.53,0,1.59.8,1.59s1.59-.53,1.59-1.06c0,1.06-.8,1.59-1.86,1.59s-1.06-1.06-.8-1.86"/>
  <path class="cls-3" d="M94.94,93.4c0,.8.8,1.06,1.06,1.06,0,0,.8,0,1.06-.8h0s-.53,1.06-1.06,1.06c-.8,0-1.06-.53-1.06-1.59"/>
  <path class="cls-3" d="M94.94,97.65c0,1.06,1.06,1.33,1.33,1.33s1.06,0,1.06-1.06v.53s-.53,1.06-1.33.8c-.53,0-1.33,0-1.33-1.86"/>
  <path class="cls-5" d="M98.13,86.76c-.8,1.06-1.33,1.59-1.33,1.59h0c.8,0,1.06-.53,1.06-.53v-1.06"/>
  <path class="cls-4" d="M166.66,48.24h0c0-.53-1.59-.8-1.59-.8-2.13-.53-10.36-1.33-11.95-1.33-3.19,0-6.38,0-9.56.53,0,0-7.44.53-9.03.8-1.59,0-3.19.53-5.05,1.06,0,0-9.56,2.39-13.81,4.25-1.33.53-2.39,1.06-3.19,1.86-1.33,1.33-3.72,5.05-3.72,5.05-.53.8-2.66,4.52-2.92,5.05-.53.53-2.92,1.06-3.19,1.06h-1.06s-.8.53-1.06,0c0,0-.8-.53-.8-.8s1.86-2.66,1.86-2.66c0,0-.8-.8,0-1.06h1.59v-2.66h-2.66c-.53,0,2.13-1.86,1.86-1.86s-1.86-1.86-2.13-2.13h0c-.53,0-1.86,2.13-1.86,2.13v-3.19h-3.98v2.66c0,.53-1.33-1.59-2.13-1.86l-2.13,2.39s1.06.53,1.59,1.59c0,.53-2.39,0-2.39,0,0,0-1.06,2.13,0,2.66h2.13s-.8.53-.8.8c0,.8,1.33,2.39,1.33,2.39,0,0-.53,1.33-.8,1.33-1.06,0-6.64-5.58-6.64-5.58-.53,0-.8-.8-.8-1.33,0,0-2.39-3.98-3.72-4.78-1.06-.8-3.98-1.86-3.98-1.86-4.25-1.59-13.55-3.98-13.55-3.98-1.59-.53-3.45-.53-5.84-.8h-5.31c-1.06,0-8.77-.53-11.69-.53h0c-2.66,0-5.58,0-7.97.8-1.33,0-2.66,0-3.72.8-.53,0-.8,0-1.06.53v.8c0,.53,1.33.8,1.86,1.06h.53v.53s0,.53.53,1.06h0v1.33c0,.53,1.33,1.06,2.92,1.06h.8l-.53.8c-.53.53,0,1.06,0,1.59,0,0,1.33,0,1.86.53h.53v.53c0,.53,0,.8.8,1.33s1.33.53,1.86.53h.53v.53c0,.53,0,.8,1.06,1.33h0v1.06c0,.53,1.86.8,2.39.8h.53v1.06s.53.53,1.06.53h.53c.53,0,0,0,0,0h0c.53,0,1.06,0,1.33.53,0,0,.8.53,1.33.53h.53v1.33s.53.53.8.8h.8s.53,0,.8.53h2.39v.53c0,.8,0,1.33.8,1.59,1.33.53,2.66.53,3.98.53h.53v.53c0,1.33,1.59,1.59,3.72,1.86h1.06l-.53.8c-.8,1.33,0,1.59,0,1.86h2.92v.53c0,1.06,1.59,1.33,2.13,1.33s0,0,0,0h.53v1.59s.8.53,1.33.53h.53v2.66h.8c.8,0,0,0,.53,0h.53v.53c0,.8,0,1.33.53,1.86h2.13c0,1.33.53,2.13,1.33,2.13h1.33c0,.8.53,1.06,1.06,1.06h2.13c0,1.06.53,1.06.8,1.06s1.06,0,1.59-.8h.53s0,.53.8.53h.53c.53,0,1.06-.53,1.59-1.06h.8c.53,0,.8,0,1.33-.53h0v.53h0c1.59-1.33,5.58-1.06,6.38-.8l.53-1.33s.8,1.33,1.33,1.06c0,0,5.84,2.66,5.84,2.39v-1.86h.8s0,.53.53.8h1.33v-.53l.53.53c.53.53.8,1.06,1.59,1.33h1.59c.8.53,1.33.8,1.86.8s0,0,0,0c0,0,.53,0,.53-.8v-.8h1.33c.27,0,0,0,0,0h1.86s.8,0,.8-1.33v-.8h.53s.8.8,1.06.8h.53s.53-.53,0-1.86v-.8h2.66c.53,0,.53-1.06,0-1.86v-.53h1.06c.53,0,1.06,0,1.33-.53v-2.66h1.06c.53,0,1.06,0,1.59-.53.53,0,0-.8,0-1.33h0l.53-.53.53-.53h0c0-.53.53-.53.8-.53h0s.8,0,.8-1.33v-.53h0c1.86,0,3.19-.53,3.45-1.86h.53c1.33,0,2.39,0,2.66-1.06,0-.53.8-.53,1.59-.53h.53s.53,0,.53-.8h0c.8,0,1.59,0,2.39-.53,0,0,.53-.53,0-1.59h0v-.53c1.06,0,1.33-.53,1.33-1.06v-.53h.53c.8,0,1.86,0,2.13-.8v-1.06h.53c1.33,0,2.66,0,3.45-.8,0,0,.53-.53.53-.8v-.8l-.53-.53h.8c.8,0,2.66-.8,2.92-1.33s-.53-1.06-.53-1.06h0c.53-.53.8-.8.8-1.06,0-.53.53-.53,1.06-.53h1.06c2.39-.8,1.86-2.39,1.86-2.39,1.06,0,1.86-.53,1.59-1.59,0,0,2.92,0,3.72-1.59.53-.8,0-1.33,0-1.33,0,0,2.39,0,2.39-1.59"/>
  <path class="cls-2" d="M100.25,80.12s1.33,0,.8-.8-1.06,0-1.59,0-1.59,0-1.59.8,1.59,0,2.39,0"/>
  <path class="cls-2" d="M92.55,80.92h1.33c.8,0,0-.8-.53-1.06h0s-.8-1.06-1.06-.53c0,0,0,1.06.53,1.06"/>
  <path class="cls-2" d="M97.33,83.84c.53,0,.53-1.06.53-1.33,0-.53-.8,0-.53,0v.8"/>
  <path class="cls-3" d="M103.44,59.93v-1.06s-.53-.53-.8-.53h-1.59l1.33-1.06v-.8s-.53-.8-.8-1.06c-.8-.8-1.33-1.06-1.59-1.33h-.8c-.53.53-.8,1.06-1.06,1.33h0v-2.39h-4.25s-.53,0-.53.53v1.86h0s-.53-.8-1.06-1.33h-.8s-.8.53-1.59,1.33-.53.8-.8,1.06v.53l1.33,1.06h-2.39v2.92h1.86-.8c0,.53.8,1.59,1.06,2.13h0c0,.8,0,1.59-2.39,0,0,1.06,1.33,1.86,2.92,2.13,0-.53,0-1.33.53-1.33h0c.53-.53.53,0,0-1.06,0,0,0-.53-.53-.8,0,0-.53-.8-.8-1.06l.53-.8v-.53h-2.39v-.8s0-.53.53,0h2.13v-.53q0-.53-.53-.8l-.8-.8v-.53h0c.53-.8.8-1.06,1.06-1.33h0s1.06,1.33,1.86,1.59h0v-2.92h2.66v3.45s.8,0,1.06-1.06c0,0,.53-.8.8-1.06h0s.8.53,1.06,1.06h0v.8l-.8,1.06s-.53.53-.53.8.8,0,1.06,0h1.86v.53h0s0,.53-.53,0h-1.59v.53l.53.8s-.53.8-.8,1.06c-.8.8-.8,1.59-.8,1.59l.53.53h0s.53.8.8,1.33c1.33-.53,2.66,0,2.92-1.33-2.39.8-2.92,0-2.92-.53s1.06-2.13,1.59-2.66h0l-.8-.53h1.86v-1.06"/>
  <path class="cls-3" d="M94.67,65.51c0-1.06,0-1.59,1.06-1.59s1.06,0,1.06,1.59c.53,0,1.06-.53,1.59-.8,0,.53-.53,1.06-1.06,1.33s-.8,1.06-1.33,2.13h0c0-1.33-.8-2.13-1.33-2.39-.53,0-.8-.8-1.06-1.33.53,0,1.06.53,1.59.8"/>
  <path class="cls-3" d="M94.14,63.38s-.53,0-1.59-1.06h0v.8h.53c0,.53.53,1.06,1.33,0v-.53"/>
  <path class="cls-3" d="M97.06,63.38s.53,0,1.59-1.06h0v.8h-.53c0,.53-.53,1.06-1.33,0v-.53"/>
  <path class="cls-2" d="M97.06,84.63c.53,0,.8-.53,0-1.06-.8-.8-.53-1.06-.53-1.33s0-.53,0,0v1.86l.53.8"/>
  <path class="cls-2" d="M93.34,85.43s0,.53-.53.8v.8c.53,0,1.06,0,1.06-.8s0-1.06.53-1.06c.8,0,.53-.53.53-1.06v-1.33c0-.8.53-1.33.53-1.59,0,0-.8,0-1.06.53,0,.53-.53.8-.53,1.33s0,.8-.53.8-.53,0-.8.8"/>
  <path class="cls-2" d="M167.19,48.24h0c0-.53-1.33-.8-1.86-1.06-2.39-.53-4.78-.8-7.17-1.06-5.05-.53-10.36,0-15.41,0-2.66,0-5.31,0-8.24.53-1.86,0-3.72.8-5.58,1.06-4.52,1.06-9.03,2.13-13.28,3.98-1.06.53-2.39,1.06-3.45,1.86-1.33,1.59-2.66,3.45-3.72,5.05-.53.8-1.06,1.86-1.59,2.66-.53.8-.8,1.59-1.33,2.39,0,.53-.8.53-1.59.8h-.8s-2.39,1.59-2.66-1.06c-.53,0,0,.8-.8,1.59-.53,0-1.06.53-.8,1.06,0,0,1.86,0,2.13.53v1.06c0,.8,1.59-.53,1.33-.8-.53-.8,1.59-1.06,2.13-1.33,1.06,0,1.59-.53,2.13-1.59,1.06-2.13,3.98-7.7,6.38-10.09,1.06-1.06,5.31-2.66,9.56-3.72,4.25-1.33,8.5-2.13,10.09-2.66,1.33,0,4.78-.53,9.3-.8h5.05s-.53,0-.8.53h-5.05c-1.33,0-2.39,0-3.45.53h0c0,.53-1.33.53-1.86.53h-2.66c.53,1.06-2.39,1.06-2.92,1.06h0c.53.8-1.86,1.06-2.13,1.06h-1.59c0,.8-1.59.8-2.39.8h-1.06c0,.53-1.86.8-2.13.8h0c.53,1.06-2.92,1.59-3.45,1.86h-.53c.8,0,0,.53-.53.8h-.53.53v.53s-.53,0-1.06.53h-.53v.53s-.53.53-.8.53h-.53c.53,0,0,.8,0,.8,0,0-.8,0-1.06.53h0s.53,0,.8.8c0,.8-1.59,1.06-1.86,1.33h0s.53,0,.8.8h0c0,.53-.8.53-1.06.53h-.8s-.53,0,0,0c0,0,.53,0,.53.53v.8h-1.59v1.06c0,.8-1.59,0-1.86,0h0s.53,1.59,0,1.06c0,0-.8-.53-1.06-.8h0c0,.53.53,1.06,0,.8h-1.06,1.86c0-.53,1.06,0,1.33.27h.8c.27,0,1.06,0,1.06.53s0,.8-.53.8h-1.59c-.53,0-1.06-.53-1.33-1.06h0s0,.53.53.53c0,0,.53,0,.8.53,0,.53.53,1.06.53,1.59s0,1.06-.53,1.33-1.06-1.59-1.06-1.86q0-.53,0,0v1.33c0,.53-.53.8-.8.53s-.53-1.06-.53-1.59h0v4.25c.53,1.06.53,2.39.8,3.45,0,.8.53,1.33.53,2.13s.53,1.59.53,2.39v.53h-.53c-.53,0-.8-.53-1.06-1.06,0-.53-.53-1.06-.53-1.86v-1.86c0-.8,0-1.86-.53-2.66v-3.98.53c0,.53-1.06,2.39-.53,3.45v6.11c0,.53,1.06,1.59,1.06,1.06v-.8h0s.53.53.8.8c.53.53,1.33.53,1.86,0,.53.8.8,1.33,1.59,1.59h1.59c.8.53,1.59,1.06,2.39.8.53,0,.8-.8.8-1.33h2.39c1.06,0,1.33-.8,1.33-1.59.53,0,1.33.8,2.13,0s.53-1.33.53-2.13c.8,0,1.59.53,2.39,0,.8,0,.53-1.59.53-2.13.8,0,1.86,0,2.13-.8v-2.13c.8,0,1.86,0,2.66-.53s.53-1.33,0-1.86c0,0,.53,0,.8-.53v-.53h.8c.8,0,1.06-1.06,1.06-1.86,1.59,0,3.45,0,3.72-2.13,1.33,0,2.66,0,3.19-1.33,0,0,1.86,0,2.13-.53.53,0,.8-.53.8-1.06.8,0,1.86,0,2.66-.53.8-.53.8-1.33.53-2.13.8,0,1.59-.53,1.59-1.33,1.06,0,3.19-.53,2.66-1.86,1.33,0,2.66,0,3.72-.8.8-.53,1.06-1.59,0-2.13,1.33,0,3.98-.8,2.92-2.39.53,0,.8-.53,1.06-1.06h2.13c1.06,0,2.39-1.33,2.13-2.39.8,0,1.59-.8,1.59-1.59,1.33,0,4.25-1.06,3.98-2.66,1.06,0,2.39-.53,2.39-1.86M147.54,46.91h13.02s.53,0,0,0h-12.75s-1.33,0-1.06-.53M126.82,51.96h2.39c.53,0,.8-.53,1.06-.8h2.13s.53-.53.8-.53h6.11s.8,0,.53,0c0,.8-.8,1.06-1.59,1.33-.53,0-1.59,0-2.13.53-.53.53-1.33,1.33-2.13,1.33h0c-1.86,0-3.45.53-5.31,0h-2.13s0-.53.53-.53M123.89,53.02h9.83v1.06s-.53.53-1.06.53h-7.7s-1.06,0-1.33-.53v-.53s-.53,0-.53-.53.53,0,.8,0M114.06,74.01h-2.13s-.53,0-.8-.53c0,0-.8,0-1.06-.53-.53,0,0-.8,0-1.06,0,0,.8-.53,1.06,0,0,0,.8.53,1.06.53.8,0,1.86.53,2.66.53s1.33,0,1.33.8-1.59,1.06-2.39.8M114.06,76.13s-.8,0-1.33-.53c-.53,0-.8-.53-.8-1.06v-.8h.53c.53,0,.8,0,1.33.53,0,0,.53.53.53,1.06v1.06M114.33,71.88h-1.59s-.8,0-1.06-.53c0,0-.8-.53-.53-1.06.53-.8,1.59-.53,2.39,0,1.06,0,2.13.53,3.45.8h2.13v.8h-4.25M118.58,70.29h-2.92c-.53,0-1.06,0-1.86-.53-.53,0-1.86-.53-1.06-1.06h1.33c.53,0,.8,0,1.33.53.8,0,1.86,0,2.66.53h1.86v.8c0,.53-1.06.53-1.33.53M119.11,68.7h-3.98c-.53,0-.8,0-.8-.8v-.8h6.38s1.06,0,.8,0c0,0,0,.53-.53.53s-1.33.53-1.86.53M120.17,66.84h-4.52v-1.33q0-.53.8-.53h6.11s.53.53.53,1.06-.53.53-1.06.8h-1.86M122.57,64.44h-4.52s-1.06,0-1.06-.53v-1.33s0-.53.53-.53h6.38v1.06c0,.53-1.06.8-1.59.8M123.36,61.52h-5.05v-1.33c0-.53.8-.53,1.33,0h8.77c.53,0,0,.53,0,.8-1.33,1.06-2.92,1.06-4.52,1.06M128.14,58.87c-.8,0-1.59.53-2.13.53h-5.58s-.8,0-.8-.53.8-.53.8-.53c0,0,.53,0,.53-.53h6.38s2.66-.53,2.39,0c0,0-.53.53-.8.8,0,0-.53,0-1.06.53M129.21,57.01h-7.44c-.53,0-.8,0-.53-.8,0,0,.8-.53,1.06-.8h3.45c1.06,0,2.39,0,3.45-.53h.8c.53,0,1.06,0,1.33.53,0,.8,0,1.33-.8,1.33h-1.59M120.44,54.35h0c.53,0,1.06-.53,1.59,0,0,0,1.06,0,.8.8h-2.92v-.53M116.72,56.21h0s.8-.53,1.33-.53h2.39s.8,0,.8.53-1.33.53-1.59.53h-2.66M115.39,58.07v-.8h3.45s1.33,0,1.33.53-.8.8-1.33,1.06h-3.72s-.8,0,0-.53M114.6,59.66v-.53h2.66v.53h-3.45v-.53M113,61.79s.53,0,.8-.53h0v-.53h3.19s.53.53,0,.8c0,.53-.8.53-1.33.53h-3.45v-.53M112.47,63.38v-.53h3.98v.8h-3.98M112.47,64.44h2.39c.53,0,.8.8.53,1.33h-1.59s-.53-.53-.8-.53c0,0-.53,0-.53-.53v-.53M110.61,66.04h1.59l.53.53c.53.8-.8.53-1.06.53h-.8c.53,0,.8.53,1.33.53s1.59,0,1.33.8c-.53.53-1.86,0-2.39,0h0s-.53,0,0-.53v-1.33M109.02,68.7v-.8h1.06s2.13.53,1.59,1.06c0,.53-1.33.53-1.86.53h-1.33M108.22,70.82h0c-.53,0-1.06,0-1.33-.53v-1.06h.8c.53,0,.8,0,1.33.53h1.06s.53,0,.53.53c0,1.06-2.13.53-2.39.53M108.22,72.68h1.59s.53,0,.8.53c0,0,.53.53.53,1.06s.8,1.59,0,1.33h0c-.53,0-1.06,0-1.59-.53-.53,0-1.06-.53-1.33-1.06v-.8M110.88,76.93h-1.06s-.53-.53-.8-.8c0,0-.53-.53-.8-1.06v-.53h0s.53,0,.8.53h1.59v1.33M107.16,75.87v-.53s0-.53.53-.53c0,0,.53.53.53.8,0,.53,0,.8.53,1.33,0,0,0,1.33-.53,1.06-.53,0-.8-.8-.8-1.06v-.8M107.16,77.46h0M103.97,77.99s-.53-.8,0-1.33v-.8c0-.53.53,0,.8,0h.53s.18.09.53.27h.8v1.33s0,.53-.53,0c-.53,0-.8-1.06-.8-1.86h0v1.33c0,.8-.53.53-.8,0M109.28,88.09s-.53.53-.8.53h0c-.53,0-.8-.53-1.06-.8,0,0,0-.53-.53-.8-.8-1.33-1.33-2.92-1.59-4.52,0-.53,0-1.06-.53-1.59v-1.33l.53-.53h.53v.8c0,.53,0,1.06.53,1.86.53,1.06.8,2.39,1.33,3.45,0,.53.53,1.06.8,1.59v1.59M111.94,89.15h-.8c-.53,0-.8-.53-.8-.8v-2.13c0-.53-.53-1.06-.8-1.59-.53-1.06-1.06-2.39-1.33-3.45v-1.59h1.06c.53,0,.53.8.8,1.06.53,1.06,1.06,2.13,1.59,3.45,0,.53.8,1.33,1.06,1.86,0,0,0,.53.53,1.06v.53s.53.8.53,1.33v1.33M113.8,87.82h-.8s-.53,0-.8-.53c0,0-.53-.53-.53-1.06s-.53-.8-.8-1.33c-.53-.8-1.06-1.86-1.33-2.66,0-.53-.53-1.06-.8-1.59,0-.53,0-.8-.53-1.33,0,0-.53-.53,0-.8h1.33v.8c0,.53.53,1.06.8,1.59.53,1.06,1.06,2.13,1.86,3.19,0,.53.8,1.06,1.06,1.59,0,0,0,.53.53.8v1.33M115.66,88.09h-1.06s-.53-.53-.8-.8c-.53-.8-1.06-1.33-1.33-2.13-.8-1.59-1.86-2.92-2.39-4.52,0-.53-.53-1.06-.8-1.33,0,0-.8-1.06-.53-1.33h1.06c.27,0,.53.8.8,1.33,0,.53.53,1.06.8,1.59v.53c.53.53.8,1.33,1.33,1.86s.8,1.33,1.33,1.86c0,0,.53.53.8,1.06,0,.53.53,1.06.53,1.59v.8M118.31,87.02h0c-.53,0-1.06,0-1.33-.53-1.06-.53-1.86-1.86-2.39-2.66-.8-1.33-1.59-2.66-2.39-3.98,0,0,0-.53-.53-1.06,0-.53-.53-1.06,0-1.33v-.53s0-.53.53,0c0,0,.53.8.53,1.06.53.53.8,1.33,1.33,1.86.8.8,1.33,1.86,2.13,2.66.53.8,1.33,1.33,1.86,1.86s.53,1.06.53,1.86v1.06M121.24,84.9h-.53c-.53,0-1.06,0-1.59-.53-.53,0-.8-.53-1.06-.8l-.53-.53-1.06-1.06c-.8-.8-1.33-1.59-2.13-2.39,0-.53-.8-1.06-1.06-1.59,0-.53-.53-.8-.8-1.33,0,0-.53-.8,0-.8h.53c.53,0,.8,0,1.33.53,0,0,.53.53.8.8,0,0,.53.53.8.8.53.53,1.06.8,1.33,1.06,0,0,.8.53,1.06.8.53.53,1.06.8,1.59,1.33,0,0,.53.53.8.8s.53.8.53,1.33v1.33M123.36,82.51h-1.59c-.53,0-1.06-.8-1.59-1.06-.53-.53-1.06-.8-1.59-1.33h0c-1.06-.8-1.86-1.59-2.92-2.39-.53,0-.8-.8-1.06-1.59v-1.33h.53s.53,0,.8.53c.53.53,1.33.8,1.86,1.33,1.33.8,2.39,1.33,3.72,2.13.53,0,1.06.53,1.59.8.53.53.8,1.06.8,1.86s0,1.06-.53,1.33M126.55,79.32h-1.86c-1.33,0-2.39-1.06-3.72-1.59,0,0-.53,0-1.06-.53-1.33-.8-2.39-1.33-3.45-2.13,0,0-.8-.53-.8-.8h1.33c.53,0,.8.53,1.06.53.8,0,1.59.8,2.39,1.06,1.59.8,3.19,1.59,5.05,1.86h0s.53,0,.8.53v.8h0M127.08,76.93h-2.13c-.8,0-1.59-.53-2.39-1.06-.53,0-.8,0-1.33-.53-.53,0-1.33-.53-1.86-.8-.53,0-1.59-.53-1.86-1.06v-1.06h.8c.53,0,1.06,0,1.59.53,1.06,0,1.86.8,2.92,1.06.8,0,1.59.8,2.39,1.06.53,0,.8,0,1.33.53h1.06v.53M128.94,75.6c-.53.8-1.86,0-2.66,0s-1.59-.53-2.39-.8c-.53,0-.8,0-1.33-.53-1.33-.53-2.39-1.06-3.72-1.59,0,0-.53,0-.53-.53s.53-.53.8-.8c.53-.53,1.06,0,1.59,0,1.06.53,2.39.8,3.45,1.33.8,0,1.59.53,2.66.8.8,0,2.13.53,2.13,1.59h0M132.39,73.48h0c-.53.53-1.33.53-1.86.53h-2.13c-.8,0-1.59-.53-2.13-.8-1.33-.53-2.92-1.06-4.25-1.59-.53,0-1.06-.53-1.59-.53h-.53v-.53s0-.53.53-.53c.53-.53,1.06,0,1.59,0s1.06.53,1.86.53c1.33,0,2.39.8,3.72,1.06,1.06,0,1.86.53,2.92.53h2.13v1.06M135.85,71.62h-5.84c-1.06,0-2.13-.53-3.19-.8-1.33,0-2.39-.8-3.72-1.06h-1.59s0-.8.53-.8h.8c.53,0,1.33,0,1.86.53,1.33,0,2.66.53,3.72.8,1.59,0,2.92.53,4.52.8h3.19v.53M138.5,70.02h-6.38c-2.13,0-3.98-.8-6.11-1.33-.8,0-1.59,0-2.66-.53h-.8s0-.8.53-.8h1.86c1.33,0,2.66.53,3.72.8,1.33,0,2.66.53,3.72.8,1.33,0,2.66,0,3.72.53h2.13v.53M141.96,68.16c0,.53-1.33.53-1.86.53h-4.78c-1.59,0-3.19-.53-4.52-.8-1.33,0-2.66-.53-3.72-.8h-3.72v-.53h3.98c1.33,0,2.66.53,3.98.53,2.13,0,4.25.53,6.11.8,1.33,0,2.39.53,3.72,0h-3.72c-2.13,0-4.25-.53-6.38-.8h-2.13c-1.06,0-2.39-.53-3.45-.53h-1.59s-.8,0-.53,0h1.06c1.06,0,2.39,0,3.45.53,1.06,0,2.39.53,3.45.53h1.86c1.33,0,2.66.53,3.72.53h4.25v1.06c0,.53,0,0,0,0M143.55,66.04s-.53,0-.8.53h-3.45c-1.33,0-2.39,0-3.72-.53h-2.13c-.8,0-1.86,0-2.66-.53-1.33,0-2.66-.53-3.98-.53h-1.86,13.28c1.33,0,2.66,0,3.72.53h1.06s.53,0,.53.53v.53M146.21,64.44h-11.16c-2.13,0-3.98,0-6.11-.53h-3.72v-.53c.53,0,1.06,0,1.33-.53h8.5c1.86,0,3.72.53,5.84.53s2.92,0,4.25.53h.8s.53,0,.53.53h0M150.72,62.32s-.53.53-1.06.53h-2.92c-1.59,0-2.92,0-4.52-.53-1.59,0-2.92,0-4.52-.53h-9.56v-.53s0-.53.53-.53c0-.53,1.06,0,1.59,0h18.6s1.59.53,1.59,1.06h0M153.65,59.4s-.53.53-.8.53c-.8,0-1.59,0-2.39.53h-3.45c-2.66,0-5.31,0-7.97-.53h-9.3s0-.53.53-.53c.53-.53,1.33-.8,2.13-.8h20.46s.8,0,1.06.53h0M154.18,57.54s-.53,0-.8.53h0c-3.19-.53-6.38-.53-9.56-.53h-12.49c0-.8.8-.8,1.33-.8h13.28c2.66,0,5.31,0,7.97.8h0v.53M157.63,55.94c-.8.53-1.59.53-2.39.53h-.8c-2.39-.53-5.05-.8-7.7-.8h-14.61s0-.53.53-.53c1.33-.8,2.92-.53,4.52-.53h21.52c0,.53-.8.8-1.06,1.06M160.02,53.29s-.8.53-1.06.53h-24.97v-.53s1.06-.53,1.59-.53h23.64s.8,0,.53.53M163.21,51.43s-.8,0-1.06.53h-25.77c-.53,0,.53-.8.53-.8h1.06c.53,0,1.06,0,1.59-.53h24.17c0,.53,0,.8-.53.8M165.87,49.04h-24.44c-.53,0-.8,0,0-.8,0,0,.53,0,.8-.53h23.91s.53,0,.53.53v.53"/>
  <path class="cls-2" d="M83.78,89.15c.53,0,1.06-.8,1.59-1.33.53-.53.8,0,1.33,0s1.06,0,1.59-.8h0s.8-.8.8-1.06v-4.25c0-1.33,1.33-.53,1.33-1.06s-.53-.53-.8-1.06c0-.8.8,0,.53-1.06,0-.8-1.06-1.86-1.33-3.45,0-1.06-.53-1.33-.8-1.86-.53-.53-.8,0-1.33,0s-1.06-.53-.8-1.06v-.53q0-.35,0,0c0,1.06-1.59,1.59-2.39,1.33h-.8c-.27,0,0-.53.53-.8,0,0,.53,0,.8-.53h1.06s.8,0,1.06-.53h.53s.53,0,0,0h0c-.53,0-.53.53-1.06.53,0,0-.53,0-.53-.53v-.8h-1.59c-1.06,0-.53-.8,0-1.06h-1.59q-.53,0-.53-.53h.53-1.59q-.53,0,0-.53h1.06s-.8,0-1.06-.53c0,0-.53,0-.8-.53v-.53s1.06,0,.53-.53c-.53,0-1.33-.53-1.59-.8,0-.53,1.06-.53.53-.8h-.53s-1.06,0-.8-.8h.53-.53s-.53,0-.8-.53c0,0-.8-.53,0-.8h0s-.8,0-1.06-.8c0,0-.8-.53,0-.53h-3.72v-.53h-2.39s.53,0,0,0h-2.13c-.53,0-1.06,0-1.06-.8h-1.86s-2.66-.53-2.13-.8h0c-.53,0-3.45,0-2.92-1.06h-1.86c-.8,0-2.39,0-2.92-.53h-2.66v-.53h7.7c1.59,0,5.84,1.33,9.83,2.66,4.25,1.33,8.5,2.66,9.56,3.72,1.06,1.06,2.39,2.66,3.19,4.78,0,.8,1.06,1.06,1.59,1.33.53.53,1.06.8,1.33,1.33s0,.8.8,1.33.53,1.06,1.06,1.33c0,.53.8.8,1.33,1.06,0,0,1.33.53,1.33.8s-.53.53-.53.8.53,0,.53.53-.8.8-.53,1.06v.8s-.53.53,0,1.06c0,.53,1.06.53,1.06,0v-1.59c0-.53.53-.53,1.59-1.06.8-.53,1.59,0,2.39-.53.8,0-1.06-.53-1.33-.8h0v-.53c-1.59,0-2.13-1.33-2.13-1.33h-1.06c-1.33-.53-2.39-2.13-2.66-2.66-.53-.8-1.06-1.33-1.59-1.86,0,0-.53,0-.8-.53-.53-.53-.8-1.33-1.06-1.86-.8-1.59-2.13-3.45-3.45-4.52-1.33-.8-2.92-1.59-4.25-1.86-4.52-1.59-9.03-2.66-13.55-3.98-1.86-.53-3.98-.8-5.84-.8-2.66,0-5.58-.53-8.24-.53s-5.84,0-8.77-.53c-2.66,0-5.31,0-8.24.8-1.33,0-2.66.53-3.72.8-.53,0-1.06,0-1.33.53v1.06c0,.8,1.33,1.06,2.13,1.33,0,.53,0,1.06.8,1.33-.53,1.86,1.86,2.39,3.45,2.66-.53.53-.53,1.59,0,2.13s1.59.53,2.39.53c0,.53,0,1.06.8,1.59.53.53,1.33.8,2.13.8,0,1.06.53,1.33,1.59,1.59,0,1.33,1.86,1.59,2.92,1.86,0,1.06.53,1.33,1.59,1.59h2.13c.53,0,.8.53,1.33.8-.53.8,0,1.59,1.06,2.13h1.06s.53,0,1.06.53c.53,0,1.33.53,1.86.53,0,1.06,0,1.86,1.06,2.13,1.33.53,2.92.53,4.25.53,0,2.13,2.66,2.13,4.25,2.39-.53.8-1.06,1.59,0,2.39.8.53,1.86.27,2.66.27,0,1.33,1.59,1.86,2.92,1.59,0,1.33.53,1.86,1.86,2.13v2.39c0,.53,1.06.53,1.86.53,0,.8,0,1.59.8,2.13.53.53,1.33.53,2.13,0,0,1.59,1.06,2.66,2.66,1.86,0,1.59,1.86,1.33,3.19.8.53,1.86,2.13,1.33,3.19.53,0,.8,1.06,1.06,1.86.53M88.56,76.13h0v3.98c0,.53-.53,3.45-.53,3.72,0,.53,0,1.86-.8,2.39h-.53s-1.06.8-1.06.53v-.8c0-.53,0-1.06.53-1.59v-5.84c0-.53,0-.8.53-1.06v-1.86M86.97,74.81c0-.53,0-1.59.8-1.86h0v.53h0v.8s0,.8-.8.8h-.53v-.8M87.23,76.4h.8v1.59s-.53.8-.53,0v-1.33h0v1.06s-.8,1.06-1.06.53v-1.86s0-.8,0,0c0,0-.53.8-.8,1.06,0,0-.8.53-1.06.53-.53,0,0-.53,0-.8,0,0,.53-.53.8-.8l.8-.8h0s.53.53.8.53.8-.53,1.06,0c0,0,0,.8.53.8M85.11,73.48c0-.53,0-1.06.8-1.33h0s0,.53.53.53v1.33s-.53.8-1.06.53c-.8,0-.53-1.06-.53-1.59M84.05,73.21s0-.53.53-.53,0,0,0,.53v1.59c0,.53-.53.8-.8,1.06-.53,0-.8.53-1.33.8,0,0-.8,0-1.33.53q-.53,0-.53-.53t.8-.8h.53c.53,0,.8-.53,1.06-.8,0,0,.8-.53,1.06-1.06M83.51,72.41c.53,0,0,.8,0,1.06,0,.53-.8.8-1.33,1.33-.53,0-1.06.53-1.86.8h-1.33s-.53-.53,0-.8h1.33c.53,0,1.06-.53,1.59-1.06,0,0,.53,0,.8-.53h1.06M75.01,72.68h-1.33s-.53-.8,0-1.06h2.39c1.06,0,2.39-.53,3.45-1.06h2.13v1.06s-.8.8-1.33,1.06c-1.06.53-1.86.8-2.92.8h-1.86M76.08,73.48h0c0,.8-1.33.8-1.86,0v-.53h1.59M63.59,59.66h7.44c.53,0,1.33,0,1.59.8v.53s-.53.53-.8.53h-3.98c-1.33,0-2.92,0-3.98-1.06,0,0-1.06-.8-.53-.8M63.33,58.87s-2.13-.8-1.33-1.33h8.77s0,.53.53.53.53.53,0,.8h-8.5M67.31,62.05h5.84s.53.53.53.8v.53h0v1.06h-6.11c-.8,0-1.59-1.33-.53-1.86M68.9,65.51s0-.53.53-.53h5.58v1.86h-5.31v-.8M69.97,67.37h1.06c1.06,0,2.39,0,3.45-.53h2.39s0,.53.53.8c0,0,.53,0,.53.53s-.8.53-1.06.53h-2.66c-1.06,0-2.13.53-2.92,0-.53,0-.8,0-1.33-.53,0,0-.53-.53-.53-.8M71.83,70.02c0-.53.8-.8,1.06-.8h5.05c.53,0,.8,0,1.06.53,0,.53,0,.8-.53,1.06-.53,0-1.33.53-1.86.53h-4.52s-.53,0-.53-.53M76.61,73.21h1.33c.53,0,1.06,0,1.59-.53.53,0,1.06-.53,1.33-.8,0,0,.53,0,.53-.53l.53-.53h.53c.53,0,0,.53,0,1.06s-.53.53-.8.8-.8.53-1.06.8c-.8.53-1.59.8-2.66.8h-1.33s-.53-.8,0-1.06M84.05,69.23h1.06s-.53.8-.53,1.06c0,0-.8.53-1.33.53h-.8s-.53,0-.53-.53h0s0-.53.53-.8h1.33M81.39,67.37h1.33v.8h0c-.53,0-1.06.53-1.59.53s-1.06,0-1.59-.53c0-.53.53-.8.8-.8h1.33M80.59,65.77h.53v.8h0s-.53,0-.8.53h-1.33s-.8,0-.8-.53,0-.53.53-.8h2.13M79.8,64.98q0,.53-.8.53h-3.72v-1.06c0-.53,1.33,0,1.86,0h2.13v.53M79.53,63.38c.53,0,0,.53-.53.53h-2.92c-.53,0-1.06,0-1.33-.8v-.53h4.25v.53h.53M78.47,61.52v.53h-2.66c-1.06,0-1.86,0-2.66-.8s.53-.8,1.06-.8h3.45l.53.53M76.61,59.13h0s.53,0,.53.8-.53.53-.8.53h-1.59c-.8,0-1.86,0-2.66-.53l-.53-.53v-.53h4.52M75.81,57.01v1.06h-1.06c-1.06,0-2.39,0-3.45-.8,0,0-.8-.8,0-1.06h4.52M71.29,55.15h3.72-3.72s0-.53-.53-.8h.53M70.23,55.94h0s.53,0,0,.53c0,.53-1.33.53-1.86.53h-6.91c-.53,0-2.13,0-2.13-1.06s.53-1.06,1.06-1.06h9.03v.8M67.58,53.02h.8s.53.53.8.8c0,0,1.06,0,.8.8h-9.03c-.8,0-2.13,0-2.39-.8v-.8h9.83M52.96,48.77h5.05c.53,0,.8,0,1.06.53l.8.53h5.58-7.7c-1.06,0-1.86-.53-2.39-1.33-.53-.53-1.33-.53-1.86-1.06,0,0-.53-.53-.53-.8M45.79,46.91h5.58-4.25s-1.33,0-1.33-.53.53,0,.8,0M30.65,47.18h13.55c0,.53,0,0-.53,0h-12.75M26.13,49.3c-.53,0-.8-.53-.8-.8h0s.53,0,1.06-.53h24.44s.53,0,0,.53h-10.09c-3.72,0-7.7,0-11.42.53h-3.72M27.73,50.37h2.66c3.19,0,6.64-.53,9.83-.53h12.49l.53.53c0,.53,0,0-.53,0h-16.74c-1.59,0-3.19,0-5.05.53h-2.92s-.53,0-.53-.53M28.52,52.22h0c0-.53.8-.53,1.06-.8h25.77s1.33,1.06.53,1.06h-27.1M30.38,53.29h-1.33,28.16s.53.53,0,.8h-26.57M33.31,56.21h-1.06s-.8-.53-.8-.8,0-.53.8-.8h25.77v.53h-24.17,26.03v1.06h-25.77M36.23,58.33h-1.33l-.53-.53v-.53h0c0-.53.8-.53,1.06-.53h24.97s.53,0,.53.53,0,.53-.53.53h-24.44M37.82,59.93h0c0-.53.53-.8.8-.8h23.38s.8.53,1.06.8h-25.24M40.74,61.79c-.53,0-1.06,0-1.59-.53h0s.53-.53.8-.53h23.38s0,.53.53.53v.53h-23.38M43.93,63.65h-2.13v-.8h0c3.45,0,6.64-.8,10.09-.53h13.02s1.33,0,1.06.8h-10.36c-3.98,0-7.97,0-11.95.8M45.26,64.18h0c-.53-.53.53-.53.8-.53h20.19s.53.53.53.8,0,0-.53,0h-19.13c-.53,0-1.33,0-1.59-.53M49.25,67.37s-.53-.53-.8-.53h-1.59v-.53s.53-.8,1.06-.8h0c2.66-.53,5.31,0,7.7,0h11.42s.53,0,.8.53h.53-3.19c-1.59,0-3.45,0-5.05.53-3.72,0-7.17,0-10.89.53h10.63c1.59,0,2.92,0,4.52-.53h3.98v1.33h-17.27c-.8,0-1.59,0-2.13-.53M56.42,70.55h-1.86c-.8,0-1.86,0-2.66-.8h0v-1.06c0-.53,1.33-.53,1.86-.53h14.08c.53,0,1.59-.53,2.13,0v.53h0c.8,1.06-.8,1.06-1.33,1.06-1.06,0-1.86,0-2.92.53-1.86,0-3.72.53-5.58.8-1.33,0-2.66.53-3.98,0M59.07,72.95c-1.06,0-1.59-.53-1.59-.8h0v-.8h3.45c1.33,0,2.66,0,3.98-.53,1.06,0,2.39,0,3.45-.53h2.92v.53c0,.53,0,1.06-.53,1.33-.53,0-1.06,0-1.59.53-1.33,0-2.39.53-3.72.8-.8,0-1.86,0-2.66.53h-3.72M62.79,75.6h-1.59v-1.06l.53-.53c.53-.53,1.33-.53,1.86-.8.8,0,1.59,0,2.39-.53,1.06,0,2.13-.53,3.19-.8h3.19s.8.53,0,.8c0,0-.8,0-1.33.53-.8,0-1.59.53-2.39.8-1.06,0-2.13.8-3.19,1.33-.53,0-1.06.53-1.59.8h-1.59M65.72,77.46h-.53c-.8,0-1.06-.53-1.06-.8v-.53h0c1.59-.8,3.19-1.59,4.78-2.13.8,0,1.59-.53,2.39-.8h1.06c.27,0,.53,0,.8.53,0,.53,0,1.06-.8,1.33,0,0-.8.53-1.06.53-1.59.8-2.92,1.59-4.52,2.13h-1.59M67.84,79.32s-.8,0-.8-.8h0v-1.06s.53,0,.53-.53c0,0,.53,0,.8-.53.53,0,1.33-.53,1.86-.8s1.06-.53,1.59-.8c0,0,.53,0,.8-.53h3.19s0,.53-.53.8c-.8.53-1.59,1.06-2.13,1.33-.8.53-1.86,1.06-2.66,1.59-.53,0-.8.53-1.33.8s-1.33.53-1.86,0M70.76,81.98h-1.59v-1.86s.53-.53.8-.53c.53,0,.8-.53,1.33-.53.8-.53,1.59-.8,2.39-1.33.8-.53,1.59-.8,2.13-1.33s1.33-1.06,2.13-1.06.53,0,.53.53.53.53,0,.8l-1.06,1.06c-.8.8-1.59,1.33-2.39,2.13-1.33,1.06-2.66,1.86-4.25,2.66M72.09,84.63h-.53v-2.13l.53-.53s.8-.53,1.06-.8c.8-.53,1.59-.8,2.13-1.33,1.06-.8,2.13-1.59,3.19-2.66,1.06-1.06.53-.8,1.06-1.06h1.06v1.33c0,.53-.8,1.06-1.06,1.33l-1.86,1.86c-.8.8-1.33,1.33-2.13,2.13,0,0-.8.53-1.06,1.06-.53.53-1.33,1.06-2.13,1.06M74.75,86.76h0s-.53-.53-.53-.8v-.53c0-.8,1.59-2.13,2.39-2.92.8-.8,1.33-1.59,2.13-2.39l1.86-1.86.8-.8h1.59s-.53.8-.53,1.06c-.53.8-1.06,1.59-1.33,2.13-1.06,1.59-2.13,2.92-3.19,4.25,0,0-.53.53-.8,1.06-.53.53-1.06,1.06-1.86,1.06M78.47,87.29c-.53,0-1.06.53-1.59.53h-.53v-.53c0-.53,0-.8.53-1.33,0-.53.8-1.06,1.06-1.33.8-1.06,1.33-1.86,2.13-2.92,0-.53.8-1.06,1.06-1.59,0,0,.53-.8.53-1.06,0-.53,0-1.06,1.06-.53h.53s.53,0,0,.53c0,.53-.53.8-.53,1.33-.53.8-.8,1.59-1.33,2.39-.8,1.33-1.59,2.66-2.39,3.98,0,0-.53.8-1.06,1.06M81.65,87.56c-.53.53-1.33.8-1.59.8h0v-1.06c0-.27,0-.8.53-1.06,0,0,.53-.8.8-1.06.53-.8.8-1.59,1.33-2.39.53-.8.8-1.59,1.33-2.39,0,0,0-.8.53-1.06,0,0,0-.8.53-1.06h.53s.53,0,0,.8v1.33c0,.8-.53,1.86-.8,2.66,0,.53-.53,1.33-.8,1.86,0,0,0,.53-.53.8,0,0,0,.53-.53.8,0,.53-.53.53-.8.8M82.72,88.09v-1.59c0-.53.53-1.33,1.06-2.13,0,0,0-.8.53-1.06,0-.8.53-1.86.8-2.66v-2.13s.53-.53.8,0v3.19c0,1.06-.8,3.72-.8,4.25s-.53,1.33-.8,1.59-2.13,2.13-2.39,1.06"/>
  <path class="cls-3" d="M91.75,89.68c-1.06,0-1.59,0-1.86-1.06h0s-.53-.8-.53-1.06v-.53s-.8-.53-.8-1.06-1.06-1.06-.8-2.13c0-.53,0-1.06,1.06-1.59,0,0,1.06-.53,1.59-.53s2.39,0,3.45,2.39c.8,1.86.53,3.72,0,4.52,0,.53-.8.8-1.33,1.06h-.8M91.48,85.96h.53c0-.53,0-.8-.53-1.06l-.53-.53v1.06h.53"/>
  <path class="cls-3" d="M89.09,87.82h0c-1.06,0-1.59-.8-1.59-1.33s-.8-1.33-.8-2.13.53-1.59,1.86-2.13c0,0,.53,0,.8.53v2.66h0v2.13s-.53.53-.8.53h0l.53-.27Z"/>
  <path class="cls-3" d="M88.03,87.82h0c-.8,0-1.33-.53-1.59-1.06,0,0-.53-.8-.8-1.33,0-.53,0-1.33.8-1.86h1.06v.8h0c0,.53,0,.8.53,1.33h0v1.86s-.53.53-.8.53h.8v-.27Z"/>
  <path class="cls-5" d="M89.09,82.51c.53,0,2.66-.8,3.72,1.86,1.06,2.39,0,4.25-.53,4.52-1.33,0-1.86,0-1.86-.53h0c.8,0,.8-.53.8-.8-.8.53-1.33,0-1.33,0v-1.06h0c0,.53.53.53.53.53.53,0,1.86,0,1.59,1.06.8-1.86,0-4.78-2.66-4.52h0c.53.8,0,1.33,0,1.59v.8h0c-.53,0-.53-.53-.53-.8,0,0-1.59-1.59,0-2.66"/>
  <path class="cls-5" d="M88.56,82.77s-.8,1.33,0,2.66v1.33h0c-.8,0-1.06-.53-1.06-1.06,0,0-1.59-2.13.53-3.19h0"/>
  <path class="cls-5" d="M86.97,84.1c0,.8,0,1.33.8,1.86v1.06h0c-.8,0-.8-.53-.8-.53,0,0-1.06-1.06,0-2.39h0"/>
  <path class="cls-3" d="M98.39,89.68c-.53,0-1.06-.53-1.33-1.06-.53-.8-.8-2.66,0-4.52,1.06-2.13,2.66-2.39,3.45-2.39s1.33,0,1.59.53c.53.53,1.06,1.06,1.06,1.59,0,.8-.53,1.59-.8,2.13,0,.53,0,.8-.8,1.06v.53s0,.8-.53.8h0c0,1.06-1.06,1.33-1.86,1.33h-.8M99.72,85.96h0v-1.06l-.53.53s0,.8-.53,1.06h.53c.27,0,0,0,0,0"/>
  <path class="cls-3" d="M101.84,87.82h0c1.06,0,1.59-.8,1.59-1.33s.8-1.33.8-2.13-.53-1.59-1.86-2.13c0,0-.53,0-.8.53v2.66h0v2.13s.53.53.8.53h0l-.53-.27Z"/>
  <path class="cls-3" d="M102.91,87.82h0c.8,0,1.33-.53,1.59-1.06,0,0,.53-.8.8-1.33,0-.53,0-1.33-.8-1.86h-1.06v.8h0c0,.53,0,.8-.53,1.33h0v1.86s.53.53.8.53h-.8v-.27Z"/>
  <path class="cls-5" d="M101.84,82.51c-.53,0-2.66-.8-3.72,1.86-1.06,2.39,0,4.25.53,4.52,1.33,0,1.86,0,1.86-.53h0c-.8,0-.8-.53-.8-.8.8.53,1.33,0,1.33,0v-1.06h0c0,.53-.53.53-.53.53-.53,0-1.86,0-1.59,1.06-.8-1.86,0-4.78,2.66-4.52h0c-.53.8,0,1.33,0,1.59v.8h0c.53,0,.53-.53.53-.8,0,0,1.59-1.59,0-2.66"/>
  <path class="cls-5" d="M102.64,82.77s.8,1.33,0,2.66v1.33h0c.8,0,1.06-.53,1.06-1.06,0,0,1.59-2.13-.53-3.19h0"/>
  <path class="cls-5" d="M103.97,84.1c0,.8,0,1.33-.8,1.86v1.06h0c.8,0,.8-.53.8-.53,0,0,1.06-1.06,0-2.39h0"/>
  <polygon class="cls-5" points="120.97 112 100.78 118.37 96.27 120.76 91.48 116.78 71.29 112 64.39 85.43 91.48 87.56 96 90.74 100.25 87.56 127.08 85.43 120.97 112"/>
  <path class="cls-1" d="M96,122.36l-5.05-4.52-20.72-4.78-7.44-28.69,28.96,2.39,4.25,2.92,3.72-2.92,28.69-2.39-6.64,28.69-20.46,6.64-5.31,2.66ZM72.09,110.93l19.92,4.78,4.25,3.72,4.25-2.13,19.39-6.38,5.58-24.44-24.97,2.13-4.52,3.45-5.05-3.45-24.97-2.13,6.11,24.17h0v.27Z"/>
  <polygon class="cls-5" points="122.03 123.42 101.05 128.47 96.27 130.59 91.48 128.47 69.97 123.42 62.53 91.01 90.16 89.15 96 92.6 101.31 89.15 128.94 91.01 122.03 123.42"/>
  <path class="cls-9" d="M101.05,87.82l-5.05,3.19-5.58-3.19-29.49,2.13,7.97,34.53,22.05,5.05,5.31,2.39,5.31-2.39,21.52-5.05,7.17-34.53-29.22-2.13ZM120.97,122.36l-20.19,4.78-4.52,2.13-4.25-2.13-20.99-4.78-6.91-30.28,25.77-1.86,6.11,3.72,5.58-3.72,25.5,1.86-6.38,30.28h.27Z"/>
  <path class="cls-7" d="M70.5,107.75h0c0-2.92,2.13-5.05,5.05-5.05s3.45,1.06,4.25,2.39l-2.66,1.59c0-.8-.8-1.06-1.59-1.06s-1.86,1.06-1.86,2.13h0c0,1.33.8,2.13,1.86,2.13s1.33-.53,1.86-1.06l2.66,1.59c-.8,1.33-2.13,2.66-4.52,2.66s-5.05-1.86-5.05-5.05"/>
  <path class="cls-7" d="M80.06,107.75h0c0-2.92,2.13-5.05,5.05-5.05s3.45,1.06,4.25,2.39l-2.66,1.59c0-.8-.8-1.06-1.59-1.06s-1.86,1.06-1.86,2.13h0c0,1.33.8,2.13,1.86,2.13s1.33-.53,1.86-1.06l2.66,1.59c-.8,1.33-2.13,2.66-4.52,2.66s-5.05-1.86-5.05-5.05"/>
  <polygon class="cls-7" points="90.16 102.96 93.34 102.96 95.47 106.42 97.59 102.96 100.78 102.96 100.78 112.53 97.59 112.53 97.59 107.75 95.47 111.2 95.47 111.2 93.08 107.75 93.08 112.53 90.16 112.53 90.16 102.96"/>
  <path class="cls-9" d="M101.84,102.96h4.25c2.39,0,4.25,1.06,4.25,3.45h0c0,2.39-1.86,3.45-4.25,3.45h-1.06v2.66h-3.19v-9.56h0ZM105.83,107.75c.8,0,1.33,0,1.33-1.06h0c0-.8-.53-1.06-1.33-1.06h-.8v2.13h.8Z"/>
  <path class="cls-9" d="M111.14,102.96h4.52c1.59,0,2.66.53,3.45,1.06.53.53.8,1.33.8,2.13h0c0,1.33-.8,2.39-1.86,2.92l2.13,3.19h-3.72l-1.86-2.66h-.8v2.66h-3.19v-9.56h.53v.27ZM115.66,107.48c.8,0,1.33,0,1.33-.8h0c0-.53-.53-1.06-1.33-1.06h-1.33v1.86s1.33,0,1.33,0Z"/>
  <polygon class="cls-6" points="90.69 95.79 89.89 97.92 91.48 99.24 89.36 98.98 88.56 100.84 88.03 98.98 85.91 98.71 87.76 97.65 87.23 95.53 88.83 96.85 90.69 95.79"/>
  <polygon class="cls-6" points="109.28 94.99 108.49 96.85 110.08 98.18 108.22 97.92 107.42 100.04 106.89 97.92 104.77 97.65 106.63 96.59 106.09 94.73 107.69 96.06 109.28 94.99"/>
  <polygon class="cls-6" points="109.02 114.65 108.22 115.98 109.55 117.04 107.95 117.04 107.42 118.37 106.89 116.78 105.56 116.78 106.89 115.98 106.36 114.39 107.69 115.45 109.02 114.65"/>
  <polygon class="cls-6" points="89.09 118.11 88.56 119.97 90.16 121.29 88.03 121.29 87.23 123.15 86.7 121.29 84.58 121.03 86.44 119.97 85.91 117.84 87.5 119.17 89.09 118.11"/>
  <polygon class="cls-6" points="97.59 114.12 97.33 115.18 98.13 115.98 96.8 115.98 96.53 117.31 96 115.98 94.94 115.98 96 115.18 95.73 113.86 96.53 114.65 97.59 114.12"/>
</svg>