<?xml version="1.0" encoding="UTF-8"?>
<svg id="Camada_1" data-name="Camada 1" xmlns="http://www.w3.org/2000/svg" viewBox="0 0 180 180">
  <defs>
    <style>
      .cls-1 {
        fill: #979f82;
      }

      .cls-2, .cls-3 {
        fill: #2b3647;
      }

      .cls-4, .cls-5 {
        fill: #fff;
      }

      .cls-5, .cls-3, .cls-6 {
        fill-rule: evenodd;
      }

      .cls-7 {
        fill: #193657;
      }

      .cls-8 {
        fill: #173557;
      }

      .cls-9, .cls-6 {
        fill: #68813c;
      }

      .cls-10 {
        fill: #d6d6cc;
      }
    </style>
  </defs>
  <path class="cls-9" d="M90,3.66C42.45,3.66,3.66,42.45,3.66,90s38.78,86.34,86.34,86.34,86.34-38.78,86.34-86.34S137.55,3.66,90,3.66"/>
  <path class="cls-8" d="M90,11.63C46.7,11.63,11.63,46.7,11.63,90s35.07,78.37,78.37,78.37,78.37-35.07,78.37-78.37S133.3,11.63,90,11.63"/>
  <path class="cls-10" d="M23.32,91.86c-.8-1.06-1.33-2.39-1.06-3.72,0-3.45,2.66-4.78,5.05-4.78s4.78,1.86,4.52,5.05c0,1.33-.53,2.39-1.59,3.45l-1.06-1.33c.53-.53,1.06-1.33,1.06-2.13,0-2.13-1.59-3.19-2.92-3.45-1.59,0-3.19.8-3.19,2.92s0,1.86.8,2.39l-1.33,1.06v.53h-.27Z"/>
  <path class="cls-10" d="M22.52,94.52l9.3-.8v1.86l-9.03.8v-1.86h-.27ZM34.48,96.64v-1.86l-2.13-.8h0v1.33l1.86,1.33h.27Z"/>
  <polygon class="cls-10" points="23.59 104.61 23.32 102.75 31.82 97.17 32.09 99.03 25.45 103.28 33.15 104.61 33.42 106.47 23.59 104.61"/>
  <rect class="cls-10" x="25.48" y="109.49" width="9.3" height="1.86" transform="translate(-32.81 14.82) rotate(-18.1)"/>
  <path class="cls-10" d="M31.56,122.68c-1.33-.53-2.13-1.33-2.66-2.66-1.33-3.19,0-5.31,2.13-6.38,2.13-1.06,5.05-.53,6.38,2.39.53,1.06.53,2.39,0,3.72l-1.59-.53v-2.39c-1.06-2.13-2.92-2.13-4.25-1.59-1.33.53-2.39,2.13-1.59,4.25,0,.8,1.06,1.33,1.86,1.86l-.53,1.59h0l.27-.27Z"/>
  <path class="cls-10" d="M40.85,130.64c-1.86,1.33-4.78,1.59-6.64-1.06-1.86-2.66-.8-5.31,1.06-6.64,1.86-1.33,4.78-1.59,6.64,1.06s.8,5.31-1.33,6.64M36.34,124.27c-1.33.8-2.13,2.39-.8,4.25,1.33,1.86,3.19,1.59,4.25.8,1.33-.8,2.13-2.66,1.06-4.25-1.33-1.86-3.19-1.59-4.52-.53"/>
  <rect class="cls-10" x="43.06" y="131.74" width="1.59" height="4.78" transform="translate(-80.28 67.02) rotate(-43.5)"/>
  <polygon class="cls-10" points="55.2 141 50.42 142.33 50.15 142.07 50.15 137.29 46.17 142.6 44.84 141.54 50.42 134.1 52.01 135.43 51.75 140.21 56.53 138.88 58.12 140.21 52.54 147.38 51.22 146.32 55.2 141"/>
  <rect class="cls-10" x="54.05" y="144.36" width="9.3" height="1.86" transform="translate(-96.59 124.29) rotate(-60.3)"/>
  <polygon class="cls-10" points="65.29 143.66 62.11 150.83 66.62 152.69 65.83 154.02 59.98 151.63 63.7 143.13 65.29 143.66"/>
  <rect class="cls-10" x="66.07" y="149.86" width="9.3" height="1.86" transform="translate(-94.44 172.31) rotate(-72.3)"/>
  <path class="cls-10" d="M77.78,149.51l-2.92-.53v-1.59c2.92.53,5.05,1.06,7.7,1.59v1.59l-3.19-.53-1.59,7.44h-1.59l1.59-7.7h0v-.27Z"/>
  <path class="cls-10" d="M90.27,156.94h-4.78l-.8,1.59h-1.86l4.52-9.03h1.86l3.72,9.3h-1.86l-.8-1.86h0ZM88.14,151.37l-1.86,3.98h3.45l-1.59-3.98Z"/>
  <path class="cls-10" d="M103.81,157.48h-2.13l-3.19-2.39h-1.59l.53,3.19h-1.86l-1.33-9.03c1.33,0,2.92,0,4.25-.53,2.13,0,3.45,1.06,3.72,2.66,0,1.33,0,2.66-1.86,3.19l3.19,2.66h.27v.27ZM96.38,150.83v2.92h2.92c1.06,0,1.59-1.06,1.33-1.59,0-.8-.8-1.33-1.86-1.33h-2.66.27Z"/>
  <path class="cls-10" d="M116.3,148.44c.8,2.13,0,4.78-2.66,6.11-1.06,0-2.39.8-3.45,1.33l-3.19-8.77c1.06,0,2.39-.8,3.45-1.33,2.92-1.06,5.05.53,5.84,2.66M111.25,153.76l1.86-.53c1.86-.8,2.13-2.39,1.59-3.72-.53-1.33-1.86-2.39-3.72-1.59l-1.86.53,2.13,5.58h0v-.27Z"/>
  <path class="cls-10" d="M126.66,143.13c1.06,2.13,1.06,4.78-1.59,6.64-2.92,1.59-5.31,0-6.64-1.59-1.33-2.13-1.06-5.05,1.59-6.64s5.31,0,6.64,1.86M119.75,147.11c.8,1.33,2.39,2.39,4.25,1.06,1.86-1.06,1.86-2.92,1.06-4.25-.8-1.33-2.39-2.39-4.25-1.33s-1.86,3.19-1.06,4.52"/>
  <path class="cls-10" d="M135.96,137.55l-1.86,1.86,1.86,1.86-1.33,1.33-6.38-6.64c1.06-1.06,2.13-2.13,3.19-2.92,3.19-3.19,7.7,1.59,4.52,4.78M133.04,138.08l1.86-1.86c1.59-1.59-.53-3.98-2.13-2.39l-1.86,1.86,2.13,2.39Z"/>
  <path class="cls-10" d="M144.99,128.52l-2.92,3.98.8,1.59-1.06,1.59-4.78-8.77,1.06-1.59,9.83,2.13-1.06,1.59-1.86-.53ZM139.15,127.19l2.13,3.72,2.13-2.66-4.25-1.06Z"/>
  <path class="cls-10" d="M153.22,117.63l-1.06,1.86-3.98,1.06-.8,1.59,2.66,1.33-.8,1.59-8.24-4.25c.8-1.33,1.33-2.66,2.13-3.98,1.06-1.86,2.92-2.39,4.25-1.59,1.06.53,1.86,1.59,1.59,3.45l3.98-1.06h.27ZM143.4,120.02l2.66,1.33,1.33-2.39c.53-1.06,0-1.86-.53-2.13-.53,0-1.59,0-2.13.8l-1.33,2.39Z"/>
  <path class="cls-10" d="M154.55,108.33l-1.33,4.52,1.33,1.33-.53,1.86-7.44-6.64.53-1.86,10.09-1.33-.53,1.86h-2.13v.27ZM148.44,109.13l3.19,2.92,1.06-3.19-4.25.53h0v-.27Z"/>
  <polygon class="cls-10" points="149.24 96.38 149.51 94.78 158.54 95.84 158.27 96.91 158.54 96.91 151.63 100.89 157.74 101.69 157.48 103.55 148.44 102.22 148.71 100.89 154.82 97.17 149.24 96.38"/>
  <path class="cls-10" d="M146.58,86.28l1.86,1.33v1.33h0l-1.86-.8v-1.86h0ZM158.54,84.95v-1.86l-9.03,4.52v1.86l9.56,3.72v-1.86l-1.86-.8v-4.78l1.59-.8h-.27ZM155.35,90l-3.98-1.59,3.72-1.86v3.45h.27Z"/>
  <path class="cls-10" d="M66.62,33.68c0,.8-.8,1.33-1.59,1.59-1.86.8-3.19,0-3.72-1.33s0-2.92,1.59-3.72h2.13v.8h-1.86c-1.33.53-1.33,1.59-1.06,2.39,0,.8,1.06,1.59,2.39,1.06.53,0,.8-.53,1.06-1.06h1.06v.27Z"/>
  <path class="cls-10" d="M75.39,28.9c0,1.33,0,2.92-2.13,3.45-1.86.53-2.92-.53-3.45-2.13,0-1.33,0-2.92,2.13-3.45,1.86-.53,3.19.8,3.45,2.13M71.14,30.23c0,.8,1.06,1.59,2.13,1.33,1.33,0,1.59-1.33,1.33-2.13,0-.8-1.06-1.86-2.13-1.33-1.33,0-1.59,1.33-1.33,2.39"/>
  <polygon class="cls-10" points="80.97 25.45 81.5 29.7 84.16 29.43 84.42 30.49 80.44 30.76 79.91 25.45 80.97 25.45"/>
  <path class="cls-10" d="M92.66,30.23h-3.98v-5.58h3.98v1.06h-2.92v1.06h2.92v1.06h-2.92v1.06h2.92v1.06h0v.27ZM92.13,23.32h-1.06l-.53,1.06h.8l.8-1.06h0Z"/>
  <path class="cls-10" d="M101.95,27.31s-.8-.8-1.33-.8c-1.06,0-1.86.53-2.13,1.59,0,.8,0,1.86,1.59,2.13h1.33v-1.06h-1.33v-.8h2.39v2.39c-1.06.53-1.59.8-2.66.53-2.13,0-2.66-1.86-2.39-3.19,0-1.59,1.33-2.66,3.19-2.39.8,0,1.33.53,1.86,1.06l-.8.53h.27Z"/>
  <rect class="cls-10" x="105.06" y="29.64" width="5.31" height="1.06" transform="translate(50.19 126.11) rotate(-74.7)"/>
  <path class="cls-10" d="M117.89,33.68c-.53,1.33-1.86,2.13-3.72,1.59-1.86-.8-2.13-2.39-1.59-3.72.53-1.33,1.86-2.39,3.72-1.59,1.86.8,2.13,2.39,1.59,3.72M113.91,31.82c0,.8,0,1.86,1.06,2.39s1.86,0,2.39-1.06c0-.8,0-1.86-.8-2.39-1.06-.53-2.13,0-2.39,1.06"/>
  <path class="cls-9" d="M58.65,124.53c8.24,8.24,19.39,12.75,31.08,12.75s22.58-4.52,31.08-12.75c8.24-8.24,12.75-19.39,12.75-31.08v-47.55h-25.77l-3.72,6.38h22.85v40.91c0,10.09-3.98,19.39-10.89,26.3-6.91,6.91-16.47,10.89-26.3,10.89s-19.39-3.98-26.3-10.89c-.8-.8-1.86-1.86-2.66-2.92l-3.45,5.84c.53.53.8,1.06,1.33,1.33"/>
  <path class="cls-4" d="M58.39,114.17c-3.98-6.11-6.11-13.02-6.11-20.46v-40.91h47.55l3.72-6.38h-57.65v47.55c0,9.83,3.19,18.86,9.03,26.57l3.45-6.11h0v-.27Z"/>
  <path class="cls-2" d="M106.74,87.08c-.8-1.06-8.77-7.44-12.22-9.56h-2.39l-1.59-1.33.8,1.59h-.8v.53h0v.53h0v-.53h-.8l.8-1.59-1.59,1.59h-2.39c-3.45,2.13-11.42,8.77-12.22,9.83v.8c0,.27.8.53,1.59.53s2.66,0,3.45-1.06h.53c-1.33,1.59-2.66,3.19-3.19,4.25v1.33h.53c1.33,0,3.45-1.33,3.72-1.59l1.06-1.06c-1.06,2.13-1.59,3.72-1.59,4.52s0,1.06.8,1.33h.8c.53,0,1.33,0,1.86-.53s1.59-2.13,2.39-3.72c0,1.06,0,2.39-.53,3.45h0c0,.8.53,2.92,1.33,3.19h0s.8,0,1.06-.8c.53-.8.8-1.86,1.06-2.92v1.59c0,1.59.53,3.72,1.59,3.72s1.86-2.13,2.13-4.25c0,.8.53,1.33.8,1.86.53.8.8.8,1.06.8s0,0,0,0c1.06,0,1.59-2.39,1.33-3.19h0c0-1.33,0-2.66-.53-3.72.8,1.59,1.59,3.19,2.39,3.72.53.53,1.06.53,1.86.53h.8c.53,0,.8-.8.8-1.33,0-.8-.8-2.39-1.59-4.52.53.53.8,1.06,1.06,1.06.53,0,2.66,1.59,3.72,1.59s.53,0,.53,0v-1.33c-.53-1.06-1.59-2.66-3.19-4.25h.53c.8.53,2.39,1.06,3.45,1.06s1.33,0,1.59-.53v-.8"/>
  <path class="cls-5" d="M105.14,87.34h.53c-1.86-1.59-8.24-6.91-11.42-8.77h-.53l.8,1.33,1.06,2.13c.53.8,3.19,2.66,4.78,3.72,0,0,.8.53,1.06.8.8.53,2.66,1.06,3.72,1.06"/>
  <path class="cls-5" d="M103.81,91.86h0c-1.33-3.45-6.91-9.03-8.77-10.89l-1.59-1.06c0,.53.53,1.59,1.06,3.19.8,1.86,5.58,6.91,6.38,7.44.53,0,2.39,1.33,3.19,1.59"/>
  <path class="cls-5" d="M99.03,95.05h.8c0-1.06-1.86-5.84-4.78-10.09h0l-3.45-6.11h0v1.33c0,.8.53,1.86.8,2.66.53,1.59,1.33,4.25,1.86,5.84.8,2.13,2.66,5.84,3.45,6.38,0,0,.8.53,1.33.53"/>
  <path class="cls-5" d="M93.72,97.44h0c.53-.53.8-1.59.53-2.13h0c-.53-6.38-2.13-11.42-2.66-13.28l-1.33-1.59c0,2.13.53,6.11.53,7.44v1.59c0,1.86.8,5.58,2.13,7.7q0,.53.53.53"/>
  <path class="cls-3" d="M98.77,81.5c.8,1.06,0,2.66-1.33,1.86s.53.53.53.53c0,0,2.92-.8,1.06-2.13h0"/>
  <path class="cls-3" d="M101.95,83.89c.8,1.06,0,2.39-1.33,1.59-1.33-.8,0,.53,0,.53,0,0,3.72,0,1.59-1.59h-.53"/>
  <path class="cls-3" d="M96.91,83.09c0,.53,0,2.13-1.86,1.33-.53,0,0,0,0,0v.53c.53,0,2.66.8,2.39-1.33h0"/>
  <path class="cls-3" d="M99.56,86.02c0,.53,0,2.13-1.86,1.33-.8-.53-.8,0-.8,0l.53.53s2.66.53,2.13-1.59h0"/>
  <path class="cls-3" d="M93.19,85.22c0,.53,2.39,1.06,1.86-.53v1.33h-1.86"/>
  <path class="cls-3" d="M94.52,88.67c0,.53,3.19,1.33,2.66-.53.53.53.53,1.33,0,1.59-.8.53-2.13,0-2.66-.53v-.53"/>
  <path class="cls-3" d="M93.19,85.48c0,.53-.53,1.33-.8,1.33-.53,0-1.06,0-1.33-.8,0,1.06.53,1.33,1.33,1.06.8,0,1.06-1.06.8-1.86"/>
  <path class="cls-3" d="M93.98,89.73c0,.53,0,1.59-.8,1.59s-1.59-.53-1.59-1.06c0,1.06.8,1.59,1.86,1.59s1.06-1.06.8-1.86"/>
  <path class="cls-5" d="M74.33,87.34h-.53c1.86-1.59,8.24-6.91,11.42-8.77h.53l-.8,1.33-1.06,2.13c-.53.8-3.19,2.66-4.78,3.72,0,0-.8.53-1.06.8-.8.53-2.66,1.06-3.72,1.06"/>
  <path class="cls-5" d="M75.92,91.86h0c1.33-3.45,6.91-9.03,8.77-10.89l1.59-1.06c0,.53-.53,1.59-1.06,3.19-.8,1.86-5.58,6.91-6.38,7.44-.53,0-2.39,1.33-3.19,1.59"/>
  <path class="cls-5" d="M80.7,95.05h-.8c0-1.06,1.86-5.84,4.78-10.09h0l3.45-6.11h0v1.33c0,.8-.53,1.86-.8,2.66-.53,1.59-1.33,4.25-1.86,5.84-.8,2.13-2.66,5.84-3.45,6.38,0,0-.8.53-1.33.53"/>
  <path class="cls-5" d="M86.02,97.44h0c-.53-.53-.8-1.59-.53-2.13h0c.53-6.38,2.13-11.42,2.66-13.28l1.33-1.59c0,2.13-.53,6.11-.53,7.44v1.59c0,1.86-.8,5.58-2.13,7.7q0,.53-.53.53"/>
  <path class="cls-5" d="M89.73,98.77s-.53-.8-.8-2.66v-15.67l.53-.8h.53c0,1.59.8,11.42.8,14.08s-1.33,5.31-1.59,5.31"/>
  <path class="cls-3" d="M80.7,81.5c-.8,1.06,0,2.66,1.33,1.86,1.33-.8-.53.53-.53.53,0,0-2.92-.8-1.06-2.13h0"/>
  <path class="cls-3" d="M77.51,83.89c-.8,1.06,0,2.39,1.33,1.59s0,.53,0,.53c0,0-3.72,0-1.59-1.59h.53"/>
  <path class="cls-3" d="M82.56,83.09c0,.53,0,2.13,1.86,1.33.53,0,0,0,0,0v.53c-.53,0-2.66.8-2.39-1.33h0"/>
  <path class="cls-3" d="M79.91,86.02c0,.53,0,2.13,1.86,1.33.8-.53.8,0,.8,0l-.53.53s-2.66.53-2.13-1.59h0"/>
  <path class="cls-3" d="M86.28,85.22c0,.53-2.39,1.06-1.86-.53v1.33h1.86"/>
  <path class="cls-3" d="M85.22,88.67c0,.53-3.19,1.33-2.66-.53-.53.53-.53,1.33,0,1.59.8.53,2.13,0,2.66-.53v-.53"/>
  <path class="cls-3" d="M86.55,85.48c0,.53.53,1.33.8,1.33.53,0,1.06,0,1.33-.8,0,1.06-.53,1.33-1.33,1.06-.8,0-1.06-1.06-.8-1.86"/>
  <path class="cls-3" d="M85.75,89.73c0,.53,0,1.59.8,1.59s1.59-.53,1.59-1.06c0,1.06-.8,1.59-1.86,1.59s-1.06-1.06-.8-1.86"/>
  <path class="cls-3" d="M88.94,86.55c0,.8.8,1.06,1.06,1.06,0,0,.8,0,1.06-.8h0s-.53,1.06-1.06,1.06c-.8,0-1.06-.53-1.06-1.59"/>
  <path class="cls-3" d="M88.94,90.8c0,1.06,1.06,1.33,1.33,1.33s1.06,0,1.06-1.06v.53s-.53,1.06-1.33.8c-.53,0-1.33,0-1.33-1.86"/>
  <path class="cls-5" d="M92.13,79.91c-.8,1.06-1.33,1.59-1.33,1.59h0c.8,0,1.06-.53,1.06-.53v-1.06"/>
  <path class="cls-4" d="M160.66,41.39h0c0-.53-1.59-.8-1.59-.8-2.13-.53-10.36-1.33-11.95-1.33-3.19,0-6.38,0-9.56.53,0,0-7.44.53-9.03.8-1.59,0-3.19.53-5.05,1.06,0,0-9.56,2.39-13.81,4.25-1.33.53-2.39,1.06-3.19,1.86-1.33,1.33-3.72,5.05-3.72,5.05-.53.8-2.66,4.52-2.92,5.05-.53.53-2.92,1.06-3.19,1.06h-1.06s-.8.53-1.06,0c0,0-.8-.53-.8-.8s1.86-2.66,1.86-2.66c0,0-.8-.8,0-1.06h1.59v-2.66h-2.66c-.53,0,2.13-1.86,1.86-1.86s-1.86-1.86-2.13-2.13h0c-.53,0-1.86,2.13-1.86,2.13v-3.19h-3.98v2.66c0,.53-1.33-1.59-2.13-1.86l-2.13,2.39s1.06.53,1.59,1.59c0,.53-2.39,0-2.39,0,0,0-1.06,2.13,0,2.66h2.13s-.8.53-.8.8c0,.8,1.33,2.39,1.33,2.39,0,0-.53,1.33-.8,1.33-1.06,0-6.64-5.58-6.64-5.58-.53,0-.8-.8-.8-1.33,0,0-2.39-3.98-3.72-4.78-1.06-.8-3.98-1.86-3.98-1.86-4.25-1.59-13.55-3.98-13.55-3.98-1.59-.53-3.45-.53-5.84-.8h-5.31c-1.06,0-8.77-.53-11.69-.53h0c-2.66,0-5.58,0-7.97.8-1.33,0-2.66,0-3.72.8-.53,0-.8,0-1.06.53v.8c0,.53,1.33.8,1.86,1.06h.53v.53s0,.53.53,1.06h0v1.33c0,.53,1.33,1.06,2.92,1.06h.8l-.53.8c-.53.53,0,1.06,0,1.59,0,0,1.33,0,1.86.53h.53v.53c0,.53,0,.8.8,1.33s1.33.53,1.86.53h.53v.53c0,.53,0,.8,1.06,1.33h0v1.06c0,.53,1.86.8,2.39.8h.53v1.06s.53.53,1.06.53h.53c.53,0,0,0,0,0h0c.53,0,1.06,0,1.33.53,0,0,.8.53,1.33.53h.53v1.33s.53.53.8.8h.8s.53,0,.8.53h2.39v.53c0,.8,0,1.33.8,1.59,1.33.53,2.66.53,3.98.53h.53v.53c0,1.33,1.59,1.59,3.72,1.86h1.06l-.53.8c-.8,1.33,0,1.59,0,1.86h2.92v.53c0,1.06,1.59,1.33,2.13,1.33s0,0,0,0h.53v1.59s.8.53,1.33.53h.53v2.66h.8c.8,0,0,0,.53,0h.53v.53c0,.8,0,1.33.53,1.86h2.13c0,1.33.53,2.13,1.33,2.13h1.33c0,.8.53,1.06,1.06,1.06h2.13c0,1.06.53,1.06.8,1.06s1.06,0,1.59-.8h.53s0,.53.8.53h.53c.53,0,1.06-.53,1.59-1.06h.8c.53,0,.8,0,1.33-.53h0v.53h0c1.59-1.33,5.58-1.06,6.38-.8l.53-1.33s.8,1.33,1.33,1.06c0,0,5.84,2.66,5.84,2.39v-1.86h.8s0,.53.53.8h1.33v-.53l.53.53c.53.53.8,1.06,1.59,1.33h1.59c.8.53,1.33.8,1.86.8s0,0,0,0c0,0,.53,0,.53-.8v-.8h1.33c.27,0,0,0,0,0h1.86s.8,0,.8-1.33v-.8h.53s.8.8,1.06.8h.53s.53-.53,0-1.86v-.8h2.66c.53,0,.53-1.06,0-1.86v-.53h1.06c.53,0,1.06,0,1.33-.53v-2.66h1.06c.53,0,1.06,0,1.59-.53.53,0,0-.8,0-1.33h0l.53-.53.53-.53h0c0-.53.53-.53.8-.53h0s.8,0,.8-1.33v-.53h0c1.86,0,3.19-.53,3.45-1.86h.53c1.33,0,2.39,0,2.66-1.06,0-.53.8-.53,1.59-.53h.53s.53,0,.53-.8h0c.8,0,1.59,0,2.39-.53,0,0,.53-.53,0-1.59h0v-.53c1.06,0,1.33-.53,1.33-1.06v-.53h.53c.8,0,1.86,0,2.13-.8v-1.06h.53c1.33,0,2.66,0,3.45-.8,0,0,.53-.53.53-.8v-.8l-.53-.53h.8c.8,0,2.66-.8,2.92-1.33s-.53-1.06-.53-1.06h0c.53-.53.8-.8.8-1.06,0-.53.53-.53,1.06-.53h1.06c2.39-.8,1.86-2.39,1.86-2.39,1.06,0,1.86-.53,1.59-1.59,0,0,2.92,0,3.72-1.59.53-.8,0-1.33,0-1.33,0,0,2.39,0,2.39-1.59"/>
  <path class="cls-2" d="M94.25,73.26s1.33,0,.8-.8-1.06,0-1.59,0-1.59,0-1.59.8,1.59,0,2.39,0"/>
  <path class="cls-2" d="M86.55,74.06h1.33c.8,0,0-.8-.53-1.06h0s-.8-1.06-1.06-.53c0,0,0,1.06.53,1.06"/>
  <path class="cls-2" d="M91.33,76.98c.53,0,.53-1.06.53-1.33,0-.53-.8,0-.53,0v.8"/>
  <path class="cls-3" d="M97.44,53.07v-1.06s-.53-.53-.8-.53h-1.59l1.33-1.06v-.8s-.53-.8-.8-1.06c-.8-.8-1.33-1.06-1.59-1.33h-.8c-.53.53-.8,1.06-1.06,1.33h0v-2.39h-4.25s-.53,0-.53.53v1.86h0s-.53-.8-1.06-1.33h-.8s-.8.53-1.59,1.33-.53.8-.8,1.06v.53l1.33,1.06h-2.39v2.92h1.86-.8c0,.53.8,1.59,1.06,2.13h0c0,.8,0,1.59-2.39,0,0,1.06,1.33,1.86,2.92,2.13,0-.53,0-1.33.53-1.33h0c.53-.53.53,0,0-1.06,0,0,0-.53-.53-.8,0,0-.53-.8-.8-1.06l.53-.8v-.53h-2.39v-.8s0-.53.53,0h2.13v-.53q0-.53-.53-.8l-.8-.8v-.53h0c.53-.8.8-1.06,1.06-1.33h0s1.06,1.33,1.86,1.59h0v-2.92h2.66v3.45s.8,0,1.06-1.06c0,0,.53-.8.8-1.06h0s.8.53,1.06,1.06h0v.8l-.8,1.06s-.53.53-.53.8.8,0,1.06,0h1.86v.53h0s0,.53-.53,0h-1.59v.53l.53.8s-.53.8-.8,1.06c-.8.8-.8,1.59-.8,1.59l.53.53h0s.53.8.8,1.33c1.33-.53,2.66,0,2.92-1.33-2.39.8-2.92,0-2.92-.53s1.06-2.13,1.59-2.66h0l-.8-.53h1.86v-1.06"/>
  <path class="cls-3" d="M88.67,58.65c0-1.06,0-1.59,1.06-1.59s1.06,0,1.06,1.59c.53,0,1.06-.53,1.59-.8,0,.53-.53,1.06-1.06,1.33s-.8,1.06-1.33,2.13h0c0-1.33-.8-2.13-1.33-2.39-.53,0-.8-.8-1.06-1.33.53,0,1.06.53,1.59.8"/>
  <path class="cls-3" d="M88.14,56.53s-.53,0-1.59-1.06h0v.8h.53c0,.53.53,1.06,1.33,0v-.53"/>
  <path class="cls-3" d="M91.06,56.53s.53,0,1.59-1.06h0v.8h-.53c0,.53-.53,1.06-1.33,0v-.53"/>
  <path class="cls-2" d="M91.06,77.78c.53,0,.8-.53,0-1.06-.8-.8-.53-1.06-.53-1.33s0-.53,0,0v1.86l.53.8"/>
  <path class="cls-2" d="M87.34,78.58s0,.53-.53.8v.8c.53,0,1.06,0,1.06-.8s0-1.06.53-1.06c.8,0,.53-.53.53-1.06v-1.33c0-.8.53-1.33.53-1.59,0,0-.8,0-1.06.53,0,.53-.53.8-.53,1.33s0,.8-.53.8-.53,0-.8.8"/>
  <path class="cls-2" d="M161.19,41.39h0c0-.53-1.33-.8-1.86-1.06-2.39-.53-4.78-.8-7.17-1.06-5.05-.53-10.36,0-15.41,0-2.66,0-5.31,0-8.24.53-1.86,0-3.72.8-5.58,1.06-4.52,1.06-9.03,2.13-13.28,3.98-1.06.53-2.39,1.06-3.45,1.86-1.33,1.59-2.66,3.45-3.72,5.05-.53.8-1.06,1.86-1.59,2.66-.53.8-.8,1.59-1.33,2.39,0,.53-.8.53-1.59.8h-.8s-2.39,1.59-2.66-1.06c-.53,0,0,.8-.8,1.59-.53,0-1.06.53-.8,1.06,0,0,1.86,0,2.13.53v1.06c0,.8,1.59-.53,1.33-.8-.53-.8,1.59-1.06,2.13-1.33,1.06,0,1.59-.53,2.13-1.59,1.06-2.13,3.98-7.7,6.38-10.09,1.06-1.06,5.31-2.66,9.56-3.72,4.25-1.33,8.5-2.13,10.09-2.66,1.33,0,4.78-.53,9.3-.8h5.05s-.53,0-.8.53h-5.05c-1.33,0-2.39,0-3.45.53h0c0,.53-1.33.53-1.86.53h-2.66c.53,1.06-2.39,1.06-2.92,1.06h0c.53.8-1.86,1.06-2.13,1.06h-1.59c0,.8-1.59.8-2.39.8h-1.06c0,.53-1.86.8-2.13.8h0c.53,1.06-2.92,1.59-3.45,1.86h-.53c.8,0,0,.53-.53.8h-.53.53v.53s-.53,0-1.06.53h-.53v.53s-.53.53-.8.53h-.53c.53,0,0,.8,0,.8,0,0-.8,0-1.06.53h0s.53,0,.8.8c0,.8-1.59,1.06-1.86,1.33h0s.53,0,.8.8h0c0,.53-.8.53-1.06.53h-.8s-.53,0,0,0c0,0,.53,0,.53.53v.8h-1.59v1.06c0,.8-1.59,0-1.86,0h0s.53,1.59,0,1.06c0,0-.8-.53-1.06-.8h0c0,.53.53,1.06,0,.8h-1.06,1.86c0-.53,1.06,0,1.33.27h.8c.27,0,1.06,0,1.06.53s0,.8-.53.8h-1.59c-.53,0-1.06-.53-1.33-1.06h0s0,.53.53.53c0,0,.53,0,.8.53,0,.53.53,1.06.53,1.59s0,1.06-.53,1.33-1.06-1.59-1.06-1.86q0-.53,0,0v1.33c0,.53-.53.8-.8.53s-.53-1.06-.53-1.59h0v4.25c.53,1.06.53,2.39.8,3.45,0,.8.53,1.33.53,2.13s.53,1.59.53,2.39v.53h-.53c-.53,0-.8-.53-1.06-1.06,0-.53-.53-1.06-.53-1.86v-1.86c0-.8,0-1.86-.53-2.66v-3.98.53c0,.53-1.06,2.39-.53,3.45v6.11c0,.53,1.06,1.59,1.06,1.06v-.8h0s.53.53.8.8c.53.53,1.33.53,1.86,0,.53.8.8,1.33,1.59,1.59h1.59c.8.53,1.59,1.06,2.39.8.53,0,.8-.8.8-1.33h2.39c1.06,0,1.33-.8,1.33-1.59.53,0,1.33.8,2.13,0s.53-1.33.53-2.13c.8,0,1.59.53,2.39,0,.8,0,.53-1.59.53-2.13.8,0,1.86,0,2.13-.8v-2.13c.8,0,1.86,0,2.66-.53s.53-1.33,0-1.86c0,0,.53,0,.8-.53v-.53h.8c.8,0,1.06-1.06,1.06-1.86,1.59,0,3.45,0,3.72-2.13,1.33,0,2.66,0,3.19-1.33,0,0,1.86,0,2.13-.53.53,0,.8-.53.8-1.06.8,0,1.86,0,2.66-.53.8-.53.8-1.33.53-2.13.8,0,1.59-.53,1.59-1.33,1.06,0,3.19-.53,2.66-1.86,1.33,0,2.66,0,3.72-.8.8-.53,1.06-1.59,0-2.13,1.33,0,3.98-.8,2.92-2.39.53,0,.8-.53,1.06-1.06h2.13c1.06,0,2.39-1.33,2.13-2.39.8,0,1.59-.8,1.59-1.59,1.33,0,4.25-1.06,3.98-2.66,1.06,0,2.39-.53,2.39-1.86M141.54,40.06h13.02s.53,0,0,0h-12.75s-1.33,0-1.06-.53M120.82,45.11h2.39c.53,0,.8-.53,1.06-.8h2.13s.53-.53.8-.53h6.11s.8,0,.53,0c0,.8-.8,1.06-1.59,1.33-.53,0-1.59,0-2.13.53-.53.53-1.33,1.33-2.13,1.33h0c-1.86,0-3.45.53-5.31,0h-2.13s0-.53.53-.53M117.89,46.17h9.83v1.06s-.53.53-1.06.53h-7.7s-1.06,0-1.33-.53v-.53s-.53,0-.53-.53.53,0,.8,0M108.06,67.15h-2.13s-.53,0-.8-.53c0,0-.8,0-1.06-.53-.53,0,0-.8,0-1.06,0,0,.8-.53,1.06,0,0,0,.8.53,1.06.53.8,0,1.86.53,2.66.53s1.33,0,1.33.8-1.59,1.06-2.39.8M108.06,69.28s-.8,0-1.33-.53c-.53,0-.8-.53-.8-1.06v-.8h.53c.53,0,.8,0,1.33.53,0,0,.53.53.53,1.06v1.06M108.33,65.03h-1.59s-.8,0-1.06-.53c0,0-.8-.53-.53-1.06.53-.8,1.59-.53,2.39,0,1.06,0,2.13.53,3.45.8h2.13v.8h-4.25M112.58,63.43h-2.92c-.53,0-1.06,0-1.86-.53-.53,0-1.86-.53-1.06-1.06h1.33c.53,0,.8,0,1.33.53.8,0,1.86,0,2.66.53h1.86v.8c0,.53-1.06.53-1.33.53M113.11,61.84h-3.98c-.53,0-.8,0-.8-.8v-.8h6.38s1.06,0,.8,0c0,0,0,.53-.53.53s-1.33.53-1.86.53M114.17,59.98h-4.52v-1.33q0-.53.8-.53h6.11s.53.53.53,1.06-.53.53-1.06.8h-1.86M116.57,57.59h-4.52s-1.06,0-1.06-.53v-1.33s0-.53.53-.53h6.38v1.06c0,.53-1.06.8-1.59.8M117.36,54.67h-5.05v-1.33c0-.53.8-.53,1.33,0h8.77c.53,0,0,.53,0,.8-1.33,1.06-2.92,1.06-4.52,1.06M122.14,52.01c-.8,0-1.59.53-2.13.53h-5.58s-.8,0-.8-.53.8-.53.8-.53c0,0,.53,0,.53-.53h6.38s2.66-.53,2.39,0c0,0-.53.53-.8.8,0,0-.53,0-1.06.53M123.21,50.15h-7.44c-.53,0-.8,0-.53-.8,0,0,.8-.53,1.06-.8h3.45c1.06,0,2.39,0,3.45-.53h.8c.53,0,1.06,0,1.33.53,0,.8,0,1.33-.8,1.33h-1.59M114.44,47.5h0c.53,0,1.06-.53,1.59,0,0,0,1.06,0,.8.8h-2.92v-.53M110.72,49.36h0s.8-.53,1.33-.53h2.39s.8,0,.8.53-1.33.53-1.59.53h-2.66M109.39,51.22v-.8h3.45s1.33,0,1.33.53-.8.8-1.33,1.06h-3.72s-.8,0,0-.53M108.6,52.81v-.53h2.66v.53h-3.45v-.53M107,54.93s.53,0,.8-.53h0v-.53h3.19s.53.53,0,.8c0,.53-.8.53-1.33.53h-3.45v-.53M106.47,56.53v-.53h3.98v.8h-3.98M106.47,57.59h2.39c.53,0,.8.8.53,1.33h-1.59s-.53-.53-.8-.53c0,0-.53,0-.53-.53v-.53M104.61,59.18h1.59l.53.53c.53.8-.8.53-1.06.53h-.8c.53,0,.8.53,1.33.53s1.59,0,1.33.8c-.53.53-1.86,0-2.39,0h0s-.53,0,0-.53v-1.33M103.02,61.84v-.8h1.06s2.13.53,1.59,1.06c0,.53-1.33.53-1.86.53h-1.33M102.22,63.97h0c-.53,0-1.06,0-1.33-.53v-1.06h.8c.53,0,.8,0,1.33.53h1.06s.53,0,.53.53c0,1.06-2.13.53-2.39.53M102.22,65.83h1.59s.53,0,.8.53c0,0,.53.53.53,1.06s.8,1.59,0,1.33h0c-.53,0-1.06,0-1.59-.53-.53,0-1.06-.53-1.33-1.06v-.8M104.88,70.08h-1.06s-.53-.53-.8-.8c0,0-.53-.53-.8-1.06v-.53h0s.53,0,.8.53h1.59v1.33M101.16,69.01v-.53s0-.53.53-.53c0,0,.53.53.53.8,0,.53,0,.8.53,1.33,0,0,0,1.33-.53,1.06-.53,0-.8-.8-.8-1.06v-.8M101.16,70.61h0M97.97,71.14s-.53-.8,0-1.33v-.8c0-.53.53,0,.8,0h.53s.18.09.53.27h.8v1.33s0,.53-.53,0c-.53,0-.8-1.06-.8-1.86h0v1.33c0,.8-.53.53-.8,0M103.28,81.23s-.53.53-.8.53h0c-.53,0-.8-.53-1.06-.8,0,0,0-.53-.53-.8-.8-1.33-1.33-2.92-1.59-4.52,0-.53,0-1.06-.53-1.59v-1.33l.53-.53h.53v.8c0,.53,0,1.06.53,1.86.53,1.06.8,2.39,1.33,3.45,0,.53.53,1.06.8,1.59v1.59M105.94,82.3h-.8c-.53,0-.8-.53-.8-.8v-2.13c0-.53-.53-1.06-.8-1.59-.53-1.06-1.06-2.39-1.33-3.45v-1.59h1.06c.53,0,.53.8.8,1.06.53,1.06,1.06,2.13,1.59,3.45,0,.53.8,1.33,1.06,1.86,0,0,0,.53.53,1.06v.53s.53.8.53,1.33v1.33M107.8,80.97h-.8s-.53,0-.8-.53c0,0-.53-.53-.53-1.06s-.53-.8-.8-1.33c-.53-.8-1.06-1.86-1.33-2.66,0-.53-.53-1.06-.8-1.59,0-.53,0-.8-.53-1.33,0,0-.53-.53,0-.8h1.33v.8c0,.53.53,1.06.8,1.59.53,1.06,1.06,2.13,1.86,3.19,0,.53.8,1.06,1.06,1.59,0,0,0,.53.53.8v1.33M109.66,81.23h-1.06s-.53-.53-.8-.8c-.53-.8-1.06-1.33-1.33-2.13-.8-1.59-1.86-2.92-2.39-4.52,0-.53-.53-1.06-.8-1.33,0,0-.8-1.06-.53-1.33h1.06c.27,0,.53.8.8,1.33,0,.53.53,1.06.8,1.59v.53c.53.53.8,1.33,1.33,1.86s.8,1.33,1.33,1.86c0,0,.53.53.8,1.06,0,.53.53,1.06.53,1.59v.8M112.31,80.17h0c-.53,0-1.06,0-1.33-.53-1.06-.53-1.86-1.86-2.39-2.66-.8-1.33-1.59-2.66-2.39-3.98,0,0,0-.53-.53-1.06,0-.53-.53-1.06,0-1.33v-.53s0-.53.53,0c0,0,.53.8.53,1.06.53.53.8,1.33,1.33,1.86.8.8,1.33,1.86,2.13,2.66.53.8,1.33,1.33,1.86,1.86s.53,1.06.53,1.86v1.06M115.24,78.05h-.53c-.53,0-1.06,0-1.59-.53-.53,0-.8-.53-1.06-.8l-.53-.53-1.06-1.06c-.8-.8-1.33-1.59-2.13-2.39,0-.53-.8-1.06-1.06-1.59,0-.53-.53-.8-.8-1.33,0,0-.53-.8,0-.8h.53c.53,0,.8,0,1.33.53,0,0,.53.53.8.8,0,0,.53.53.8.8.53.53,1.06.8,1.33,1.06,0,0,.8.53,1.06.8.53.53,1.06.8,1.59,1.33,0,0,.53.53.8.8s.53.8.53,1.33v1.33M117.36,75.65h-1.59c-.53,0-1.06-.8-1.59-1.06-.53-.53-1.06-.8-1.59-1.33h0c-1.06-.8-1.86-1.59-2.92-2.39-.53,0-.8-.8-1.06-1.59v-1.33h.53s.53,0,.8.53c.53.53,1.33.8,1.86,1.33,1.33.8,2.39,1.33,3.72,2.13.53,0,1.06.53,1.59.8.53.53.8,1.06.8,1.86s0,1.06-.53,1.33M120.55,72.47h-1.86c-1.33,0-2.39-1.06-3.72-1.59,0,0-.53,0-1.06-.53-1.33-.8-2.39-1.33-3.45-2.13,0,0-.8-.53-.8-.8h1.33c.53,0,.8.53,1.06.53.8,0,1.59.8,2.39,1.06,1.59.8,3.19,1.59,5.05,1.86h0s.53,0,.8.53v.8h0M121.08,70.08h-2.13c-.8,0-1.59-.53-2.39-1.06-.53,0-.8,0-1.33-.53-.53,0-1.33-.53-1.86-.8-.53,0-1.59-.53-1.86-1.06v-1.06h.8c.53,0,1.06,0,1.59.53,1.06,0,1.86.8,2.92,1.06.8,0,1.59.8,2.39,1.06.53,0,.8,0,1.33.53h1.06v.53M122.94,68.75c-.53.8-1.86,0-2.66,0s-1.59-.53-2.39-.8c-.53,0-.8,0-1.33-.53-1.33-.53-2.39-1.06-3.72-1.59,0,0-.53,0-.53-.53s.53-.53.8-.8c.53-.53,1.06,0,1.59,0,1.06.53,2.39.8,3.45,1.33.8,0,1.59.53,2.66.8.8,0,2.13.53,2.13,1.59h0M126.39,66.62h0c-.53.53-1.33.53-1.86.53h-2.13c-.8,0-1.59-.53-2.13-.8-1.33-.53-2.92-1.06-4.25-1.59-.53,0-1.06-.53-1.59-.53h-.53v-.53s0-.53.53-.53c.53-.53,1.06,0,1.59,0s1.06.53,1.86.53c1.33,0,2.39.8,3.72,1.06,1.06,0,1.86.53,2.92.53h2.13v1.06M129.85,64.76h-5.84c-1.06,0-2.13-.53-3.19-.8-1.33,0-2.39-.8-3.72-1.06h-1.59s0-.8.53-.8h.8c.53,0,1.33,0,1.86.53,1.33,0,2.66.53,3.72.8,1.59,0,2.92.53,4.52.8h3.19v.53M132.5,63.17h-6.38c-2.13,0-3.98-.8-6.11-1.33-.8,0-1.59,0-2.66-.53h-.8s0-.8.53-.8h1.86c1.33,0,2.66.53,3.72.8,1.33,0,2.66.53,3.72.8,1.33,0,2.66,0,3.72.53h2.13v.53M135.96,61.31c0,.53-1.33.53-1.86.53h-4.78c-1.59,0-3.19-.53-4.52-.8-1.33,0-2.66-.53-3.72-.8h-3.72v-.53h3.98c1.33,0,2.66.53,3.98.53,2.13,0,4.25.53,6.11.8,1.33,0,2.39.53,3.72,0h-3.72c-2.13,0-4.25-.53-6.38-.8h-2.13c-1.06,0-2.39-.53-3.45-.53h-1.59s-.8,0-.53,0h1.06c1.06,0,2.39,0,3.45.53,1.06,0,2.39.53,3.45.53h1.86c1.33,0,2.66.53,3.72.53h4.25v1.06c0,.53,0,0,0,0M137.55,59.18s-.53,0-.8.53h-3.45c-1.33,0-2.39,0-3.72-.53h-2.13c-.8,0-1.86,0-2.66-.53-1.33,0-2.66-.53-3.98-.53h-1.86,13.28c1.33,0,2.66,0,3.72.53h1.06s.53,0,.53.53v.53M140.21,57.59h-11.16c-2.13,0-3.98,0-6.11-.53h-3.72v-.53c.53,0,1.06,0,1.33-.53h8.5c1.86,0,3.72.53,5.84.53s2.92,0,4.25.53h.8s.53,0,.53.53h0M144.72,55.47s-.53.53-1.06.53h-2.92c-1.59,0-2.92,0-4.52-.53-1.59,0-2.92,0-4.52-.53h-9.56v-.53s0-.53.53-.53c0-.53,1.06,0,1.59,0h18.6s1.59.53,1.59,1.06h0M147.65,52.54s-.53.53-.8.53c-.8,0-1.59,0-2.39.53h-3.45c-2.66,0-5.31,0-7.97-.53h-9.3s0-.53.53-.53c.53-.53,1.33-.8,2.13-.8h20.46s.8,0,1.06.53h0M148.18,50.68s-.53,0-.8.53h0c-3.19-.53-6.38-.53-9.56-.53h-12.49c0-.8.8-.8,1.33-.8h13.28c2.66,0,5.31,0,7.97.8h0v.53M151.63,49.09c-.8.53-1.59.53-2.39.53h-.8c-2.39-.53-5.05-.8-7.7-.8h-14.61s0-.53.53-.53c1.33-.8,2.92-.53,4.52-.53h21.52c0,.53-.8.8-1.06,1.06M154.02,46.43s-.8.53-1.06.53h-24.97v-.53s1.06-.53,1.59-.53h23.64s.8,0,.53.53M157.21,44.57s-.8,0-1.06.53h-25.77c-.53,0,.53-.8.53-.8h1.06c.53,0,1.06,0,1.59-.53h24.17c0,.53,0,.8-.53.8M159.87,42.18h-24.44c-.53,0-.8,0,0-.8,0,0,.53,0,.8-.53h23.91s.53,0,.53.53v.53"/>
  <path class="cls-2" d="M77.78,82.3c.53,0,1.06-.8,1.59-1.33.53-.53.8,0,1.33,0s1.06,0,1.59-.8h0s.8-.8.8-1.06v-4.25c0-1.33,1.33-.53,1.33-1.06s-.53-.53-.8-1.06c0-.8.8,0,.53-1.06,0-.8-1.06-1.86-1.33-3.45,0-1.06-.53-1.33-.8-1.86-.53-.53-.8,0-1.33,0s-1.06-.53-.8-1.06v-.53q0-.35,0,0c0,1.06-1.59,1.59-2.39,1.33h-.8c-.27,0,0-.53.53-.8,0,0,.53,0,.8-.53h1.06s.8,0,1.06-.53h.53s.53,0,0,0h0c-.53,0-.53.53-1.06.53,0,0-.53,0-.53-.53v-.8h-1.59c-1.06,0-.53-.8,0-1.06h-1.59q-.53,0-.53-.53h.53-1.59q-.53,0,0-.53h1.06s-.8,0-1.06-.53c0,0-.53,0-.8-.53v-.53s1.06,0,.53-.53c-.53,0-1.33-.53-1.59-.8,0-.53,1.06-.53.53-.8h-.53s-1.06,0-.8-.8h.53-.53s-.53,0-.8-.53c0,0-.8-.53,0-.8h0s-.8,0-1.06-.8c0,0-.8-.53,0-.53h-3.72v-.53h-2.39s.53,0,0,0h-2.13c-.53,0-1.06,0-1.06-.8h-1.86s-2.66-.53-2.13-.8h0c-.53,0-3.45,0-2.92-1.06h-1.86c-.8,0-2.39,0-2.92-.53h-2.66v-.53h7.7c1.59,0,5.84,1.33,9.83,2.66,4.25,1.33,8.5,2.66,9.56,3.72,1.06,1.06,2.39,2.66,3.19,4.78,0,.8,1.06,1.06,1.59,1.33.53.53,1.06.8,1.33,1.33s0,.8.8,1.33.53,1.06,1.06,1.33c0,.53.8.8,1.33,1.06,0,0,1.33.53,1.33.8s-.53.53-.53.8.53,0,.53.53-.8.8-.53,1.06v.8s-.53.53,0,1.06c0,.53,1.06.53,1.06,0v-1.59c0-.53.53-.53,1.59-1.06.8-.53,1.59,0,2.39-.53.8,0-1.06-.53-1.33-.8h0v-.53c-1.59,0-2.13-1.33-2.13-1.33h-1.06c-1.33-.53-2.39-2.13-2.66-2.66-.53-.8-1.06-1.33-1.59-1.86,0,0-.53,0-.8-.53-.53-.53-.8-1.33-1.06-1.86-.8-1.59-2.13-3.45-3.45-4.52-1.33-.8-2.92-1.59-4.25-1.86-4.52-1.59-9.03-2.66-13.55-3.98-1.86-.53-3.98-.8-5.84-.8-2.66,0-5.58-.53-8.24-.53s-5.84,0-8.77-.53c-2.66,0-5.31,0-8.24.8-1.33,0-2.66.53-3.72.8-.53,0-1.06,0-1.33.53v1.06c0,.8,1.33,1.06,2.13,1.33,0,.53,0,1.06.8,1.33-.53,1.86,1.86,2.39,3.45,2.66-.53.53-.53,1.59,0,2.13s1.59.53,2.39.53c0,.53,0,1.06.8,1.59.53.53,1.33.8,2.13.8,0,1.06.53,1.33,1.59,1.59,0,1.33,1.86,1.59,2.92,1.86,0,1.06.53,1.33,1.59,1.59h2.13c.53,0,.8.53,1.33.8-.53.8,0,1.59,1.06,2.13h1.06s.53,0,1.06.53c.53,0,1.33.53,1.86.53,0,1.06,0,1.86,1.06,2.13,1.33.53,2.92.53,4.25.53,0,2.13,2.66,2.13,4.25,2.39-.53.8-1.06,1.59,0,2.39.8.53,1.86.27,2.66.27,0,1.33,1.59,1.86,2.92,1.59,0,1.33.53,1.86,1.86,2.13v2.39c0,.53,1.06.53,1.86.53,0,.8,0,1.59.8,2.13.53.53,1.33.53,2.13,0,0,1.59,1.06,2.66,2.66,1.86,0,1.59,1.86,1.33,3.19.8.53,1.86,2.13,1.33,3.19.53,0,.8,1.06,1.06,1.86.53M82.56,69.28h0v3.98c0,.53-.53,3.45-.53,3.72,0,.53,0,1.86-.8,2.39h-.53s-1.06.8-1.06.53v-.8c0-.53,0-1.06.53-1.59v-5.84c0-.53,0-.8.53-1.06v-1.86M80.97,67.95c0-.53,0-1.59.8-1.86h0v.53h0v.8s0,.8-.8.8h-.53v-.8M81.23,69.54h.8v1.59s-.53.8-.53,0v-1.33h0v1.06s-.8,1.06-1.06.53v-1.86s0-.8,0,0c0,0-.53.8-.8,1.06,0,0-.8.53-1.06.53-.53,0,0-.53,0-.8,0,0,.53-.53.8-.8l.8-.8h0s.53.53.8.53.8-.53,1.06,0c0,0,0,.8.53.8M79.11,66.62c0-.53,0-1.06.8-1.33h0s0,.53.53.53v1.33s-.53.8-1.06.53c-.8,0-.53-1.06-.53-1.59M78.05,66.36s0-.53.53-.53,0,0,0,.53v1.59c0,.53-.53.8-.8,1.06-.53,0-.8.53-1.33.8,0,0-.8,0-1.33.53q-.53,0-.53-.53t.8-.8h.53c.53,0,.8-.53,1.06-.8,0,0,.8-.53,1.06-1.06M77.51,65.56c.53,0,0,.8,0,1.06,0,.53-.8.8-1.33,1.33-.53,0-1.06.53-1.86.8h-1.33s-.53-.53,0-.8h1.33c.53,0,1.06-.53,1.59-1.06,0,0,.53,0,.8-.53h1.06M69.01,65.83h-1.33s-.53-.8,0-1.06h2.39c1.06,0,2.39-.53,3.45-1.06h2.13v1.06s-.8.8-1.33,1.06c-1.06.53-1.86.8-2.92.8h-1.86M70.08,66.62h0c0,.8-1.33.8-1.86,0v-.53h1.59M57.59,52.81h7.44c.53,0,1.33,0,1.59.8v.53s-.53.53-.8.53h-3.98c-1.33,0-2.92,0-3.98-1.06,0,0-1.06-.8-.53-.8M57.33,52.01s-2.13-.8-1.33-1.33h8.77s0,.53.53.53.53.53,0,.8h-8.5M61.31,55.2h5.84s.53.53.53.8v.53h0v1.06h-6.11c-.8,0-1.59-1.33-.53-1.86M62.9,58.65s0-.53.53-.53h5.58v1.86h-5.31v-.8M63.97,60.51h1.06c1.06,0,2.39,0,3.45-.53h2.39s0,.53.53.8c0,0,.53,0,.53.53s-.8.53-1.06.53h-2.66c-1.06,0-2.13.53-2.92,0-.53,0-.8,0-1.33-.53,0,0-.53-.53-.53-.8M65.83,63.17c0-.53.8-.8,1.06-.8h5.05c.53,0,.8,0,1.06.53,0,.53,0,.8-.53,1.06-.53,0-1.33.53-1.86.53h-4.52s-.53,0-.53-.53M70.61,66.36h1.33c.53,0,1.06,0,1.59-.53.53,0,1.06-.53,1.33-.8,0,0,.53,0,.53-.53l.53-.53h.53c.53,0,0,.53,0,1.06s-.53.53-.8.8-.8.53-1.06.8c-.8.53-1.59.8-2.66.8h-1.33s-.53-.8,0-1.06M78.05,62.37h1.06s-.53.8-.53,1.06c0,0-.8.53-1.33.53h-.8s-.53,0-.53-.53h0s0-.53.53-.8h1.33M75.39,60.51h1.33v.8h0c-.53,0-1.06.53-1.59.53s-1.06,0-1.59-.53c0-.53.53-.8.8-.8h1.33M74.59,58.92h.53v.8h0s-.53,0-.8.53h-1.33s-.8,0-.8-.53,0-.53.53-.8h2.13M73.8,58.12q0,.53-.8.53h-3.72v-1.06c0-.53,1.33,0,1.86,0h2.13v.53M73.53,56.53c.53,0,0,.53-.53.53h-2.92c-.53,0-1.06,0-1.33-.8v-.53h4.25v.53h.53M72.47,54.67v.53h-2.66c-1.06,0-1.86,0-2.66-.8s.53-.8,1.06-.8h3.45l.53.53M70.61,52.28h0s.53,0,.53.8-.53.53-.8.53h-1.59c-.8,0-1.86,0-2.66-.53l-.53-.53v-.53h4.52M69.81,50.15v1.06h-1.06c-1.06,0-2.39,0-3.45-.8,0,0-.8-.8,0-1.06h4.52M65.29,48.29h3.72-3.72s0-.53-.53-.8h.53M64.23,49.09h0s.53,0,0,.53c0,.53-1.33.53-1.86.53h-6.91c-.53,0-2.13,0-2.13-1.06s.53-1.06,1.06-1.06h9.03v.8M61.58,46.17h.8s.53.53.8.8c0,0,1.06,0,.8.8h-9.03c-.8,0-2.13,0-2.39-.8v-.8h9.83M46.96,41.92h5.05c.53,0,.8,0,1.06.53l.8.53h5.58-7.7c-1.06,0-1.86-.53-2.39-1.33-.53-.53-1.33-.53-1.86-1.06,0,0-.53-.53-.53-.8M39.79,40.06h5.58-4.25s-1.33,0-1.33-.53.53,0,.8,0M24.65,40.32h13.55c0,.53,0,0-.53,0h-12.75M20.13,42.45c-.53,0-.8-.53-.8-.8h0s.53,0,1.06-.53h24.44s.53,0,0,.53h-10.09c-3.72,0-7.7,0-11.42.53h-3.72M21.73,43.51h2.66c3.19,0,6.64-.53,9.83-.53h12.49l.53.53c0,.53,0,0-.53,0h-16.74c-1.59,0-3.19,0-5.05.53h-2.92s-.53,0-.53-.53M22.52,45.37h0c0-.53.8-.53,1.06-.8h25.77s1.33,1.06.53,1.06h-27.1M24.38,46.43h-1.33,28.16s.53.53,0,.8h-26.57M27.31,49.36h-1.06s-.8-.53-.8-.8,0-.53.8-.8h25.77v.53h-24.17,26.03v1.06h-25.77M30.23,51.48h-1.33l-.53-.53v-.53h0c0-.53.8-.53,1.06-.53h24.97s.53,0,.53.53,0,.53-.53.53h-24.44M31.82,53.07h0c0-.53.53-.8.8-.8h23.38s.8.53,1.06.8h-25.24M34.74,54.93c-.53,0-1.06,0-1.59-.53h0s.53-.53.8-.53h23.38s0,.53.53.53v.53h-23.38M37.93,56.79h-2.13v-.8h0c3.45,0,6.64-.8,10.09-.53h13.02s1.33,0,1.06.8h-10.36c-3.98,0-7.97,0-11.95.8M39.26,57.33h0c-.53-.53.53-.53.8-.53h20.19s.53.53.53.8,0,0-.53,0h-19.13c-.53,0-1.33,0-1.59-.53M43.25,60.51s-.53-.53-.8-.53h-1.59v-.53s.53-.8,1.06-.8h0c2.66-.53,5.31,0,7.7,0h11.42s.53,0,.8.53h.53-3.19c-1.59,0-3.45,0-5.05.53-3.72,0-7.17,0-10.89.53h10.63c1.59,0,2.92,0,4.52-.53h3.98v1.33h-17.27c-.8,0-1.59,0-2.13-.53M50.42,63.7h-1.86c-.8,0-1.86,0-2.66-.8h0v-1.06c0-.53,1.33-.53,1.86-.53h14.08c.53,0,1.59-.53,2.13,0v.53h0c.8,1.06-.8,1.06-1.33,1.06-1.06,0-1.86,0-2.92.53-1.86,0-3.72.53-5.58.8-1.33,0-2.66.53-3.98,0M53.07,66.09c-1.06,0-1.59-.53-1.59-.8h0v-.8h3.45c1.33,0,2.66,0,3.98-.53,1.06,0,2.39,0,3.45-.53h2.92v.53c0,.53,0,1.06-.53,1.33-.53,0-1.06,0-1.59.53-1.33,0-2.39.53-3.72.8-.8,0-1.86,0-2.66.53h-3.72M56.79,68.75h-1.59v-1.06l.53-.53c.53-.53,1.33-.53,1.86-.8.8,0,1.59,0,2.39-.53,1.06,0,2.13-.53,3.19-.8h3.19s.8.53,0,.8c0,0-.8,0-1.33.53-.8,0-1.59.53-2.39.8-1.06,0-2.13.8-3.19,1.33-.53,0-1.06.53-1.59.8h-1.59M59.72,70.61h-.53c-.8,0-1.06-.53-1.06-.8v-.53h0c1.59-.8,3.19-1.59,4.78-2.13.8,0,1.59-.53,2.39-.8h1.06c.27,0,.53,0,.8.53,0,.53,0,1.06-.8,1.33,0,0-.8.53-1.06.53-1.59.8-2.92,1.59-4.52,2.13h-1.59M61.84,72.47s-.8,0-.8-.8h0v-1.06s.53,0,.53-.53c0,0,.53,0,.8-.53.53,0,1.33-.53,1.86-.8s1.06-.53,1.59-.8c0,0,.53,0,.8-.53h3.19s0,.53-.53.8c-.8.53-1.59,1.06-2.13,1.33-.8.53-1.86,1.06-2.66,1.59-.53,0-.8.53-1.33.8s-1.33.53-1.86,0M64.76,75.12h-1.59v-1.86s.53-.53.8-.53c.53,0,.8-.53,1.33-.53.8-.53,1.59-.8,2.39-1.33.8-.53,1.59-.8,2.13-1.33s1.33-1.06,2.13-1.06.53,0,.53.53.53.53,0,.8l-1.06,1.06c-.8.8-1.59,1.33-2.39,2.13-1.33,1.06-2.66,1.86-4.25,2.66M66.09,77.78h-.53v-2.13l.53-.53s.8-.53,1.06-.8c.8-.53,1.59-.8,2.13-1.33,1.06-.8,2.13-1.59,3.19-2.66,1.06-1.06.53-.8,1.06-1.06h1.06v1.33c0,.53-.8,1.06-1.06,1.33l-1.86,1.86c-.8.8-1.33,1.33-2.13,2.13,0,0-.8.53-1.06,1.06-.53.53-1.33,1.06-2.13,1.06M68.75,79.91h0s-.53-.53-.53-.8v-.53c0-.8,1.59-2.13,2.39-2.92.8-.8,1.33-1.59,2.13-2.39l1.86-1.86.8-.8h1.59s-.53.8-.53,1.06c-.53.8-1.06,1.59-1.33,2.13-1.06,1.59-2.13,2.92-3.19,4.25,0,0-.53.53-.8,1.06-.53.53-1.06,1.06-1.86,1.06M72.47,80.44c-.53,0-1.06.53-1.59.53h-.53v-.53c0-.53,0-.8.53-1.33,0-.53.8-1.06,1.06-1.33.8-1.06,1.33-1.86,2.13-2.92,0-.53.8-1.06,1.06-1.59,0,0,.53-.8.53-1.06,0-.53,0-1.06,1.06-.53h.53s.53,0,0,.53c0,.53-.53.8-.53,1.33-.53.8-.8,1.59-1.33,2.39-.8,1.33-1.59,2.66-2.39,3.98,0,0-.53.8-1.06,1.06M75.65,80.7c-.53.53-1.33.8-1.59.8h0v-1.06c0-.27,0-.8.53-1.06,0,0,.53-.8.8-1.06.53-.8.8-1.59,1.33-2.39.53-.8.8-1.59,1.33-2.39,0,0,0-.8.53-1.06,0,0,0-.8.53-1.06h.53s.53,0,0,.8v1.33c0,.8-.53,1.86-.8,2.66,0,.53-.53,1.33-.8,1.86,0,0,0,.53-.53.8,0,0,0,.53-.53.8,0,.53-.53.53-.8.8M76.72,81.23v-1.59c0-.53.53-1.33,1.06-2.13,0,0,0-.8.53-1.06,0-.8.53-1.86.8-2.66v-2.13s.53-.53.8,0v3.19c0,1.06-.8,3.72-.8,4.25s-.53,1.33-.8,1.59-2.13,2.13-2.39,1.06"/>
  <path class="cls-3" d="M85.75,82.83c-1.06,0-1.59,0-1.86-1.06h0s-.53-.8-.53-1.06v-.53s-.8-.53-.8-1.06-1.06-1.06-.8-2.13c0-.53,0-1.06,1.06-1.59,0,0,1.06-.53,1.59-.53s2.39,0,3.45,2.39c.8,1.86.53,3.72,0,4.52,0,.53-.8.8-1.33,1.06h-.8M85.48,79.11h.53c0-.53,0-.8-.53-1.06l-.53-.53v1.06h.53"/>
  <path class="cls-3" d="M83.09,80.97h0c-1.06,0-1.59-.8-1.59-1.33s-.8-1.33-.8-2.13.53-1.59,1.86-2.13c0,0,.53,0,.8.53v2.66h0v2.13s-.53.53-.8.53h0l.53-.27Z"/>
  <path class="cls-3" d="M82.03,80.97h0c-.8,0-1.33-.53-1.59-1.06,0,0-.53-.8-.8-1.33,0-.53,0-1.33.8-1.86h1.06v.8h0c0,.53,0,.8.53,1.33h0v1.86s-.53.53-.8.53h.8v-.27Z"/>
  <path class="cls-5" d="M83.09,75.65c.53,0,2.66-.8,3.72,1.86,1.06,2.39,0,4.25-.53,4.52-1.33,0-1.86,0-1.86-.53h0c.8,0,.8-.53.8-.8-.8.53-1.33,0-1.33,0v-1.06h0c0,.53.53.53.53.53.53,0,1.86,0,1.59,1.06.8-1.86,0-4.78-2.66-4.52h0c.53.8,0,1.33,0,1.59v.8h0c-.53,0-.53-.53-.53-.8,0,0-1.59-1.59,0-2.66"/>
  <path class="cls-5" d="M82.56,75.92s-.8,1.33,0,2.66v1.33h0c-.8,0-1.06-.53-1.06-1.06,0,0-1.59-2.13.53-3.19h0"/>
  <path class="cls-5" d="M80.97,77.25c0,.8,0,1.33.8,1.86v1.06h0c-.8,0-.8-.53-.8-.53,0,0-1.06-1.06,0-2.39h0"/>
  <path class="cls-3" d="M92.39,82.83c-.53,0-1.06-.53-1.33-1.06-.53-.8-.8-2.66,0-4.52,1.06-2.13,2.66-2.39,3.45-2.39s1.33,0,1.59.53c.53.53,1.06,1.06,1.06,1.59,0,.8-.53,1.59-.8,2.13,0,.53,0,.8-.8,1.06v.53s0,.8-.53.8h0c0,1.06-1.06,1.33-1.86,1.33h-.8M93.72,79.11h0v-1.06l-.53.53s0,.8-.53,1.06h.53c.27,0,0,0,0,0"/>
  <path class="cls-3" d="M95.84,80.97h0c1.06,0,1.59-.8,1.59-1.33s.8-1.33.8-2.13-.53-1.59-1.86-2.13c0,0-.53,0-.8.53v2.66h0v2.13s.53.53.8.53h0l-.53-.27Z"/>
  <path class="cls-3" d="M96.91,80.97h0c.8,0,1.33-.53,1.59-1.06,0,0,.53-.8.8-1.33,0-.53,0-1.33-.8-1.86h-1.06v.8h0c0,.53,0,.8-.53,1.33h0v1.86s.53.53.8.53h-.8v-.27Z"/>
  <path class="cls-5" d="M95.84,75.65c-.53,0-2.66-.8-3.72,1.86-1.06,2.39,0,4.25.53,4.52,1.33,0,1.86,0,1.86-.53h0c-.8,0-.8-.53-.8-.8.8.53,1.33,0,1.33,0v-1.06h0c0,.53-.53.53-.53.53-.53,0-1.86,0-1.59,1.06-.8-1.86,0-4.78,2.66-4.52h0c-.53.8,0,1.33,0,1.59v.8h0c.53,0,.53-.53.53-.8,0,0,1.59-1.59,0-2.66"/>
  <path class="cls-5" d="M96.64,75.92s.8,1.33,0,2.66v1.33h0c.8,0,1.06-.53,1.06-1.06,0,0,1.59-2.13-.53-3.19h0"/>
  <path class="cls-5" d="M97.97,77.25c0,.8,0,1.33-.8,1.86v1.06h0c.8,0,.8-.53.8-.53,0,0,1.06-1.06,0-2.39h0"/>
  <polygon class="cls-5" points="114.97 105.14 94.78 111.52 90.27 113.91 85.48 109.92 65.29 105.14 58.39 78.58 85.48 80.7 90 83.89 94.25 80.7 121.08 78.58 114.97 105.14"/>
  <path class="cls-1" d="M90,115.5l-5.05-4.52-20.72-4.78-7.44-28.69,28.96,2.39,4.25,2.92,3.72-2.92,28.69-2.39-6.64,28.69-20.46,6.64-5.31,2.66ZM66.09,104.08l19.92,4.78,4.25,3.72,4.25-2.13,19.39-6.38,5.58-24.44-24.97,2.13-4.52,3.45-5.05-3.45-24.97-2.13,6.11,24.17h0v.27Z"/>
  <polygon class="cls-5" points="116.03 116.57 95.05 121.61 90.27 123.74 85.48 121.61 63.97 116.57 56.53 84.16 84.16 82.3 90 85.75 95.31 82.3 122.94 84.16 116.03 116.57"/>
  <path class="cls-9" d="M95.05,80.97l-5.05,3.19-5.58-3.19-29.49,2.13,7.97,34.53,22.05,5.05,5.31,2.39,5.31-2.39,21.52-5.05,7.17-34.53-29.22-2.13ZM114.97,115.5l-20.19,4.78-4.52,2.13-4.25-2.13-20.99-4.78-6.91-30.28,25.77-1.86,6.11,3.72,5.58-3.72,25.5,1.86-6.38,30.28h.27Z"/>
  <path class="cls-7" d="M64.5,100.89h0c0-2.92,2.13-5.05,5.05-5.05s3.45,1.06,4.25,2.39l-2.66,1.59c0-.8-.8-1.06-1.59-1.06s-1.86,1.06-1.86,2.13h0c0,1.33.8,2.13,1.86,2.13s1.33-.53,1.86-1.06l2.66,1.59c-.8,1.33-2.13,2.66-4.52,2.66s-5.05-1.86-5.05-5.05"/>
  <path class="cls-7" d="M74.06,100.89h0c0-2.92,2.13-5.05,5.05-5.05s3.45,1.06,4.25,2.39l-2.66,1.59c0-.8-.8-1.06-1.59-1.06s-1.86,1.06-1.86,2.13h0c0,1.33.8,2.13,1.86,2.13s1.33-.53,1.86-1.06l2.66,1.59c-.8,1.33-2.13,2.66-4.52,2.66s-5.05-1.86-5.05-5.05"/>
  <polygon class="cls-7" points="84.16 96.11 87.34 96.11 89.47 99.56 91.59 96.11 94.78 96.11 94.78 105.67 91.59 105.67 91.59 100.89 89.47 104.35 89.47 104.35 87.08 100.89 87.08 105.67 84.16 105.67 84.16 96.11"/>
  <path class="cls-9" d="M95.84,96.11h4.25c2.39,0,4.25,1.06,4.25,3.45h0c0,2.39-1.86,3.45-4.25,3.45h-1.06v2.66h-3.19v-9.56h0ZM99.83,100.89c.8,0,1.33,0,1.33-1.06h0c0-.8-.53-1.06-1.33-1.06h-.8v2.13h.8Z"/>
  <path class="cls-9" d="M105.14,96.11h4.52c1.59,0,2.66.53,3.45,1.06.53.53.8,1.33.8,2.13h0c0,1.33-.8,2.39-1.86,2.92l2.13,3.19h-3.72l-1.86-2.66h-.8v2.66h-3.19v-9.56h.53v.27ZM109.66,100.63c.8,0,1.33,0,1.33-.8h0c0-.53-.53-1.06-1.33-1.06h-1.33v1.86s1.33,0,1.33,0Z"/>
  <polygon class="cls-6" points="84.69 88.94 83.89 91.06 85.48 92.39 83.36 92.13 82.56 93.98 82.03 92.13 79.91 91.86 81.76 90.8 81.23 88.67 82.83 90 84.69 88.94"/>
  <polygon class="cls-6" points="103.28 88.14 102.49 90 104.08 91.33 102.22 91.06 101.42 93.19 100.89 91.06 98.77 90.8 100.63 89.73 100.09 87.87 101.69 89.2 103.28 88.14"/>
  <polygon class="cls-6" points="103.02 107.8 102.22 109.13 103.55 110.19 101.95 110.19 101.42 111.52 100.89 109.92 99.56 109.92 100.89 109.13 100.36 107.53 101.69 108.6 103.02 107.8"/>
  <polygon class="cls-6" points="83.09 111.25 82.56 113.11 84.16 114.44 82.03 114.44 81.23 116.3 80.7 114.44 78.58 114.17 80.44 113.11 79.91 110.99 81.5 112.31 83.09 111.25"/>
  <polygon class="cls-6" points="91.59 107.27 91.33 108.33 92.13 109.13 90.8 109.13 90.53 110.46 90 109.13 88.94 109.13 90 108.33 89.73 107 90.53 107.8 91.59 107.27"/>
</svg>