<?xml version="1.0" encoding="UTF-8"?>
<svg id="Camada_1" data-name="Camada 1" xmlns="http://www.w3.org/2000/svg" viewBox="0 0 32 32">
  <defs>
    <style>
      .cls-1 {
        fill: #979f82;
      }

      .cls-2, .cls-3 {
        fill: #2b3647;
      }

      .cls-4, .cls-5 {
        fill: #fff;
      }

      .cls-5, .cls-3, .cls-6 {
        fill-rule: evenodd;
      }

      .cls-7 {
        fill: #193657;
      }

      .cls-8 {
        fill: #173557;
      }

      .cls-9, .cls-6 {
        fill: #68813c;
      }

      .cls-10 {
        fill: #d6d6cc;
      }
    </style>
  </defs>
  <path class="cls-9" d="M16,1.18C7.84,1.18,1.18,7.84,1.18,16s6.66,14.82,14.82,14.82,14.82-6.66,14.82-14.82S24.16,1.18,16,1.18"/>
  <path class="cls-8" d="M16,2.54c-7.43,0-13.46,6.02-13.46,13.46s6.02,13.46,13.46,13.46,13.46-6.02,13.46-13.46S23.43,2.54,16,2.54"/>
  <path class="cls-10" d="M4.55,16.32c-.14-.18-.23-.41-.18-.64,0-.59.46-.82.87-.82s.82.32.78.87c0,.23-.09.41-.27.59l-.18-.23c.09-.09.18-.23.18-.36,0-.36-.27-.55-.5-.59-.27,0-.55.14-.55.5s0,.32.14.41l-.23.18v.09h-.05Z"/>
  <path class="cls-10" d="M4.41,16.78l1.6-.14v.32l-1.55.14v-.32h-.05ZM6.47,17.14v-.32l-.36-.14h0v.23l.32.23h.05Z"/>
  <polygon class="cls-10" points="4.6 18.51 4.55 18.19 6.01 17.23 6.06 17.55 4.92 18.28 6.24 18.51 6.28 18.83 4.6 18.51"/>
  <rect class="cls-10" x="4.92" y="19.35" width="1.6" height=".32" transform="translate(-5.78 2.74) rotate(-18.1)"/>
  <path class="cls-10" d="M5.97,21.61c-.23-.09-.36-.23-.46-.46-.23-.55,0-.91.36-1.09s.87-.09,1.09.41c.09.18.09.41,0,.64l-.27-.09v-.41c-.18-.36-.5-.36-.73-.27-.23.09-.41.36-.27.73,0,.14.18.23.32.32l-.09.27h0l.05-.05Z"/>
  <path class="cls-10" d="M7.56,22.98c-.32.23-.82.27-1.14-.18s-.14-.91.18-1.14.82-.27,1.14.18.14.91-.23,1.14M6.79,21.88c-.23.14-.36.41-.14.73s.55.27.73.14c.23-.14.36-.46.18-.73-.23-.32-.55-.27-.78-.09"/>
  <rect class="cls-10" x="7.94" y="23.17" width=".27" height=".82" transform="translate(-14.01 12.03) rotate(-43.5)"/>
  <polygon class="cls-10" points="10.02 24.76 9.2 24.99 9.16 24.94 9.16 24.12 8.47 25.03 8.25 24.85 9.2 23.57 9.48 23.8 9.43 24.62 10.25 24.39 10.53 24.62 9.57 25.85 9.34 25.67 10.02 24.76"/>
  <rect class="cls-10" x="9.83" y="25.33" width="1.6" height=".32" transform="translate(-16.78 22.09) rotate(-60.3)"/>
  <polygon class="cls-10" points="11.76 25.21 11.21 26.44 11.99 26.76 11.85 26.99 10.85 26.58 11.48 25.12 11.76 25.21"/>
  <rect class="cls-10" x="11.89" y="26.28" width="1.6" height=".32" transform="translate(-16.35 30.49) rotate(-72.3)"/>
  <path class="cls-10" d="M13.9,26.22l-.5-.09v-.27c.5.09.87.18,1.32.27v.27l-.55-.09-.27,1.28h-.27l.27-1.32h0v-.05Z"/>
  <path class="cls-10" d="M16.05,27.49h-.82l-.14.27h-.32l.78-1.55h.32l.64,1.6h-.32l-.14-.32h0ZM15.68,26.54l-.32.68h.59l-.27-.68Z"/>
  <path class="cls-10" d="M18.37,27.59h-.36l-.55-.41h-.27l.09.55h-.32l-.23-1.55c.23,0,.5,0,.73-.09.36,0,.59.18.64.46,0,.23,0,.46-.32.55l.55.46h.05v.05ZM17.09,26.44v.5h.5c.18,0,.27-.18.23-.27,0-.14-.14-.23-.32-.23h-.46.05Z"/>
  <path class="cls-10" d="M20.52,26.03c.14.36,0,.82-.46,1.05-.18,0-.41.14-.59.23l-.55-1.51c.18,0,.41-.14.59-.23.5-.18.87.09,1,.46M19.65,26.95l.32-.09c.32-.14.36-.41.27-.64s-.32-.41-.64-.27l-.32.09.36.96h0v-.05Z"/>
  <path class="cls-10" d="M22.29,25.12c.18.36.18.82-.27,1.14-.5.27-.91,0-1.14-.27-.23-.36-.18-.87.27-1.14s.91,0,1.14.32M21.11,25.81c.14.23.41.41.73.18.32-.18.32-.5.18-.73s-.41-.41-.73-.23-.32.55-.18.78"/>
  <path class="cls-10" d="M23.89,24.16l-.32.32.32.32-.23.23-1.09-1.14c.18-.18.36-.36.55-.5.55-.55,1.32.27.78.82M23.39,24.26l.32-.32c.27-.27-.09-.68-.36-.41l-.32.32.36.41Z"/>
  <path class="cls-10" d="M25.44,22.61l-.5.68.14.27-.18.27-.82-1.51.18-.27,1.69.36-.18.27-.32-.09ZM24.44,22.39l.36.64.36-.46-.73-.18Z"/>
  <path class="cls-10" d="M26.86,20.74l-.18.32-.68.18-.14.27.46.23-.14.27-1.41-.73c.14-.23.23-.46.36-.68.18-.32.5-.41.73-.27.18.09.32.27.27.59l.68-.18h.05ZM25.17,21.15l.46.23.23-.41c.09-.18,0-.32-.09-.36-.09,0-.27,0-.36.14l-.23.41Z"/>
  <path class="cls-10" d="M27.08,19.15l-.23.78.23.23-.09.32-1.28-1.14.09-.32,1.73-.23-.09.32h-.36v.05ZM26.03,19.28l.55.5.18-.55-.73.09h0v-.05Z"/>
  <polygon class="cls-10" points="26.17 17.09 26.22 16.82 27.77 17 27.72 17.19 27.77 17.19 26.58 17.87 27.63 18.01 27.59 18.33 26.03 18.1 26.08 17.87 27.13 17.23 26.17 17.09"/>
  <path class="cls-10" d="M25.72,15.36l.32.23v.23h0l-.32-.14v-.32h0ZM27.77,15.13v-.32l-1.55.78v.32l1.64.64v-.32l-.32-.14v-.82l.27-.14h-.05ZM27.22,16l-.68-.27.64-.32v.59h.05Z"/>
  <path class="cls-10" d="M11.99,6.33c0,.14-.14.23-.27.27-.32.14-.55,0-.64-.23s0-.5.27-.64h.36v.14h-.32c-.23.09-.23.27-.18.41,0,.14.18.27.41.18.09,0,.14-.09.18-.18h.18v.05Z"/>
  <path class="cls-10" d="M13.49,5.51c0,.23,0,.5-.36.59-.32.09-.5-.09-.59-.36,0-.23,0-.5.36-.59.32-.09.55.14.59.36M12.76,5.74c0,.14.18.27.36.23.23,0,.27-.23.23-.36,0-.14-.18-.32-.36-.23-.23,0-.27.23-.23.41"/>
  <polygon class="cls-10" points="14.45 4.92 14.54 5.65 15 5.6 15.04 5.78 14.36 5.83 14.27 4.92 14.45 4.92"/>
  <path class="cls-10" d="M16.46,5.74h-.68v-.96h.68v.18h-.5v.18h.5v.18h-.5v.18h.5v.18h0v.05ZM16.36,4.55h-.18l-.09.18h.14l.14-.18h0Z"/>
  <path class="cls-10" d="M18.05,5.24s-.14-.14-.23-.14c-.18,0-.32.09-.36.27,0,.14,0,.32.27.36h.23v-.18h-.23v-.14h.41v.41c-.18.09-.27.14-.46.09-.36,0-.46-.32-.41-.55,0-.27.23-.46.55-.41.14,0,.23.09.32.18l-.14.09h.05Z"/>
  <rect class="cls-10" x="18.59" y="5.64" width=".91" height=".18" transform="translate(8.49 22.58) rotate(-74.7)"/>
  <path class="cls-10" d="M20.79,6.33c-.09.23-.32.36-.64.27-.32-.14-.36-.41-.27-.64s.32-.41.64-.27c.32.14.36.41.27.64M20.1,6.01c0,.14,0,.32.18.41s.32,0,.41-.18c0-.14,0-.32-.14-.41-.18-.09-.36,0-.41.18"/>
  <path class="cls-9" d="M10.62,21.93c1.41,1.41,3.33,2.19,5.34,2.19s3.88-.78,5.34-2.19c1.41-1.41,2.19-3.33,2.19-5.34v-8.16h-4.42l-.64,1.09h3.92v7.02c0,1.73-.68,3.33-1.87,4.52s-2.83,1.87-4.52,1.87-3.33-.68-4.52-1.87c-.14-.14-.32-.32-.46-.5l-.59,1c.09.09.14.18.23.23"/>
  <path class="cls-4" d="M10.57,20.15c-.68-1.05-1.05-2.23-1.05-3.51v-7.02h8.16l.64-1.09h-9.9v8.16c0,1.69.55,3.24,1.55,4.56l.59-1.05h0v-.05Z"/>
  <path class="cls-2" d="M18.87,15.5c-.14-.18-1.51-1.28-2.1-1.64h-.41l-.27-.23.14.27h-.14v.09h0v.09h0v-.09h-.14l.14-.27-.27.27h-.41c-.59.36-1.96,1.51-2.1,1.69v.14s.14.09.27.09.46,0,.59-.18h.09c-.23.27-.46.55-.55.73v.23h.09c.23,0,.59-.23.64-.27l.18-.18c-.18.36-.27.64-.27.78s0,.18.14.23h.14c.09,0,.23,0,.32-.09s.27-.36.41-.64c0,.18,0,.41-.09.59h0c0,.14.09.5.23.55h0s.14,0,.18-.14c.09-.14.14-.32.18-.5v.27c0,.27.09.64.27.64s.32-.36.36-.73c0,.14.09.23.14.32.09.14.14.14.18.14s0,0,0,0c.18,0,.27-.41.23-.55h0c0-.23,0-.46-.09-.64.14.27.27.55.41.64.09.09.18.09.32.09h.14c.09,0,.14-.14.14-.23,0-.14-.14-.41-.27-.78.09.09.14.18.18.18.09,0,.46.27.64.27s.09,0,.09,0v-.23c-.09-.18-.27-.46-.55-.73h.09c.14.09.41.18.59.18s.23,0,.27-.09v-.14"/>
  <path class="cls-5" d="M18.6,15.54h.09c-.32-.27-1.41-1.19-1.96-1.51h-.09l.14.23.18.36c.09.14.55.46.82.64,0,0,.14.09.18.14.14.09.46.18.64.18"/>
  <path class="cls-5" d="M18.37,16.32h0c-.23-.59-1.19-1.55-1.51-1.87l-.27-.18c0,.09.09.27.18.55.14.32.96,1.19,1.09,1.28.09,0,.41.23.55.27"/>
  <path class="cls-5" d="M17.55,16.87h.14c0-.18-.32-1-.82-1.73h0l-.59-1.05h0v.23c0,.14.09.32.14.46.09.27.23.73.32,1,.14.36.46,1,.59,1.09,0,0,.14.09.23.09"/>
  <path class="cls-5" d="M16.64,17.28h0c.09-.09.14-.27.09-.36h0c-.09-1.09-.36-1.96-.46-2.28l-.23-.27c0,.36.09,1.05.09,1.28v.27c0,.32.14.96.36,1.32q0,.09.09.09"/>
  <path class="cls-3" d="M17.51,14.54c.14.18,0,.46-.23.32s.09.09.09.09c0,0,.5-.14.18-.36h0"/>
  <path class="cls-3" d="M18.05,14.95c.14.18,0,.41-.23.27s0,.09,0,.09c0,0,.64,0,.27-.27h-.09"/>
  <path class="cls-3" d="M17.19,14.81c0,.09,0,.36-.32.23-.09,0,0,0,0,0v.09c.09,0,.46.14.41-.23h0"/>
  <path class="cls-3" d="M17.64,15.32c0,.09,0,.36-.32.23-.14-.09-.14,0-.14,0l.09.09s.46.09.36-.27h0"/>
  <path class="cls-3" d="M16.55,15.18c0,.09.41.18.32-.09v.23h-.32"/>
  <path class="cls-3" d="M16.78,15.77c0,.09.55.23.46-.09.09.09.09.23,0,.27-.14.09-.36,0-.46-.09v-.09"/>
  <path class="cls-3" d="M16.55,15.22c0,.09-.09.23-.14.23-.09,0-.18,0-.23-.14,0,.18.09.23.23.18.14,0,.18-.18.14-.32"/>
  <path class="cls-3" d="M16.68,15.95c0,.09,0,.27-.14.27s-.27-.09-.27-.18c0,.18.14.27.32.27s.18-.18.14-.32"/>
  <path class="cls-5" d="M13.31,15.54h-.09c.32-.27,1.41-1.19,1.96-1.51h.09l-.14.23-.18.36c-.09.14-.55.46-.82.64,0,0-.14.09-.18.14-.14.09-.46.18-.64.18"/>
  <path class="cls-5" d="M13.58,16.32h0c.23-.59,1.19-1.55,1.51-1.87l.27-.18c0,.09-.09.27-.18.55-.14.32-.96,1.19-1.09,1.28-.09,0-.41.23-.55.27"/>
  <path class="cls-5" d="M14.4,16.87h-.14c0-.18.32-1,.82-1.73h0l.59-1.05h0v.23c0,.14-.09.32-.14.46-.09.27-.23.73-.32,1-.14.36-.46,1-.59,1.09,0,0-.14.09-.23.09"/>
  <path class="cls-5" d="M15.32,17.28h0c-.09-.09-.14-.27-.09-.36h0c.09-1.09.36-1.96.46-2.28l.23-.27c0,.36-.09,1.05-.09,1.28v.27c0,.32-.14.96-.36,1.32q0,.09-.09.09"/>
  <path class="cls-5" d="M15.95,17.51s-.09-.14-.14-.46v-2.69l.09-.14h.09c0,.27.14,1.96.14,2.42s-.23.91-.27.91"/>
  <path class="cls-3" d="M14.4,14.54c-.14.18,0,.46.23.32s-.09.09-.09.09c0,0-.5-.14-.18-.36h0"/>
  <path class="cls-3" d="M13.86,14.95c-.14.18,0,.41.23.27s0,.09,0,.09c0,0-.64,0-.27-.27h.09"/>
  <path class="cls-3" d="M14.72,14.81c0,.09,0,.36.32.23.09,0,0,0,0,0v.09c-.09,0-.46.14-.41-.23h0"/>
  <path class="cls-3" d="M14.27,15.32c0,.09,0,.36.32.23.14-.09.14,0,.14,0l-.09.09s-.46.09-.36-.27h0"/>
  <path class="cls-3" d="M15.36,15.18c0,.09-.41.18-.32-.09v.23h.32"/>
  <path class="cls-3" d="M15.18,15.77c0,.09-.55.23-.46-.09-.09.09-.09.23,0,.27.14.09.36,0,.46-.09v-.09"/>
  <path class="cls-3" d="M15.41,15.22c0,.09.09.23.14.23.09,0,.18,0,.23-.14,0,.18-.09.23-.23.18-.14,0-.18-.18-.14-.32"/>
  <path class="cls-3" d="M15.27,15.95c0,.09,0,.27.14.27s.27-.09.27-.18c0,.18-.14.27-.32.27s-.18-.18-.14-.32"/>
  <path class="cls-3" d="M15.82,15.41c0,.14.14.18.18.18,0,0,.14,0,.18-.14h0s-.09.18-.18.18c-.14,0-.18-.09-.18-.27"/>
  <path class="cls-3" d="M15.82,16.14c0,.18.18.23.23.23s.18,0,.18-.18v.09s-.09.18-.23.14c-.09,0-.23,0-.23-.32"/>
  <path class="cls-5" d="M16.36,14.27c-.14.18-.23.27-.23.27h0c.14,0,.18-.09.18-.09v-.18"/>
  <path class="cls-4" d="M28.13,7.65h0c0-.09-.27-.14-.27-.14-.36-.09-1.78-.23-2.05-.23-.55,0-1.09,0-1.64.09,0,0-1.28.09-1.55.14-.27,0-.55.09-.87.18,0,0-1.64.41-2.37.73-.23.09-.41.18-.55.32-.23.23-.64.87-.64.87-.09.14-.46.78-.5.87-.09.09-.5.18-.55.18h-.18s-.14.09-.18,0c0,0-.14-.09-.14-.14s.32-.46.32-.46c0,0-.14-.14,0-.18h.27v-.46h-.46c-.09,0,.36-.32.32-.32s-.32-.32-.36-.36h0c-.09,0-.32.36-.32.36v-.55h-.68v.46c0,.09-.23-.27-.36-.32l-.36.41s.18.09.27.27c0,.09-.41,0-.41,0,0,0-.18.36,0,.46h.36s-.14.09-.14.14c0,.14.23.41.23.41,0,0-.09.23-.14.23-.18,0-1.14-.96-1.14-.96-.09,0-.14-.14-.14-.23,0,0-.41-.68-.64-.82-.18-.14-.68-.32-.68-.32-.73-.27-2.33-.68-2.33-.68-.27-.09-.59-.09-1-.14h-.91c-.18,0-1.51-.09-2.01-.09h0c-.46,0-.96,0-1.37.14-.23,0-.46,0-.64.14-.09,0-.14,0-.18.09v.14c0,.09.23.14.32.18h.09v.09s0,.09.09.18h0v.23c0,.09.23.18.5.18h.14l-.09.14c-.09.09,0,.18,0,.27,0,0,.23,0,.32.09h.09v.09c0,.09,0,.14.14.23s.23.09.32.09h.09v.09c0,.09,0,.14.18.23h0v.18c0,.09.32.14.41.14h.09v.18s.09.09.18.09h.09c.09,0,0,0,0,0h0c.09,0,.18,0,.23.09,0,0,.14.09.23.09h.09v.23s.09.09.14.14h.14s.09,0,.14.09h.41v.09c0,.14,0,.23.14.27.23.09.46.09.68.09h.09v.09c0,.23.27.27.64.32h.18l-.09.14c-.14.23,0,.27,0,.32h.5v.09c0,.18.27.23.36.23s0,0,0,0h.09v.27s.14.09.23.09h.09v.46h.14c.14,0,0,0,.09,0h.09v.09c0,.14,0,.23.09.32h.36c0,.23.09.36.23.36h.23c0,.14.09.18.18.18h.36c0,.18.09.18.14.18s.18,0,.27-.14h.09s0,.09.14.09h.09c.09,0,.18-.09.27-.18h.14c.09,0,.14,0,.23-.09h0v.09h0c.27-.23.96-.18,1.09-.14l.09-.23s.14.23.23.18c0,0,1,.46,1,.41v-.32h.14s0,.09.09.14h.23v-.09l.09.09c.09.09.14.18.27.23h.27c.14.09.23.14.32.14s0,0,0,0c0,0,.09,0,.09-.14v-.14h.23s0,0,0,0h.32s.14,0,.14-.23v-.14h.09s.14.14.18.14h.09s.09-.09,0-.32v-.14h.46c.09,0,.09-.18,0-.32v-.09h.18c.09,0,.18,0,.23-.09v-.46h.18c.09,0,.18,0,.27-.09.09,0,0-.14,0-.23h0l.09-.09.09-.09h0c0-.09.09-.09.14-.09h0s.14,0,.14-.23v-.09h0c.32,0,.55-.09.59-.32h.09c.23,0,.41,0,.46-.18,0-.09.14-.09.27-.09h.09s.09,0,.09-.14h0c.14,0,.27,0,.41-.09,0,0,.09-.09,0-.27h0v-.09c.18,0,.23-.09.23-.18v-.09h.09c.14,0,.32,0,.36-.14v-.18h.09c.23,0,.46,0,.59-.14,0,0,.09-.09.09-.14v-.14l-.09-.09h.14c.14,0,.46-.14.5-.23s-.09-.18-.09-.18h0c.09-.09.14-.14.14-.18,0-.09.09-.09.18-.09h.18c.41-.14.32-.41.32-.41.18,0,.32-.09.27-.27,0,0,.5,0,.64-.27.09-.14,0-.23,0-.23,0,0,.41,0,.41-.27"/>
  <path class="cls-2" d="M16.73,13.13s.23,0,.14-.14-.18,0-.27,0-.27,0-.27.14.27,0,.41,0"/>
  <path class="cls-2" d="M15.41,13.26h.23c.14,0,0-.14-.09-.18h0s-.14-.18-.18-.09c0,0,0,.18.09.18"/>
  <path class="cls-2" d="M16.23,13.77c.09,0,.09-.18.09-.23,0-.09-.14,0-.09,0v.14"/>
  <path class="cls-3" d="M17.28,9.66v-.18s-.09-.09-.14-.09h-.27l.23-.18v-.14s-.09-.14-.14-.18c-.14-.14-.23-.18-.27-.23h-.14c-.09.09-.14.18-.18.23h0v-.41h-.73s-.09,0-.09.09v.32h0s-.09-.14-.18-.23h-.14s-.14.09-.27.23-.09.14-.14.18v.09l.23.18h-.41v.5h.32-.14c0,.09.14.27.18.36h0c0,.14,0,.27-.41,0,0,.18.23.32.5.36,0-.09,0-.23.09-.23h0c.09-.09.09,0,0-.18,0,0,0-.09-.09-.14,0,0-.09-.14-.14-.18l.09-.14v-.09h-.41v-.14s0-.09.09,0h.36v-.09q0-.09-.09-.14l-.14-.14v-.09h0c.09-.14.14-.18.18-.23h0s.18.23.32.27h0v-.5h.46v.59s.14,0,.18-.18c0,0,.09-.14.14-.18h0s.14.09.18.18h0v.14l-.14.18s-.09.09-.09.14.14,0,.18,0h.32v.09h0s0,.09-.09,0h-.27v.09l.09.14s-.09.14-.14.18c-.14.14-.14.27-.14.27l.09.09h0s.09.14.14.23c.23-.09.46,0,.5-.23-.41.14-.5,0-.5-.09s.18-.36.27-.46h0l-.14-.09h.32v-.18"/>
  <path class="cls-3" d="M15.77,10.62c0-.18,0-.27.18-.27s.18,0,.18.27c.09,0,.18-.09.27-.14,0,.09-.09.18-.18.23s-.14.18-.23.36h0c0-.23-.14-.36-.23-.41-.09,0-.14-.14-.18-.23.09,0,.18.09.27.14"/>
  <path class="cls-3" d="M15.68,10.25s-.09,0-.27-.18h0v.14h.09c0,.09.09.18.23,0v-.09"/>
  <path class="cls-3" d="M16.18,10.25s.09,0,.27-.18h0v.14h-.09c0,.09-.09.18-.23,0v-.09"/>
  <path class="cls-2" d="M16.18,13.9c.09,0,.14-.09,0-.18-.14-.14-.09-.18-.09-.23s0-.09,0,0v.32l.09.14"/>
  <path class="cls-2" d="M15.54,14.04s0,.09-.09.14v.14c.09,0,.18,0,.18-.14s0-.18.09-.18c.14,0,.09-.09.09-.18v-.23c0-.14.09-.23.09-.27,0,0-.14,0-.18.09,0,.09-.09.14-.09.23s0,.14-.09.14-.09,0-.14.14"/>
  <path class="cls-2" d="M28.22,7.65h0c0-.09-.23-.14-.32-.18-.41-.09-.82-.14-1.23-.18-.87-.09-1.78,0-2.65,0-.46,0-.91,0-1.41.09-.32,0-.64.14-.96.18-.78.18-1.55.36-2.28.68-.18.09-.41.18-.59.32-.23.27-.46.59-.64.87-.09.14-.18.32-.27.46-.09.14-.14.27-.23.41,0,.09-.14.09-.27.14h-.14s-.41.27-.46-.18c-.09,0,0,.14-.14.27-.09,0-.18.09-.14.18,0,0,.32,0,.36.09v.18c0,.14.27-.09.23-.14-.09-.14.27-.18.36-.23.18,0,.27-.09.36-.27.18-.36.68-1.32,1.09-1.73.18-.18.91-.46,1.64-.64.73-.23,1.46-.36,1.73-.46.23,0,.82-.09,1.6-.14h.87s-.09,0-.14.09h-.87c-.23,0-.41,0-.59.09h0c0,.09-.23.09-.32.09h-.46c.09.18-.41.18-.5.18h0c.09.14-.32.18-.36.18h-.27c0,.14-.27.14-.41.14h-.18c0,.09-.32.14-.36.14h0c.09.18-.5.27-.59.32h-.09c.14,0,0,.09-.09.14h-.09.09v.09s-.09,0-.18.09h-.09v.09s-.09.09-.14.09h-.09c.09,0,0,.14,0,.14,0,0-.14,0-.18.09h0s.09,0,.14.14c0,.14-.27.18-.32.23h0s.09,0,.14.14h0c0,.09-.14.09-.18.09h-.14s-.09,0,0,0c0,0,.09,0,.09.09v.14h-.27v.18c0,.14-.27,0-.32,0h0s.09.27,0,.18c0,0-.14-.09-.18-.14h0c0,.09.09.18,0,.14h-.18.32c0-.09.18,0,.23.05h.14s.18,0,.18.09,0,.14-.09.14h-.27c-.09,0-.18-.09-.23-.18h0s0,.09.09.09c0,0,.09,0,.14.09,0,.09.09.18.09.27s0,.18-.09.23-.18-.27-.18-.32q0-.09,0,0v.23c0,.09-.09.14-.14.09s-.09-.18-.09-.27h0v.73c.09.18.09.41.14.59,0,.14.09.23.09.36s.09.27.09.41v.09h-.09c-.09,0-.14-.09-.18-.18,0-.09-.09-.18-.09-.32v-.32c0-.14,0-.32-.09-.46v-.68.09c0,.09-.18.41-.09.59v1.05c0,.09.18.27.18.18v-.14h0s.09.09.14.14c.09.09.23.09.32,0,.09.14.14.23.27.27h.27c.14.09.27.18.41.14.09,0,.14-.14.14-.23h.41c.18,0,.23-.14.23-.27.09,0,.23.14.36,0s.09-.23.09-.36c.14,0,.27.09.41,0,.14,0,.09-.27.09-.36.14,0,.32,0,.36-.14v-.36c.14,0,.32,0,.46-.09s.09-.23,0-.32c0,0,.09,0,.14-.09v-.09h.14c.14,0,.18-.18.18-.32.27,0,.59,0,.64-.36.23,0,.46,0,.55-.23,0,0,.32,0,.36-.09.09,0,.14-.09.14-.18.14,0,.32,0,.46-.09s.14-.23.09-.36c.14,0,.27-.09.27-.23.18,0,.55-.09.46-.32.23,0,.46,0,.64-.14.14-.09.18-.27,0-.36.23,0,.68-.14.5-.41.09,0,.14-.09.18-.18h.36c.18,0,.41-.23.36-.41.14,0,.27-.14.27-.27.23,0,.73-.18.68-.46.18,0,.41-.09.41-.32M24.85,7.43h2.23s.09,0,0,0h-2.19s-.23,0-.18-.09M21.29,8.29h.41c.09,0,.14-.09.18-.14h.36s.09-.09.14-.09h1.05s.14,0,.09,0c0,.14-.14.18-.27.23-.09,0-.27,0-.36.09s-.23.23-.36.23h0c-.32,0-.59.09-.91,0h-.36s0-.09.09-.09M20.79,8.47h1.69v.18s-.09.09-.18.09h-1.32s-.18,0-.23-.09v-.09s-.09,0-.09-.09.09,0,.14,0M19.1,12.08h-.36s-.09,0-.14-.09c0,0-.14,0-.18-.09-.09,0,0-.14,0-.18,0,0,.14-.09.18,0,0,0,.14.09.18.09.14,0,.32.09.46.09s.23,0,.23.14-.27.18-.41.14M19.1,12.44s-.14,0-.23-.09c-.09,0-.14-.09-.14-.18v-.14h.09c.09,0,.14,0,.23.09,0,0,.09.09.09.18v.18M19.15,11.71h-.27s-.14,0-.18-.09c0,0-.14-.09-.09-.18.09-.14.27-.09.41,0,.18,0,.36.09.59.14h.36v.14h-.73M19.88,11.44h-.5c-.09,0-.18,0-.32-.09-.09,0-.32-.09-.18-.18h.23c.09,0,.14,0,.23.09.14,0,.32,0,.46.09h.32v.14c0,.09-.18.09-.23.09M19.97,11.17h-.68c-.09,0-.14,0-.14-.14v-.14h1.09s.18,0,.14,0c0,0,0,.09-.09.09s-.23.09-.32.09M20.15,10.85h-.78v-.23q0-.09.14-.09h1.05s.09.09.09.18-.09.09-.18.14h-.32M20.56,10.44h-.78s-.18,0-.18-.09v-.23s0-.09.09-.09h1.09v.18c0,.09-.18.14-.27.14M20.7,9.93h-.87v-.23c0-.09.14-.09.23,0h1.51c.09,0,0,.09,0,.14-.23.18-.5.18-.78.18M21.52,9.48c-.14,0-.27.09-.36.09h-.96s-.14,0-.14-.09.14-.09.14-.09c0,0,.09,0,.09-.09h1.09s.46-.09.41,0c0,0-.09.09-.14.14,0,0-.09,0-.18.09M21.7,9.16h-1.28c-.09,0-.14,0-.09-.14,0,0,.14-.09.18-.14h.59c.18,0,.41,0,.59-.09h.14c.09,0,.18,0,.23.09,0,.14,0,.23-.14.23h-.27M20.2,8.7h0c.09,0,.18-.09.27,0,0,0,.18,0,.14.14h-.5v-.09M19.56,9.02h0s.14-.09.23-.09h.41s.14,0,.14.09-.23.09-.27.09h-.46M19.33,9.34v-.14h.59s.23,0,.23.09-.14.14-.23.18h-.64s-.14,0,0-.09M19.19,9.61v-.09h.46v.09h-.59v-.09M18.92,9.98s.09,0,.14-.09h0v-.09h.55s.09.09,0,.14c0,.09-.14.09-.23.09h-.59v-.09M18.83,10.25v-.09h.68v.14h-.68M18.83,10.44h.41c.09,0,.14.14.09.23h-.27s-.09-.09-.14-.09c0,0-.09,0-.09-.09v-.09M18.51,10.71h.27l.09.09c.09.14-.14.09-.18.09h-.14c.09,0,.14.09.23.09s.27,0,.23.14c-.09.09-.32,0-.41,0h0s-.09,0,0-.09v-.23M18.23,11.17v-.14h.18s.36.09.27.18c0,.09-.23.09-.32.09h-.23M18.1,11.53h0c-.09,0-.18,0-.23-.09v-.18h.14c.09,0,.14,0,.23.09h.18s.09,0,.09.09c0,.18-.36.09-.41.09M18.1,11.85h.27s.09,0,.14.09c0,0,.09.09.09.18s.14.27,0,.23h0c-.09,0-.18,0-.27-.09-.09,0-.18-.09-.23-.18v-.14M18.55,12.58h-.18s-.09-.09-.14-.14c0,0-.09-.09-.14-.18v-.09h0s.09,0,.14.09h.27v.23M17.92,12.4v-.09s0-.09.09-.09c0,0,.09.09.09.14,0,.09,0,.14.09.23,0,0,0,.23-.09.18-.09,0-.14-.14-.14-.18v-.14M17.92,12.67h0M17.37,12.76s-.09-.14,0-.23v-.14c0-.09.09,0,.14,0h.09s.03.02.09.05h.14v.23s0,.09-.09,0c-.09,0-.14-.18-.14-.32h0v.23c0,.14-.09.09-.14,0M18.28,14.49s-.09.09-.14.09h0c-.09,0-.14-.09-.18-.14,0,0,0-.09-.09-.14-.14-.23-.23-.5-.27-.78,0-.09,0-.18-.09-.27v-.23l.09-.09h.09v.14c0,.09,0,.18.09.32.09.18.14.41.23.59,0,.09.09.18.14.27v.27M18.74,14.68h-.14c-.09,0-.14-.09-.14-.14v-.36c0-.09-.09-.18-.14-.27-.09-.18-.18-.41-.23-.59v-.27h.18c.09,0,.09.14.14.18.09.18.18.36.27.59,0,.09.14.23.18.32,0,0,0,.09.09.18v.09s.09.14.09.23v.23M19.06,14.45h-.14s-.09,0-.14-.09c0,0-.09-.09-.09-.18s-.09-.14-.14-.23c-.09-.14-.18-.32-.23-.46,0-.09-.09-.18-.14-.27,0-.09,0-.14-.09-.23,0,0-.09-.09,0-.14h.23v.14c0,.09.09.18.14.27.09.18.18.36.32.55,0,.09.14.18.18.27,0,0,0,.09.09.14v.23M19.38,14.49h-.18s-.09-.09-.14-.14c-.09-.14-.18-.23-.23-.36-.14-.27-.32-.5-.41-.78,0-.09-.09-.18-.14-.23,0,0-.14-.18-.09-.23h.18s.09.14.14.23c0,.09.09.18.14.27v.09c.09.09.14.23.23.32s.14.23.23.32c0,0,.09.09.14.18,0,.09.09.18.09.27v.14M19.83,14.31h0c-.09,0-.18,0-.23-.09-.18-.09-.32-.32-.41-.46-.14-.23-.27-.46-.41-.68,0,0,0-.09-.09-.18,0-.09-.09-.18,0-.23v-.09s0-.09.09,0c0,0,.09.14.09.18.09.09.14.23.23.32.14.14.23.32.36.46.09.14.23.23.32.32s.09.18.09.32v.18M20.33,13.95h-.09c-.09,0-.18,0-.27-.09-.09,0-.14-.09-.18-.14l-.09-.09-.18-.18c-.14-.14-.23-.27-.36-.41,0-.09-.14-.18-.18-.27,0-.09-.09-.14-.14-.23,0,0-.09-.14,0-.14h.09c.09,0,.14,0,.23.09,0,0,.09.09.14.14,0,0,.09.09.14.14.09.09.18.14.23.18,0,0,.14.09.18.14.09.09.18.14.27.23,0,0,.09.09.14.14s.09.14.09.23v.23M20.7,13.54h-.27c-.09,0-.18-.14-.27-.18-.09-.09-.18-.14-.27-.23h0c-.18-.14-.32-.27-.5-.41-.09,0-.14-.14-.18-.27v-.23h.09s.09,0,.14.09c.09.09.23.14.32.23.23.14.41.23.64.36.09,0,.18.09.27.14.09.09.14.18.14.32s0,.18-.09.23M21.25,12.99h-.32c-.23,0-.41-.18-.64-.27,0,0-.09,0-.18-.09-.23-.14-.41-.23-.59-.36,0,0-.14-.09-.14-.14h.23c.09,0,.14.09.18.09.14,0,.27.14.41.18.27.14.55.27.87.32h0s.09,0,.14.09v.14h0M21.34,12.58h-.36c-.14,0-.27-.09-.41-.18-.09,0-.14,0-.23-.09-.09,0-.23-.09-.32-.14-.09,0-.27-.09-.32-.18v-.18h.14c.09,0,.18,0,.27.09.18,0,.32.14.5.18.14,0,.27.14.41.18.09,0,.14,0,.23.09h.18v.09M21.66,12.35c-.09.14-.32,0-.46,0s-.27-.09-.41-.14c-.09,0-.14,0-.23-.09-.23-.09-.41-.18-.64-.27,0,0-.09,0-.09-.09s.09-.09.14-.14c.09-.09.18,0,.27,0,.18.09.41.14.59.23.14,0,.27.09.46.14.14,0,.36.09.36.27h0M22.25,11.99h0c-.09.09-.23.09-.32.09h-.36c-.14,0-.27-.09-.36-.14-.23-.09-.5-.18-.73-.27-.09,0-.18-.09-.27-.09h-.09v-.09s0-.09.09-.09c.09-.09.18,0,.27,0s.18.09.32.09c.23,0,.41.14.64.18.18,0,.32.09.5.09h.36v.18M22.84,11.67h-1c-.18,0-.36-.09-.55-.14-.23,0-.41-.14-.64-.18h-.27s0-.14.09-.14h.14c.09,0,.23,0,.32.09.23,0,.46.09.64.14.27,0,.5.09.78.14h.55v.09M23.3,11.39h-1.09c-.36,0-.68-.14-1.05-.23-.14,0-.27,0-.46-.09h-.14s0-.14.09-.14h.32c.23,0,.46.09.64.14.23,0,.46.09.64.14.23,0,.46,0,.64.09h.36v.09M23.89,11.07c0,.09-.23.09-.32.09h-.82c-.27,0-.55-.09-.78-.14-.23,0-.46-.09-.64-.14h-.64v-.09h.68c.23,0,.46.09.68.09.36,0,.73.09,1.05.14.23,0,.41.09.64,0h-.64c-.36,0-.73-.09-1.09-.14h-.36c-.18,0-.41-.09-.59-.09h-.27s-.14,0-.09,0h.18c.18,0,.41,0,.59.09.18,0,.41.09.59.09h.32c.23,0,.46.09.64.09h.73v.18c0,.09,0,0,0,0M24.16,10.71s-.09,0-.14.09h-.59c-.23,0-.41,0-.64-.09h-.36c-.14,0-.32,0-.46-.09-.23,0-.46-.09-.68-.09h-.32,2.28c.23,0,.46,0,.64.09h.18s.09,0,.09.09v.09M24.62,10.44h-1.92c-.36,0-.68,0-1.05-.09h-.64v-.09c.09,0,.18,0,.23-.09h1.46c.32,0,.64.09,1,.09s.5,0,.73.09h.14s.09,0,.09.09h0M25.4,10.07s-.09.09-.18.09h-.5c-.27,0-.5,0-.78-.09-.27,0-.5,0-.78-.09h-1.64v-.09s0-.09.09-.09c0-.09.18,0,.27,0h3.19s.27.09.27.18h0M25.9,9.57s-.09.09-.14.09c-.14,0-.27,0-.41.09h-.59c-.46,0-.91,0-1.37-.09h-1.6s0-.09.09-.09c.09-.09.23-.14.36-.14h3.51s.14,0,.18.09h0M25.99,9.25s-.09,0-.14.09h0c-.55-.09-1.09-.09-1.64-.09h-2.14c0-.14.14-.14.23-.14h2.28c.46,0,.91,0,1.37.14h0v.09M26.58,8.98c-.14.09-.27.09-.41.09h-.14c-.41-.09-.87-.14-1.32-.14h-2.51s0-.09.09-.09c.23-.14.5-.09.78-.09h3.69c0,.09-.14.14-.18.18M26.99,8.52s-.14.09-.18.09h-4.29v-.09s.18-.09.27-.09h4.06s.14,0,.09.09M27.54,8.2s-.14,0-.18.09h-4.42c-.09,0,.09-.14.09-.14h.18c.09,0,.18,0,.27-.09h4.15c0,.09,0,.14-.09.14M28,7.79h-4.2c-.09,0-.14,0,0-.14,0,0,.09,0,.14-.09h4.1s.09,0,.09.09v.09"/>
  <path class="cls-2" d="M13.9,14.68c.09,0,.18-.14.27-.23.09-.09.14,0,.23,0s.18,0,.27-.14h0s.14-.14.14-.18v-.73c0-.23.23-.09.23-.18s-.09-.09-.14-.18c0-.14.14,0,.09-.18,0-.14-.18-.32-.23-.59,0-.18-.09-.23-.14-.32-.09-.09-.14,0-.23,0s-.18-.09-.14-.18v-.09q0-.06,0,0c0,.18-.27.27-.41.23h-.14s0-.09.09-.14c0,0,.09,0,.14-.09h.18s.14,0,.18-.09h.09s.09,0,0,0h0c-.09,0-.09.09-.18.09,0,0-.09,0-.09-.09v-.14h-.27c-.18,0-.09-.14,0-.18h-.27q-.09,0-.09-.09h.09-.27q-.09,0,0-.09h.18s-.14,0-.18-.09c0,0-.09,0-.14-.09v-.09s.18,0,.09-.09c-.09,0-.23-.09-.27-.14,0-.09.18-.09.09-.14h-.09s-.18,0-.14-.14h.09-.09s-.09,0-.14-.09c0,0-.14-.09,0-.14h0s-.14,0-.18-.14c0,0-.14-.09,0-.09h-.64v-.09h-.41s.09,0,0,0h-.36c-.09,0-.18,0-.18-.14h-.32s-.46-.09-.36-.14h0c-.09,0-.59,0-.5-.18h-.32c-.14,0-.41,0-.5-.09h-.46v-.09h1.32c.27,0,1,.23,1.69.46.73.23,1.46.46,1.64.64.18.18.41.46.55.82,0,.14.18.18.27.23.09.09.18.14.23.23s0,.14.14.23.09.18.18.23c0,.09.14.14.23.18,0,0,.23.09.23.14s-.09.09-.09.14.09,0,.09.09-.14.14-.09.18v.14s-.09.09,0,.18c0,.09.18.09.18,0v-.27c0-.09.09-.09.27-.18.14-.09.27,0,.41-.09.14,0-.18-.09-.23-.14h0v-.09c-.27,0-.36-.23-.36-.23h-.18c-.23-.09-.41-.36-.46-.46-.09-.14-.18-.23-.27-.32,0,0-.09,0-.14-.09-.09-.09-.14-.23-.18-.32-.14-.27-.36-.59-.59-.78-.23-.14-.5-.27-.73-.32-.78-.27-1.55-.46-2.33-.68-.32-.09-.68-.14-1-.14-.46,0-.96-.09-1.41-.09s-1,0-1.51-.09c-.46,0-.91,0-1.41.14-.23,0-.46.09-.64.14-.09,0-.18,0-.23.09v.18c0,.14.23.18.36.23,0,.09,0,.18.14.23-.09.32.32.41.59.46-.09.09-.09.27,0,.36s.27.09.41.09c0,.09,0,.18.14.27.09.09.23.14.36.14,0,.18.09.23.27.27,0,.23.32.27.5.32,0,.18.09.23.27.27h.36c.09,0,.14.09.23.14-.09.14,0,.27.18.36h.18s.09,0,.18.09c.09,0,.23.09.32.09,0,.18,0,.32.18.36.23.09.5.09.73.09,0,.36.46.36.73.41-.09.14-.18.27,0,.41.14.09.32.05.46.05,0,.23.27.32.5.27,0,.23.09.32.32.36v.41c0,.09.18.09.32.09,0,.14,0,.27.14.36.09.09.23.09.36,0,0,.27.18.46.46.32,0,.27.32.23.55.14.09.32.36.23.55.09,0,.14.18.18.32.09M14.72,12.44h0v.68c0,.09-.09.59-.09.64,0,.09,0,.32-.14.41h-.09s-.18.14-.18.09v-.14c0-.09,0-.18.09-.27v-1c0-.09,0-.14.09-.18v-.32M14.45,12.21c0-.09,0-.27.14-.32h0v.09h0v.14s0,.14-.14.14h-.09v-.14M14.49,12.49h.14v.27s-.09.14-.09,0v-.23h0v.18s-.14.18-.18.09v-.32s0-.14,0,0c0,0-.09.14-.14.18,0,0-.14.09-.18.09-.09,0,0-.09,0-.14,0,0,.09-.09.14-.14l.14-.14h0s.09.09.14.09.14-.09.18,0c0,0,0,.14.09.14M14.13,11.99c0-.09,0-.18.14-.23h0s0,.09.09.09v.23s-.09.14-.18.09c-.14,0-.09-.18-.09-.27M13.95,11.94s0-.09.09-.09,0,0,0,.09v.27c0,.09-.09.14-.14.18-.09,0-.14.09-.23.14,0,0-.14,0-.23.09q-.09,0-.09-.09t.14-.14h.09c.09,0,.14-.09.18-.14,0,0,.14-.09.18-.18M13.86,11.8c.09,0,0,.14,0,.18,0,.09-.14.14-.23.23-.09,0-.18.09-.32.14h-.23s-.09-.09,0-.14h.23c.09,0,.18-.09.27-.18,0,0,.09,0,.14-.09h.18M12.4,11.85h-.23s-.09-.14,0-.18h.41c.18,0,.41-.09.59-.18h.36v.18s-.14.14-.23.18c-.18.09-.32.14-.5.14h-.32M12.58,11.99h0c0,.14-.23.14-.32,0v-.09h.27M10.44,9.61h1.28c.09,0,.23,0,.27.14v.09s-.09.09-.14.09h-.68c-.23,0-.5,0-.68-.18,0,0-.18-.14-.09-.14M10.39,9.48s-.36-.14-.23-.23h1.51s0,.09.09.09.09.09,0,.14h-1.46M11.07,10.02h1s.09.09.09.14v.09h0v.18h-1.05c-.14,0-.27-.23-.09-.32M11.35,10.62s0-.09.09-.09h.96v.32h-.91v-.14M11.53,10.94h.18c.18,0,.41,0,.59-.09h.41s0,.09.09.14c0,0,.09,0,.09.09s-.14.09-.18.09h-.46c-.18,0-.36.09-.5,0-.09,0-.14,0-.23-.09,0,0-.09-.09-.09-.14M11.85,11.39c0-.09.14-.14.18-.14h.87c.09,0,.14,0,.18.09,0,.09,0,.14-.09.18-.09,0-.23.09-.32.09h-.78s-.09,0-.09-.09M12.67,11.94h.23c.09,0,.18,0,.27-.09.09,0,.18-.09.23-.14,0,0,.09,0,.09-.09l.09-.09h.09c.09,0,0,.09,0,.18s-.09.09-.14.14-.14.09-.18.14c-.14.09-.27.14-.46.14h-.23s-.09-.14,0-.18M13.95,11.26h.18s-.09.14-.09.18c0,0-.14.09-.23.09h-.14s-.09,0-.09-.09h0s0-.09.09-.14h.23M13.49,10.94h.23v.14h0c-.09,0-.18.09-.27.09s-.18,0-.27-.09c0-.09.09-.14.14-.14h.23M13.35,10.66h.09v.14h0s-.09,0-.14.09h-.23s-.14,0-.14-.09,0-.09.09-.14h.36M13.22,10.53q0,.09-.14.09h-.64v-.18c0-.09.23,0,.32,0h.36v.09M13.17,10.25c.09,0,0,.09-.09.09h-.5c-.09,0-.18,0-.23-.14v-.09h.73v.09h.09M12.99,9.93v.09h-.46c-.18,0-.32,0-.46-.14s.09-.14.18-.14h.59l.09.09M12.67,9.52h0s.09,0,.09.14-.09.09-.14.09h-.27c-.14,0-.32,0-.46-.09l-.09-.09v-.09h.78M12.53,9.16v.18h-.18c-.18,0-.41,0-.59-.14,0,0-.14-.14,0-.18h.78M11.76,8.84h.64-.64s0-.09-.09-.14h.09M11.58,8.98h0s.09,0,0,.09c0,.09-.23.09-.32.09h-1.19c-.09,0-.36,0-.36-.18s.09-.18.18-.18h1.55v.14M11.12,8.47h.14s.09.09.14.14c0,0,.18,0,.14.14h-1.55c-.14,0-.36,0-.41-.14v-.14h1.69M8.61,7.74h.87c.09,0,.14,0,.18.09l.14.09h.96-1.32c-.18,0-.32-.09-.41-.23-.09-.09-.23-.09-.32-.18,0,0-.09-.09-.09-.14M7.38,7.43h.96-.73s-.23,0-.23-.09.09,0,.14,0M4.78,7.47h2.33c0,.09,0,0-.09,0h-2.19M4,7.84c-.09,0-.14-.09-.14-.14h0s.09,0,.18-.09h4.2s.09,0,0,.09h-1.73c-.64,0-1.32,0-1.96.09h-.64M4.28,8.02h.46c.55,0,1.14-.09,1.69-.09h2.14l.09.09c0,.09,0,0-.09,0h-2.87c-.27,0-.55,0-.87.09h-.5s-.09,0-.09-.09M4.41,8.34h0c0-.09.14-.09.18-.14h4.42s.23.18.09.18h-4.65M4.73,8.52h-.23,4.83s.09.09,0,.14h-4.56M5.24,9.02h-.18s-.14-.09-.14-.14,0-.09.14-.14h4.42v.09h-4.15,4.47v.18h-4.42M5.74,9.39h-.23l-.09-.09v-.09h0c0-.09.14-.09.18-.09h4.29s.09,0,.09.09,0,.09-.09.09h-4.2M6.01,9.66h0c0-.09.09-.14.14-.14h4.01s.14.09.18.14h-4.33M6.51,9.98c-.09,0-.18,0-.27-.09h0s.09-.09.14-.09h4.01s0,.09.09.09v.09h-4.01M7.06,10.3h-.36v-.14h0c.59,0,1.14-.14,1.73-.09h2.23s.23,0,.18.14h-1.78c-.68,0-1.37,0-2.05.14M7.29,10.39h0c-.09-.09.09-.09.14-.09h3.47s.09.09.09.14,0,0-.09,0h-3.28c-.09,0-.23,0-.27-.09M7.97,10.94s-.09-.09-.14-.09h-.27v-.09s.09-.14.18-.14h0c.46-.09.91,0,1.32,0h1.96s.09,0,.14.09h.09-.55c-.27,0-.59,0-.87.09-.64,0-1.23,0-1.87.09h1.82c.27,0,.5,0,.78-.09h.68v.23h-2.96c-.14,0-.27,0-.36-.09M9.2,11.48h-.32c-.14,0-.32,0-.46-.14h0v-.18c0-.09.23-.09.32-.09h2.42c.09,0,.27-.09.36,0v.09h0c.14.18-.14.18-.23.18-.18,0-.32,0-.5.09-.32,0-.64.09-.96.14-.23,0-.46.09-.68,0M9.66,11.9c-.18,0-.27-.09-.27-.14h0v-.14h.59c.23,0,.46,0,.68-.09.18,0,.41,0,.59-.09h.5v.09c0,.09,0,.18-.09.23-.09,0-.18,0-.27.09-.23,0-.41.09-.64.14-.14,0-.32,0-.46.09h-.64M10.3,12.35h-.27v-.18l.09-.09c.09-.09.23-.09.32-.14.14,0,.27,0,.41-.09.18,0,.36-.09.55-.14h.55s.14.09,0,.14c0,0-.14,0-.23.09-.14,0-.27.09-.41.14-.18,0-.36.14-.55.23-.09,0-.18.09-.27.14h-.27M10.8,12.67h-.09c-.14,0-.18-.09-.18-.14v-.09h0c.27-.14.55-.27.82-.36.14,0,.27-.09.41-.14h.18s.09,0,.14.09c0,.09,0,.18-.14.23,0,0-.14.09-.18.09-.27.14-.5.27-.78.36h-.27M11.17,12.99s-.14,0-.14-.14h0v-.18s.09,0,.09-.09c0,0,.09,0,.14-.09.09,0,.23-.09.32-.14s.18-.09.27-.14c0,0,.09,0,.14-.09h.55s0,.09-.09.14c-.14.09-.27.18-.36.23-.14.09-.32.18-.46.27-.09,0-.14.09-.23.14s-.23.09-.32,0M11.67,13.45h-.27v-.32s.09-.09.14-.09c.09,0,.14-.09.23-.09.14-.09.27-.14.41-.23.14-.09.27-.14.36-.23s.23-.18.36-.18.09,0,.09.09.09.09,0,.14l-.18.18c-.14.14-.27.23-.41.36-.23.18-.46.32-.73.46M11.9,13.9h-.09v-.36l.09-.09s.14-.09.18-.14c.14-.09.27-.14.36-.23.18-.14.36-.27.55-.46s.09-.14.18-.18h.18v.23c0,.09-.14.18-.18.23l-.32.32c-.14.14-.23.23-.36.36,0,0-.14.09-.18.18-.09.09-.23.18-.36.18M12.35,14.27h0s-.09-.09-.09-.14v-.09c0-.14.27-.36.41-.5.14-.14.23-.27.36-.41l.32-.32.14-.14h.27s-.09.14-.09.18c-.09.14-.18.27-.23.36-.18.27-.36.5-.55.73,0,0-.09.09-.14.18-.09.09-.18.18-.32.18M12.99,14.36c-.09,0-.18.09-.27.09h-.09v-.09c0-.09,0-.14.09-.23,0-.09.14-.18.18-.23.14-.18.23-.32.36-.5,0-.09.14-.18.18-.27,0,0,.09-.14.09-.18,0-.09,0-.18.18-.09h.09s.09,0,0,.09c0,.09-.09.14-.09.23-.09.14-.14.27-.23.41-.14.23-.27.46-.41.68,0,0-.09.14-.18.18M13.54,14.4c-.09.09-.23.14-.27.14h0v-.18s0-.14.09-.18c0,0,.09-.14.14-.18.09-.14.14-.27.23-.41s.14-.27.23-.41c0,0,0-.14.09-.18,0,0,0-.14.09-.18h.09s.09,0,0,.14v.23c0,.14-.09.32-.14.46,0,.09-.09.23-.14.32,0,0,0,.09-.09.14,0,0,0,.09-.09.14,0,.09-.09.09-.14.14M13.72,14.49v-.27c0-.09.09-.23.18-.36,0,0,0-.14.09-.18,0-.14.09-.32.14-.46v-.36s.09-.09.14,0v.55c0,.18-.14.64-.14.73s-.09.23-.14.27-.36.36-.41.18"/>
  <path class="cls-3" d="M15.27,14.77c-.18,0-.27,0-.32-.18h0s-.09-.14-.09-.18v-.09s-.14-.09-.14-.18-.18-.18-.14-.36c0-.09,0-.18.18-.27,0,0,.18-.09.27-.09s.41,0,.59.41c.14.32.09.64,0,.78,0,.09-.14.14-.23.18h-.14M15.22,14.13h.09c0-.09,0-.14-.09-.18l-.09-.09v.18h.09"/>
  <path class="cls-3" d="M14.81,14.45h0c-.18,0-.27-.14-.27-.23s-.14-.23-.14-.36.09-.27.32-.36c0,0,.09,0,.14.09v.46h0v.36s-.09.09-.14.09h0l.09-.05Z"/>
  <path class="cls-3" d="M14.63,14.45h0c-.14,0-.23-.09-.27-.18,0,0-.09-.14-.14-.23,0-.09,0-.23.14-.32h.18v.14h0c0,.09,0,.14.09.23h0v.32s-.09.09-.14.09h.14v-.05Z"/>
  <path class="cls-5" d="M14.81,13.54c.09,0,.46-.14.64.32.18.41,0,.73-.09.78-.23,0-.32,0-.32-.09h0c.14,0,.14-.09.14-.14-.14.09-.23,0-.23,0v-.18h0c0,.09.09.09.09.09.09,0,.32,0,.27.18.14-.32,0-.82-.46-.78h0c.09.14,0,.23,0,.27v.14h0c-.09,0-.09-.09-.09-.14,0,0-.27-.27,0-.46"/>
  <path class="cls-5" d="M14.72,13.58s-.14.23,0,.46v.23h0c-.14,0-.18-.09-.18-.18,0,0-.27-.36.09-.55h0"/>
  <path class="cls-5" d="M14.45,13.81c0,.14,0,.23.14.32v.18h0c-.14,0-.14-.09-.14-.09,0,0-.18-.18,0-.41h0"/>
  <path class="cls-3" d="M16.41,14.77c-.09,0-.18-.09-.23-.18-.09-.14-.14-.46,0-.78.18-.36.46-.41.59-.41s.23,0,.27.09c.09.09.18.18.18.27,0,.14-.09.27-.14.36,0,.09,0,.14-.14.18v.09s0,.14-.09.14h0c0,.18-.18.23-.32.23h-.14M16.64,14.13h0v-.18l-.09.09s0,.14-.09.18h.09s0,0,0,0"/>
  <path class="cls-3" d="M17,14.45h0c.18,0,.27-.14.27-.23s.14-.23.14-.36-.09-.27-.32-.36c0,0-.09,0-.14.09v.46h0v.36s.09.09.14.09h0l-.09-.05Z"/>
  <path class="cls-3" d="M17.19,14.45h0c.14,0,.23-.09.27-.18,0,0,.09-.14.14-.23,0-.09,0-.23-.14-.32h-.18v.14h0c0,.09,0,.14-.09.23h0v.32s.09.09.14.09h-.14v-.05Z"/>
  <path class="cls-5" d="M17,13.54c-.09,0-.46-.14-.64.32-.18.41,0,.73.09.78.23,0,.32,0,.32-.09h0c-.14,0-.14-.09-.14-.14.14.09.23,0,.23,0v-.18h0c0,.09-.09.09-.09.09-.09,0-.32,0-.27.18-.14-.32,0-.82.46-.78h0c-.09.14,0,.23,0,.27v.14h0c.09,0,.09-.09.09-.14,0,0,.27-.27,0-.46"/>
  <path class="cls-5" d="M17.14,13.58s.14.23,0,.46v.23h0c.14,0,.18-.09.18-.18,0,0,.27-.36-.09-.55h0"/>
  <path class="cls-5" d="M17.37,13.81c0,.14,0,.23-.14.32v.18h0c.14,0,.14-.09.14-.09,0,0,.18-.18,0-.41h0"/>
  <polygon class="cls-5" points="20.29 18.6 16.82 19.69 16.05 20.1 15.22 19.42 11.76 18.6 10.57 14.04 15.22 14.4 16 14.95 16.73 14.4 21.34 14.04 20.29 18.6"/>
  <path class="cls-1" d="M16,20.38l-.87-.78-3.56-.82-1.28-4.93,4.97.41.73.5.64-.5,4.93-.41-1.14,4.93-3.51,1.14-.91.46ZM11.9,18.42l3.42.82.73.64.73-.36,3.33-1.09.96-4.2-4.29.36-.78.59-.87-.59-4.29-.36,1.05,4.15h0v.05Z"/>
  <polygon class="cls-5" points="20.47 20.56 16.87 21.43 16.05 21.79 15.22 21.43 11.53 20.56 10.25 15 15 14.68 16 15.27 16.91 14.68 21.66 15 20.47 20.56"/>
  <path class="cls-9" d="M16.87,14.45l-.87.55-.96-.55-5.06.36,1.37,5.93,3.79.87.91.41.91-.41,3.69-.87,1.23-5.93-5.02-.36ZM20.29,20.38l-3.47.82-.78.36-.73-.36-3.6-.82-1.19-5.2,4.42-.32,1.05.64.96-.64,4.38.32-1.09,5.2h.05Z"/>
  <path class="cls-7" d="M11.62,17.87h0c0-.5.36-.87.87-.87s.59.18.73.41l-.46.27c0-.14-.14-.18-.27-.18s-.32.18-.32.36h0c0,.23.14.36.32.36s.23-.09.32-.18l.46.27c-.14.23-.36.46-.78.46s-.87-.32-.87-.87"/>
  <path class="cls-7" d="M13.26,17.87h0c0-.5.36-.87.87-.87s.59.18.73.41l-.46.27c0-.14-.14-.18-.27-.18s-.32.18-.32.36h0c0,.23.14.36.32.36s.23-.09.32-.18l.46.27c-.14.23-.36.46-.78.46s-.87-.32-.87-.87"/>
  <polygon class="cls-7" points="15 17.05 15.54 17.05 15.91 17.64 16.27 17.05 16.82 17.05 16.82 18.69 16.27 18.69 16.27 17.87 15.91 18.46 15.91 18.46 15.5 17.87 15.5 18.69 15 18.69 15 17.05"/>
  <path class="cls-9" d="M17,17.05h.73c.41,0,.73.18.73.59h0c0,.41-.32.59-.73.59h-.18v.46h-.55v-1.64h0ZM17.69,17.87c.14,0,.23,0,.23-.18h0c0-.14-.09-.18-.23-.18h-.14v.36h.14Z"/>
  <path class="cls-9" d="M18.6,17.05h.78c.27,0,.46.09.59.18.09.09.14.23.14.36h0c0,.23-.14.41-.32.5l.36.55h-.64l-.32-.46h-.14v.46h-.55v-1.64h.09v.05ZM19.38,17.82c.14,0,.23,0,.23-.14h0c0-.09-.09-.18-.23-.18h-.23v.32s.23,0,.23,0Z"/>
  <polygon class="cls-6" points="15.09 15.82 14.95 16.18 15.22 16.41 14.86 16.36 14.72 16.68 14.63 16.36 14.27 16.32 14.59 16.14 14.49 15.77 14.77 16 15.09 15.82"/>
  <polygon class="cls-6" points="18.28 15.68 18.14 16 18.42 16.23 18.1 16.18 17.96 16.55 17.87 16.18 17.51 16.14 17.82 15.95 17.73 15.64 18.01 15.86 18.28 15.68"/>
  <polygon class="cls-6" points="18.23 19.06 18.1 19.28 18.33 19.47 18.05 19.47 17.96 19.69 17.87 19.42 17.64 19.42 17.87 19.28 17.78 19.01 18.01 19.19 18.23 19.06"/>
  <polygon class="cls-6" points="14.81 19.65 14.72 19.97 15 20.2 14.63 20.2 14.49 20.52 14.4 20.2 14.04 20.15 14.36 19.97 14.27 19.6 14.54 19.83 14.81 19.65"/>
  <polygon class="cls-6" points="16.27 18.96 16.23 19.15 16.36 19.28 16.14 19.28 16.09 19.51 16 19.28 15.82 19.28 16 19.15 15.95 18.92 16.09 19.06 16.27 18.96"/>
</svg>