<?xml version="1.0" encoding="UTF-8"?>
<svg id="Camada_1" data-name="Camada 1" xmlns="http://www.w3.org/2000/svg" viewBox="0 0 512 512">
  <defs>
    <style>
      .cls-1 {
        fill: #979f82;
      }

      .cls-2, .cls-3 {
        fill: #2b3647;
      }

      .cls-4, .cls-5 {
        fill: #fff;
      }

      .cls-5, .cls-3, .cls-6 {
        fill-rule: evenodd;
      }

      .cls-7 {
        fill: #193657;
      }

      .cls-8 {
        fill: #173557;
      }

      .cls-9, .cls-6 {
        fill: #68813c;
      }

      .cls-10 {
        fill: #d6d6cc;
      }
    </style>
  </defs>
  <path class="cls-9" d="M247.29,8.71C111.09,8.71,0,119.8,0,256s111.09,247.29,247.29,247.29,247.29-111.09,247.29-247.29S383.48,8.71,247.29,8.71"/>
  <path class="cls-8" d="M247.29,31.54c-124.02,0-224.46,100.44-224.46,224.46s100.44,224.46,224.46,224.46,224.46-100.44,224.46-224.46S371.31,31.54,247.29,31.54"/>
  <path class="cls-10" d="M56.31,261.33c-2.28-3.04-3.8-6.85-3.04-10.65,0-9.89,7.61-13.7,14.46-13.7s13.7,5.33,12.94,14.46c0,3.8-1.52,6.85-4.57,9.89l-3.04-3.8c1.52-1.52,3.04-3.8,3.04-6.09,0-6.09-4.57-9.13-8.37-9.89-4.57,0-9.13,2.28-9.13,8.37s0,5.33,2.28,6.85l-3.8,3.04v1.52h-.76Z"/>
  <path class="cls-10" d="M54.02,268.94l26.63-2.28v5.33l-25.87,2.28v-5.33h-.76ZM88.26,275.02v-5.33l-6.09-2.28h0v3.8l5.33,3.8h.76Z"/>
  <polygon class="cls-10" points="57.07 297.85 56.31 292.52 80.65 276.54 81.41 281.87 62.39 294.04 84.46 297.85 85.22 303.17 57.07 297.85"/>
  <rect class="cls-10" x="62.48" y="311.82" width="26.63" height="5.33" transform="translate(-93.95 39.11) rotate(-18.1)"/>
  <path class="cls-10" d="M79.89,349.59c-3.8-1.52-6.09-3.8-7.61-7.61-3.8-9.13,0-15.22,6.09-18.26,6.09-3.04,14.46-1.52,18.26,6.85,1.52,3.04,1.52,6.85,0,10.65l-4.57-1.52v-6.85c-3.04-6.09-8.37-6.09-12.17-4.57-3.8,1.52-6.85,6.09-4.57,12.17,0,2.28,3.04,3.8,5.33,5.33l-1.52,4.57h0l.76-.76Z"/>
  <path class="cls-10" d="M106.52,372.42c-5.33,3.8-13.7,4.57-19.02-3.04-5.33-7.61-2.28-15.22,3.04-19.02,5.33-3.8,13.7-4.57,19.02,3.04s2.28,15.22-3.8,19.02M93.59,354.15c-3.8,2.28-6.09,6.85-2.28,12.17,3.8,5.33,9.13,4.57,12.17,2.28,3.8-2.28,6.09-7.61,3.04-12.17-3.8-5.33-9.13-4.57-12.94-1.52"/>
  <rect class="cls-10" x="112.83" y="375.54" width="4.57" height="13.7" transform="translate(-231.61 184.25) rotate(-43.5)"/>
  <polygon class="cls-10" points="147.61 402.09 133.92 405.89 133.15 405.13 133.15 391.44 121.74 406.65 117.94 403.61 133.92 382.31 138.48 386.11 137.72 399.81 151.42 396 155.98 399.81 140 420.35 136.2 417.31 147.61 402.09"/>
  <rect class="cls-10" x="144.31" y="411.69" width="26.63" height="5.33" transform="translate(-280.39 345.98) rotate(-60.3)"/>
  <polygon class="cls-10" points="176.52 409.7 167.39 430.24 180.33 435.57 178.05 439.37 161.31 432.52 171.96 408.18 176.52 409.7"/>
  <rect class="cls-10" x="178.74" y="427.45" width="26.63" height="5.33" transform="translate(-276.09 482.31) rotate(-72.3)"/>
  <path class="cls-10" d="M212.29,426.44l-8.37-1.52v-4.57c8.37,1.52,14.46,3.04,22.07,4.57v4.57l-9.13-1.52-4.57,21.3h-4.57l4.57-22.07h0v-.76Z"/>
  <path class="cls-10" d="M248.05,447.74h-13.7l-2.28,4.57h-5.33l12.94-25.87h5.33l10.65,26.63h-5.33l-2.28-5.33h0ZM241.96,431.76l-5.33,11.41h9.89l-4.57-11.41Z"/>
  <path class="cls-10" d="M286.85,449.26h-6.09l-9.13-6.85h-4.57l1.52,9.13h-5.33l-3.8-25.87c3.8,0,8.37,0,12.17-1.52,6.09,0,9.89,3.04,10.65,7.61,0,3.8,0,7.61-5.33,9.13l9.13,7.61h.76v.76ZM265.55,430.24v8.37h8.37c3.04,0,4.57-3.04,3.8-4.57,0-2.28-2.28-3.8-5.33-3.8h-7.61.76Z"/>
  <path class="cls-10" d="M322.61,423.39c2.28,6.09,0,13.7-7.61,17.5-3.04,0-6.85,2.28-9.89,3.8l-9.13-25.11c3.04,0,6.85-2.28,9.89-3.8,8.37-3.04,14.46,1.52,16.74,7.61M308.16,438.61l5.33-1.52c5.33-2.28,6.09-6.85,4.57-10.65-1.52-3.8-5.33-6.85-10.65-4.57l-5.33,1.52,6.09,15.98h0v-.76Z"/>
  <path class="cls-10" d="M352.29,408.18c3.04,6.09,3.04,13.7-4.57,19.02-8.37,4.57-15.22,0-19.02-4.57-3.8-6.09-3.04-14.46,4.57-19.02,7.61-4.57,15.22,0,19.02,5.33M332.51,419.59c2.28,3.8,6.85,6.85,12.17,3.04,5.33-3.04,5.33-8.37,3.04-12.17-2.28-3.8-6.85-6.85-12.17-3.8-5.33,3.04-5.33,9.13-3.04,12.93"/>
  <path class="cls-10" d="M378.92,392.2l-5.33,5.33,5.33,5.33-3.8,3.8-18.26-19.02c3.04-3.04,6.09-6.09,9.13-8.37,9.13-9.13,22.07,4.57,12.94,13.7M370.55,393.72l5.33-5.33c4.57-4.57-1.52-11.41-6.09-6.85l-5.33,5.33,6.09,6.85Z"/>
  <path class="cls-10" d="M404.79,366.33l-8.37,11.41,2.28,4.57-3.04,4.57-13.7-25.11,3.04-4.57,28.15,6.09-3.04,4.57-5.33-1.52ZM388.05,362.52l6.09,10.65,6.09-7.61-12.17-3.04Z"/>
  <path class="cls-10" d="M428.38,335.13l-3.04,5.33-11.41,3.04-2.28,4.57,7.61,3.8-2.28,4.57-23.59-12.17c2.28-3.8,3.8-7.61,6.09-11.41,3.04-5.33,8.37-6.85,12.17-4.57,3.04,1.52,5.33,4.57,4.57,9.89l11.41-3.04h.76ZM400.22,341.98l7.61,3.8,3.8-6.85c1.52-3.04,0-5.33-1.52-6.09-1.52,0-4.57,0-6.09,2.28l-3.8,6.85Z"/>
  <path class="cls-10" d="M432.18,308.5l-3.8,12.93,3.8,3.8-1.52,5.33-21.3-19.02,1.52-5.33,28.91-3.8-1.52,5.33h-6.09v.76ZM414.68,310.78l9.13,8.37,3.04-9.13-12.17,1.52h0v-.76Z"/>
  <polygon class="cls-10" points="416.96 274.26 417.72 269.7 443.59 272.74 442.83 275.78 443.59 275.78 423.81 287.2 441.31 289.48 440.55 294.8 414.68 291 415.44 287.2 432.94 276.54 416.96 274.26"/>
  <path class="cls-10" d="M409.36,245.35l5.33,3.8v3.8h0l-5.33-2.28v-5.33h0ZM443.59,241.54v-5.33l-25.87,12.94v5.33l27.39,10.65v-5.33l-5.33-2.28v-13.7l4.57-2.28h-.76ZM434.46,256l-11.41-4.57,10.65-5.33v9.89h.76Z"/>
  <path class="cls-10" d="M180.33,94.69c0,2.28-2.28,3.8-4.57,4.57-5.33,2.28-9.13,0-10.65-3.8-1.52-3.8,0-8.37,4.57-10.65h6.09v2.28h-5.33c-3.8,1.52-3.8,4.57-3.04,6.85,0,2.28,3.04,4.57,6.85,3.04,1.52,0,2.28-1.52,3.04-3.04h3.04v.76Z"/>
  <path class="cls-10" d="M205.44,81c0,3.8,0,8.37-6.09,9.89-5.33,1.52-8.37-1.52-9.89-6.09,0-3.8,0-8.37,6.09-9.89,5.33-1.52,9.13,2.28,9.89,6.09M193.26,84.8c0,2.28,3.04,4.57,6.09,3.8,3.8,0,4.57-3.8,3.8-6.09,0-2.28-3.04-5.33-6.09-3.8-3.8,0-4.57,3.8-3.8,6.85"/>
  <polygon class="cls-10" points="221.42 71.11 222.94 83.28 230.55 82.52 231.31 85.56 219.9 86.32 218.37 71.11 221.42 71.11"/>
  <path class="cls-10" d="M254.9,84.8h-11.41v-15.98h11.41v3.04h-8.37v3.04h8.37v3.04h-8.37v3.04h8.37v3.04h0v.76ZM253.37,65.02h-3.04l-1.52,3.04h2.28l2.28-3.04h0Z"/>
  <path class="cls-10" d="M281.53,76.43s-2.28-2.28-3.8-2.28c-3.04,0-5.33,1.52-6.09,4.57,0,2.28,0,5.33,4.57,6.09h3.8v-3.04h-3.8v-2.28h6.85v6.85c-3.04,1.52-4.57,2.28-7.61,1.52-6.09,0-7.61-5.33-6.85-9.13,0-4.57,3.8-7.61,9.13-6.85,2.28,0,3.8,1.52,5.33,3.04l-2.28,1.52h.76Z"/>
  <rect class="cls-10" x="290.42" y="83.11" width="15.22" height="3.04" transform="translate(137.75 349.76) rotate(-74.7)"/>
  <path class="cls-10" d="M327.18,94.69c-1.52,3.8-5.33,6.09-10.65,4.57-5.33-2.28-6.09-6.85-4.57-10.65,1.52-3.8,5.33-6.85,10.65-4.57,5.33,2.28,6.09,6.85,4.57,10.65M315.77,89.37c0,2.28,0,5.33,3.04,6.85,3.04,1.52,5.33,0,6.85-3.04,0-2.28,0-5.33-2.28-6.85-3.04-1.52-6.09,0-6.85,3.04"/>
  <path class="cls-9" d="M157.5,354.91c23.59,23.59,55.54,36.52,89.02,36.52s64.68-12.93,89.02-36.52c23.59-23.59,36.52-55.54,36.52-89.02v-136.2h-73.81l-10.65,18.26h65.44v117.18c0,28.91-11.41,55.54-31.2,75.33-19.78,19.78-47.17,31.2-75.33,31.2s-55.54-11.41-75.33-31.2c-2.28-2.28-5.33-5.33-7.61-8.37l-9.89,16.74c1.52,1.52,2.28,3.04,3.8,3.8"/>
  <path class="cls-4" d="M156.74,325.24c-11.41-17.5-17.5-37.28-17.5-58.59v-117.18h136.2l10.65-18.26H120.98v136.2c0,28.15,9.13,54.02,25.87,76.09l9.89-17.5h0v-.76Z"/>
  <path class="cls-2" d="M295.22,247.63c-2.28-3.04-25.11-21.3-35-27.39h-6.85l-4.57-3.8,2.28,4.57h-2.28v1.52h0v1.52h0v-1.52h-2.28l2.28-4.57-4.57,4.57h-6.85c-9.89,6.09-32.72,25.11-35,28.15v2.28c0,.76,2.28,1.52,4.57,1.52s7.61,0,9.89-3.04h1.52c-3.8,4.57-7.61,9.13-9.13,12.17v3.8h1.52c3.8,0,9.89-3.8,10.65-4.57,0,0,1.52-1.52,3.04-3.04-3.04,6.09-4.57,10.65-4.57,12.94s0,3.04,2.28,3.8h2.28c1.52,0,3.8,0,5.33-1.52,1.52-1.52,4.57-6.09,6.85-10.65,0,3.04,0,6.85-1.52,9.89h0c0,2.28,1.52,8.37,3.8,9.13h0s2.28,0,3.04-2.28c1.52-2.28,2.28-5.33,3.04-8.37v4.57c0,4.57,1.52,10.65,4.57,10.65s5.33-6.09,6.09-12.17c0,2.28,1.52,3.8,2.28,5.33,1.52,2.28,2.28,2.28,3.04,2.28s0,0,0,0c3.04,0,4.57-6.85,3.8-9.13h0c0-3.8,0-7.61-1.52-10.65,2.28,4.57,4.57,9.13,6.85,10.65,1.52,1.52,3.04,1.52,5.33,1.52h2.28c1.52,0,2.28-2.28,2.28-3.8,0-2.28-2.28-6.85-4.57-12.94,1.52,1.52,2.28,3.04,3.04,3.04,1.52,0,7.61,4.57,10.65,4.57s1.52,0,1.52,0v-3.8c-1.52-3.04-4.57-7.61-9.13-12.17h1.52c2.28,1.52,6.85,3.04,9.89,3.04s3.8,0,4.57-1.52v-2.28"/>
  <path class="cls-5" d="M290.66,248.39h1.52c-5.33-4.57-23.59-19.78-32.72-25.11h-1.52l2.28,3.8,3.04,6.09c1.52,2.28,9.13,7.61,13.7,10.65,0,0,2.28,1.52,3.04,2.28,2.28,1.52,7.61,3.04,10.65,3.04"/>
  <path class="cls-5" d="M286.85,261.33h0c-3.8-9.89-19.78-25.87-25.11-31.2l-4.57-3.04c0,1.52,1.52,4.57,3.04,9.13,2.28,5.33,15.98,19.78,18.26,21.3,1.52,0,6.85,3.8,9.13,4.57"/>
  <path class="cls-5" d="M273.16,270.46h2.28c0-3.04-5.33-16.74-13.7-28.91h0l-9.89-17.5h0v3.8c0,2.28,1.52,5.33,2.28,7.61,1.52,4.57,3.8,12.17,5.33,16.74,2.28,6.09,7.61,16.74,9.89,18.26,0,0,2.28,1.52,3.8,1.52"/>
  <path class="cls-5" d="M257.94,277.3h0c1.52-1.52,2.28-4.57,1.52-6.09h0c-1.52-18.26-6.09-32.72-7.61-38.04l-3.8-4.57c0,6.09,1.52,17.5,1.52,21.3v4.57c0,5.33,2.28,15.98,6.09,22.07q0,1.52,1.52,1.52"/>
  <path class="cls-3" d="M272.4,231.65c2.28,3.04,0,7.61-3.8,5.33-3.8-2.28,1.52,1.52,1.52,1.52,0,0,8.37-2.28,3.04-6.09h0"/>
  <path class="cls-3" d="M281.53,238.5c2.28,3.04,0,6.85-3.8,4.57-3.8-2.28,0,1.52,0,1.52,0,0,10.65,0,4.57-4.57h-1.52"/>
  <path class="cls-3" d="M267.07,236.22c0,1.52,0,6.09-5.33,3.8-1.52,0,0,0,0,0v1.52c1.52,0,7.61,2.28,6.85-3.8h0"/>
  <path class="cls-3" d="M274.68,244.59c0,1.52,0,6.09-5.33,3.8-2.28-1.52-2.28,0-2.28,0l1.52,1.52s7.61,1.52,6.09-4.57h0"/>
  <path class="cls-3" d="M256.42,242.3c0,1.52,6.85,3.04,5.33-1.52v3.8h-5.33"/>
  <path class="cls-3" d="M260.22,252.2c0,1.52,9.13,3.8,7.61-1.52,1.52,1.52,1.52,3.8,0,4.57-2.28,1.52-6.09,0-7.61-1.52v-1.52"/>
  <path class="cls-3" d="M256.42,243.07c0,1.52-1.52,3.8-2.28,3.8-1.52,0-3.04,0-3.8-2.28,0,3.04,1.52,3.8,3.8,3.04,2.28,0,3.04-3.04,2.28-5.33"/>
  <path class="cls-3" d="M258.7,255.24c0,1.52,0,4.57-2.28,4.57s-4.57-1.52-4.57-3.04c0,3.04,2.28,4.57,5.33,4.57s3.04-3.04,2.28-5.33"/>
  <path class="cls-5" d="M202.39,248.39h-1.52c5.33-4.57,23.59-19.78,32.72-25.11h1.52l-2.28,3.8-3.04,6.09c-1.52,2.28-9.13,7.61-13.7,10.65,0,0-2.28,1.52-3.04,2.28-2.28,1.52-7.61,3.04-10.65,3.04"/>
  <path class="cls-5" d="M206.96,261.33h0c3.8-9.89,19.78-25.87,25.11-31.2l4.57-3.04c0,1.52-1.52,4.57-3.04,9.13-2.28,5.33-15.98,19.78-18.26,21.3-1.52,0-6.85,3.8-9.13,4.57"/>
  <path class="cls-5" d="M220.66,270.46h-2.28c0-3.04,5.33-16.74,13.7-28.91h0l9.89-17.5h0v3.8c0,2.28-1.52,5.33-2.28,7.61-1.52,4.57-3.8,12.17-5.33,16.74-2.28,6.09-7.61,16.74-9.89,18.26,0,0-2.28,1.52-3.8,1.52"/>
  <path class="cls-5" d="M235.87,277.3h0c-1.52-1.52-2.28-4.57-1.52-6.09h0c1.52-18.26,6.09-32.72,7.61-38.04l3.8-4.57c0,6.09-1.52,17.5-1.52,21.3v4.57c0,5.33-2.28,15.98-6.09,22.07q0,1.52-1.52,1.52"/>
  <path class="cls-5" d="M246.53,281.11s-1.52-2.28-2.28-7.61v-44.89l1.52-2.28h1.52c0,4.57,2.28,32.72,2.28,40.33s-3.8,15.22-4.57,15.22"/>
  <path class="cls-3" d="M220.66,231.65c-2.28,3.04,0,7.61,3.8,5.33,3.8-2.28-1.52,1.52-1.52,1.52,0,0-8.37-2.28-3.04-6.09h0"/>
  <path class="cls-3" d="M211.53,238.5c-2.28,3.04,0,6.85,3.8,4.57,3.8-2.28,0,1.52,0,1.52,0,0-10.65,0-4.57-4.57h1.52"/>
  <path class="cls-3" d="M225.98,236.22c0,1.52,0,6.09,5.33,3.8,1.52,0,0,0,0,0v1.52c-1.52,0-7.61,2.28-6.85-3.8h0"/>
  <path class="cls-3" d="M218.37,244.59c0,1.52,0,6.09,5.33,3.8,2.28-1.52,2.28,0,2.28,0l-1.52,1.52s-7.61,1.52-6.09-4.57h0"/>
  <path class="cls-3" d="M236.63,242.3c0,1.52-6.85,3.04-5.33-1.52v3.8h5.33"/>
  <path class="cls-3" d="M233.59,252.2c0,1.52-9.13,3.8-7.61-1.52-1.52,1.52-1.52,3.8,0,4.57,2.28,1.52,6.09,0,7.61-1.52v-1.52"/>
  <path class="cls-3" d="M237.4,243.07c0,1.52,1.52,3.8,2.28,3.8,1.52,0,3.04,0,3.8-2.28,0,3.04-1.52,3.8-3.8,3.04-2.28,0-3.04-3.04-2.28-5.33"/>
  <path class="cls-3" d="M235.11,255.24c0,1.52,0,4.57,2.28,4.57s4.57-1.52,4.57-3.04c0,3.04-2.28,4.57-5.33,4.57s-3.04-3.04-2.28-5.33"/>
  <path class="cls-3" d="M244.24,246.11c0,2.28,2.28,3.04,3.04,3.04,0,0,2.28,0,3.04-2.28h0s-1.52,3.04-3.04,3.04c-2.28,0-3.04-1.52-3.04-4.57"/>
  <path class="cls-3" d="M244.24,258.28c0,3.04,3.04,3.8,3.8,3.8s3.04,0,3.04-3.04v1.52s-1.52,3.04-3.8,2.28c-1.52,0-3.8,0-3.8-5.33"/>
  <path class="cls-5" d="M253.37,227.09c-2.28,3.04-3.8,4.57-3.8,4.57h0c2.28,0,3.04-1.52,3.04-1.52v-3.04"/>
  <path class="cls-4" d="M449.68,116.76h0c0-1.52-4.57-2.28-4.57-2.28-6.09-1.52-29.67-3.8-34.24-3.8-9.13,0-18.26,0-27.39,1.52,0,0-21.3,1.52-25.87,2.28-4.57,0-9.13,1.52-14.46,3.04,0,0-27.39,6.85-39.57,12.17-3.8,1.52-6.85,3.04-9.13,5.33-3.8,3.8-10.65,14.46-10.65,14.46-1.52,2.28-7.61,12.94-8.37,14.46-1.52,1.52-8.37,3.04-9.13,3.04h-3.04s-2.28,1.52-3.04,0c0,0-2.28-1.52-2.28-2.28s5.33-7.61,5.33-7.61c0,0-2.28-2.28,0-3.04h4.57v-7.61h-7.61c-1.52,0,6.09-5.33,5.33-5.33s-5.33-5.33-6.09-6.09h0c-1.52,0-5.33,6.09-5.33,6.09v-9.13h-11.41v7.61c0,1.52-3.8-4.57-6.09-5.33l-6.09,6.85s3.04,1.52,4.57,4.57c0,1.52-6.85,0-6.85,0,0,0-3.04,6.09,0,7.61h6.09s-2.28,1.52-2.28,2.28c0,2.28,3.8,6.85,3.8,6.85,0,0-1.52,3.8-2.28,3.8-3.04,0-19.02-15.98-19.02-15.98-1.52,0-2.28-2.28-2.28-3.8,0,0-6.85-11.41-10.65-13.7-3.04-2.28-11.41-5.33-11.41-5.33-12.17-4.57-38.8-11.41-38.8-11.41-4.57-1.52-9.89-1.52-16.74-2.28h-15.22c-3.04,0-25.11-1.52-33.48-1.52h0c-7.61,0-15.98,0-22.83,2.28-3.8,0-7.61,0-10.65,2.28-1.52,0-2.28,0-3.04,1.52v2.28c0,1.52,3.8,2.28,5.33,3.04h1.52v1.52s0,1.52,1.52,3.04h0v3.8c0,1.52,3.8,3.04,8.37,3.04h2.28l-1.52,2.28c-1.52,1.52,0,3.04,0,4.57,0,0,3.8,0,5.33,1.52h1.52v1.52c0,1.52,0,2.28,2.28,3.8,2.28,1.52,3.8,1.52,5.33,1.52h1.52v1.52c0,1.52,0,2.28,3.04,3.8h0v3.04c0,1.52,5.33,2.28,6.85,2.28h1.52v3.04s1.52,1.52,3.04,1.52h1.52c1.52,0,0,0,0,0h0c1.52,0,3.04,0,3.8,1.52,0,0,2.28,1.52,3.8,1.52h1.52v3.8s1.52,1.52,2.28,2.28h2.28s1.52,0,2.28,1.52h6.85v1.52c0,2.28,0,3.8,2.28,4.57,3.8,1.52,7.61,1.52,11.41,1.52h1.52v1.52c0,3.8,4.57,4.57,10.65,5.33h3.04l-1.52,2.28c-2.28,3.8,0,4.57,0,5.33h8.37v1.52c0,3.04,4.57,3.8,6.09,3.8s0,0,0,0h1.52v4.57s2.28,1.52,3.8,1.52h1.52v7.61h2.28c2.28,0,0,0,1.52,0h1.52v1.52c0,2.28,0,3.8,1.52,5.33h6.09c0,3.8,1.52,6.09,3.8,6.09h3.8c0,2.28,1.52,3.04,3.04,3.04h6.09c0,3.04,1.52,3.04,2.28,3.04s3.04,0,4.57-2.28h1.52s0,1.52,2.28,1.52h1.52c1.52,0,3.04-1.52,4.57-3.04h2.28c1.52,0,2.28,0,3.8-1.52h0v1.52h0c4.57-3.8,15.98-3.04,18.26-2.28l1.52-3.8s2.28,3.8,3.8,3.04c0,0,16.74,7.61,16.74,6.85v-5.33h2.28s0,1.52,1.52,2.28h3.8v-1.52l1.52,1.52c1.52,1.52,2.28,3.04,4.57,3.8h4.57c2.28,1.52,3.8,2.28,5.33,2.28s0,0,0,0c0,0,1.52,0,1.52-2.28v-2.28h3.8c.76,0,0,0,0,0h5.33s2.28,0,2.28-3.8v-2.28h1.52s2.28,2.28,3.04,2.28h1.52s1.52-1.52,0-5.33v-2.28h7.61c1.52,0,1.52-3.04,0-5.33v-1.52h3.04c1.52,0,3.04,0,3.8-1.52v-7.61h3.04c1.52,0,3.04,0,4.57-1.52,1.52,0,0-2.28,0-3.8h0l1.52-1.52,1.52-1.52h0c0-1.52,1.52-1.52,2.28-1.52h0s2.28,0,2.28-3.8v-1.52h0c5.33,0,9.13-1.52,9.89-5.33h1.52c3.8,0,6.85,0,7.61-3.04,0-1.52,2.28-1.52,4.57-1.52h1.52s1.52,0,1.52-2.28h0c2.28,0,4.57,0,6.85-1.52,0,0,1.52-1.52,0-4.57h0v-1.52c3.04,0,3.8-1.52,3.8-3.04v-1.52h1.52c2.28,0,5.33,0,6.09-2.28v-3.04h1.52c3.8,0,7.61,0,9.89-2.28,0,0,1.52-1.52,1.52-2.28v-2.28l-1.52-1.52h2.28c2.28,0,7.61-2.28,8.37-3.8.76-1.52-1.52-3.04-1.52-3.04h0c1.52-1.52,2.28-2.28,2.28-3.04,0-1.52,1.52-1.52,3.04-1.52h3.04c6.85-2.28,5.33-6.85,5.33-6.85,3.04,0,5.33-1.52,4.57-4.57,0,0,8.37,0,10.65-4.57,1.52-2.28,0-3.8,0-3.8,0,0,6.85,0,6.85-4.57"/>
  <path class="cls-2" d="M259.46,208.06s3.8,0,2.28-2.28c-1.52-2.28-3.04,0-4.57,0s-4.57,0-4.57,2.28,4.57,0,6.85,0"/>
  <path class="cls-2" d="M237.4,210.35h3.8c2.28,0,0-2.28-1.52-3.04h0s-2.28-3.04-3.04-1.52c0,0,0,3.04,1.52,3.04"/>
  <path class="cls-2" d="M251.09,218.72c1.52,0,1.52-3.04,1.52-3.8,0-1.52-2.28,0-1.52,0v2.28"/>
  <path class="cls-3" d="M268.59,150.24v-3.04s-1.52-1.52-2.28-1.52h-4.57l3.8-3.04v-2.28s-1.52-2.28-2.28-3.04c-2.28-2.28-3.8-3.04-4.57-3.8h-2.28c-1.52,1.52-2.28,3.04-3.04,3.8h0v-6.85h-12.17s-1.52,0-1.52,1.52v5.33h0s-1.52-2.28-3.04-3.8h-2.28s-2.28,1.52-4.57,3.8c-2.28,2.28-1.52,2.28-2.28,3.04v1.52l3.8,3.04h-6.85v8.37h5.33-2.28c0,1.52,2.28,4.57,3.04,6.09h0c0,2.28,0,4.57-6.85,0,0,3.04,3.8,5.33,8.37,6.09,0-1.52,0-3.8,1.52-3.8h0c1.52-1.52,1.52,0,0-3.04,0,0,0-1.52-1.52-2.28,0,0-1.52-2.28-2.28-3.04l1.52-2.28v-1.52h-6.85v-2.28s0-1.52,1.52,0h6.09v-1.52q0-1.52-1.52-2.28l-2.28-2.28v-1.52h0c1.52-2.28,2.28-3.04,3.04-3.8h0s3.04,3.8,5.33,4.57h0v-8.37h7.61v9.89s2.28,0,3.04-3.04c0,0,1.52-2.28,2.28-3.04h0s2.28,1.52,3.04,3.04h0v2.28l-2.28,3.04s-1.52,1.52-1.52,2.28,2.28,0,3.04,0h5.33v1.52h0s0,1.52-1.52,0h-4.57v1.52l1.52,2.28s-1.52,2.28-2.28,3.04c-2.28,2.28-2.28,4.57-2.28,4.57l1.52,1.52h0s1.52,2.28,2.28,3.8c3.8-1.52,7.61,0,8.37-3.8-6.85,2.28-8.37,0-8.37-1.52s3.04-6.09,4.57-7.61h0l-2.28-1.52h5.33v-3.04"/>
  <path class="cls-3" d="M243.48,166.22c0-3.04,0-4.57,3.04-4.57s3.04,0,3.04,4.57c1.52,0,3.04-1.52,4.57-2.28,0,1.52-1.52,3.04-3.04,3.8-1.52.76-2.28,3.04-3.8,6.09h0c0-3.8-2.28-6.09-3.8-6.85-1.52,0-2.28-2.28-3.04-3.8,1.52,0,3.04,1.52,4.57,2.28"/>
  <path class="cls-3" d="M241.96,160.13s-1.52,0-4.57-3.04h0v2.28h1.52c0,1.52,1.52,3.04,3.8,0v-1.52"/>
  <path class="cls-3" d="M250.33,160.13s1.52,0,4.57-3.04h0v2.28h-1.52c0,1.52-1.52,3.04-3.8,0v-1.52"/>
  <path class="cls-2" d="M250.33,221c1.52,0,2.28-1.52,0-3.04-2.28-2.28-1.52-3.04-1.52-3.8s0-1.52,0,0v5.33l1.52,2.28"/>
  <path class="cls-2" d="M239.68,223.28s0,1.52-1.52,2.28v2.28c1.52,0,3.04,0,3.04-2.28s0-3.04,1.52-3.04c2.28,0,1.52-1.52,1.52-3.04v-3.8c0-2.28,1.52-3.8,1.52-4.57,0,0-2.28,0-3.04,1.52,0,1.52-1.52,2.28-1.52,3.8s0,2.28-1.52,2.28-1.52,0-2.28,2.28"/>
  <path class="cls-2" d="M451.2,116.76h0c0-1.52-3.8-2.28-5.33-3.04-6.85-1.52-13.7-2.28-20.54-3.04-14.46-1.52-29.67,0-44.13,0-7.61,0-15.22,0-23.59,1.52-5.33,0-10.65,2.28-15.98,3.04-12.94,3.04-25.87,6.09-38.04,11.41-3.04,1.52-6.85,3.04-9.89,5.33-3.8,4.57-7.61,9.89-10.65,14.46-1.52,2.28-3.04,5.33-4.57,7.61-1.52,2.28-2.28,4.57-3.8,6.85,0,1.52-2.28,1.52-4.57,2.28h-2.28s-6.85,4.57-7.61-3.04c-1.52,0,0,2.28-2.28,4.57-1.52,0-3.04,1.52-2.28,3.04,0,0,5.33,0,6.09,1.52v3.04c0,2.28,4.57-1.52,3.8-2.28-1.52-2.28,4.57-3.04,6.09-3.8,3.04,0,4.57-1.52,6.09-4.57,3.04-6.09,11.41-22.07,18.26-28.91,3.04-3.04,15.22-7.61,27.39-10.65,12.17-3.8,24.35-6.09,28.91-7.61,3.8,0,13.7-1.52,26.63-2.28h14.46s-1.52,0-2.28,1.52h-14.46c-3.8,0-6.85,0-9.89,1.52h0c0,1.52-3.8,1.52-5.33,1.52h-7.61c1.52,3.04-6.85,3.04-8.37,3.04h0c1.52,2.28-5.33,3.04-6.09,3.04h-4.57c0,2.28-4.57,2.28-6.85,2.28h-3.04c0,1.52-5.33,2.28-6.09,2.28h0c1.52,3.04-8.37,4.57-9.89,5.33h-1.52c2.28,0,0,1.52-1.52,2.28h-1.52,1.52v1.52s-1.52,0-3.04,1.52h-1.52v1.52s-1.52,1.52-2.28,1.52h-1.52c1.52,0,0,2.28,0,2.28,0,0-2.28,0-3.04,1.52h0s1.52,0,2.28,2.28c0,2.28-4.57,3.04-5.33,3.8h0s1.52,0,2.28,2.28h0c0,1.52-2.28,1.52-3.04,1.52h-2.28s-1.52,0,0,0c0,0,1.52,0,1.52,1.52v2.28h-4.57v3.04c0,2.28-4.57,0-5.33,0h0s1.52,4.57,0,3.04c0,0-2.28-1.52-3.04-2.28h0c0,1.52,1.52,3.04,0,2.28h-3.04,5.33c0-1.52,3.04,0,3.8.76h2.28c.76,0,3.04,0,3.04,1.52s0,2.28-1.52,2.28h-4.57c-1.52,0-3.04-1.52-3.8-3.04h0s0,1.52,1.52,1.52c0,0,1.52,0,2.28,1.52,0,1.52,1.52,3.04,1.52,4.57s0,3.04-1.52,3.8c-1.52.76-3.04-4.57-3.04-5.33q0-1.52,0,0v3.8c0,1.52-1.52,2.28-2.28,1.52-.76-.76-1.52-3.04-1.52-4.57h0v12.17c1.52,3.04,1.52,6.85,2.28,9.89,0,2.28,1.52,3.8,1.52,6.09s1.52,4.57,1.52,6.85v1.52h-1.52c-1.52,0-2.28-1.52-3.04-3.04,0-1.52-1.52-3.04-1.52-5.33v-5.33c0-2.28,0-5.33-1.52-7.61v-11.41,1.52c0,1.52-3.04,6.85-1.52,9.89v17.5c0,1.52,3.04,4.57,3.04,3.04v-2.28h0s1.52,1.52,2.28,2.28c1.52,1.52,3.8,1.52,5.33,0,1.52,2.28,2.28,3.8,4.57,4.57h4.57c2.28,1.52,4.57,3.04,6.85,2.28,1.52,0,2.28-2.28,2.28-3.8h6.85c3.04,0,3.8-2.28,3.8-4.57,1.52,0,3.8,2.28,6.09,0,2.28-2.28,1.52-3.8,1.52-6.09,2.28,0,4.57,1.52,6.85,0,2.28,0,1.52-4.57,1.52-6.09,2.28,0,5.33,0,6.09-2.28v-6.09c2.28,0,5.33,0,7.61-1.52,2.28-1.52,1.52-3.8,0-5.33,0,0,1.52,0,2.28-1.52v-1.52h2.28c2.28,0,3.04-3.04,3.04-5.33,4.57,0,9.89,0,10.65-6.09,3.8,0,7.61,0,9.13-3.8,0,0,5.33,0,6.09-1.52,1.52,0,2.28-1.52,2.28-3.04,2.28,0,5.33,0,7.61-1.52,2.28-1.52,2.28-3.8,1.52-6.09,2.28,0,4.57-1.52,4.57-3.8,3.04,0,9.13-1.52,7.61-5.33,3.8,0,7.61,0,10.65-2.28,2.28-1.52,3.04-4.57,0-6.09,3.8,0,11.41-2.28,8.37-6.85,1.52,0,2.28-1.52,3.04-3.04h6.09c3.04,0,6.85-3.8,6.09-6.85,2.28,0,4.57-2.28,4.57-4.57,3.8,0,12.17-3.04,11.41-7.61,3.04,0,6.85-1.52,6.85-5.33M394.9,112.95h37.28s1.52,0,0,0h-36.52s-3.8,0-3.04-1.52M335.55,127.41h6.85c1.52,0,2.28-1.52,3.04-2.28h6.09s1.52-1.52,2.28-1.52h17.5s2.28,0,1.52,0c0,2.28-2.28,3.04-4.57,3.8-1.52,0-4.57,0-6.09,1.52-1.52,1.52-3.8,3.8-6.09,3.8h0c-5.33,0-9.89,1.52-15.22,0h-6.09s0-1.52,1.52-1.52M327.18,130.45h28.15v3.04s-1.52,1.52-3.04,1.52h-22.07s-3.04,0-3.8-1.52v-1.52s-1.52,0-1.52-1.52,1.52,0,2.28,0M299.03,190.56h-6.09s-1.52,0-2.28-1.52c0,0-2.28,0-3.04-1.52-1.52,0,0-2.28,0-3.04,0,0,2.28-1.52,3.04,0,0,0,2.28,1.52,3.04,1.52,2.28,0,5.33,1.52,7.61,1.52s3.8,0,3.8,2.28-4.57,3.04-6.85,2.28M299.03,196.65s-2.28,0-3.8-1.52c-1.52,0-2.28-1.52-2.28-3.04v-2.28h1.52c1.52,0,2.28,0,3.8,1.52,0,0,1.52,1.52,1.52,3.04v3.04M299.79,184.48h-4.57s-2.28,0-3.04-1.52c0,0-2.28-1.52-1.52-3.04,1.52-2.28,4.57-1.52,6.85,0,3.04,0,6.09,1.52,9.89,2.28h6.09v2.28h-12.17M311.96,179.91h-8.37c-1.52,0-3.04,0-5.33-1.52-1.52,0-5.33-1.52-3.04-3.04h3.8c1.52,0,2.28,0,3.8,1.52,2.28,0,5.33,0,7.61,1.52h5.33v2.28c0,1.52-3.04,1.52-3.8,1.52M313.48,175.35h-11.41c-1.52,0-2.28,0-2.28-2.28v-2.28h18.26s3.04,0,2.28,0c0,0,0,1.52-1.52,1.52s-3.8,1.52-5.33,1.52M316.53,170.02h-12.94v-3.8q0-1.52,2.28-1.52h17.5s1.52,1.52,1.52,3.04-1.52,1.52-3.04,2.28h-5.33M323.37,163.17h-12.94s-3.04,0-3.04-1.52v-3.8s0-1.52,1.52-1.52h18.26v3.04c0,1.52-3.04,2.28-4.57,2.28M325.66,154.8h-14.46v-3.8c0-1.52,2.28-1.52,3.8,0h25.11c1.52,0,0,1.52,0,2.28-3.8,3.04-8.37,3.04-12.94,3.04M339.35,147.19c-2.28,0-4.57,1.52-6.09,1.52h-15.98s-2.28,0-2.28-1.52,2.28-1.52,2.28-1.52c0,0,1.52,0,1.52-1.52h18.26s7.61-1.52,6.85,0c0,0-1.52,1.52-2.28,2.28,0,0-1.52,0-3.04,1.52M342.4,141.87h-21.31c-1.52,0-2.28,0-1.52-2.28,0,0,2.28-1.52,3.04-2.28h9.89c3.04,0,6.85,0,9.89-1.52h2.28c1.52,0,3.04,0,3.8,1.52,0,2.28,0,3.8-2.28,3.8h-4.57M317.29,134.26h0c1.52,0,3.04-1.52,4.57,0,0,0,3.04,0,2.28,2.28h-8.37v-1.52M306.64,139.59h0s2.28-1.52,3.8-1.52h6.85s2.28,0,2.28,1.52-3.8,1.52-4.57,1.52h-7.61M302.83,144.91v-2.28h9.89s3.8,0,3.8,1.52-2.28,2.28-3.8,3.04h-10.65s-2.28,0,0-1.52M300.55,149.48v-1.52h7.61v1.52h-9.89v-1.52M295.98,155.56s1.52,0,2.28-1.52h0v-1.52h9.13s1.52,1.52,0,2.28c0,1.52-2.28,1.52-3.8,1.52h-9.89v-1.52M294.46,160.13v-1.52h11.41v2.28h-11.41M294.46,163.17h6.85c1.52,0,2.28,2.28,1.52,3.8h-4.57s-1.52-1.52-2.28-1.52c0,0-1.52,0-1.52-1.52v-1.52M289.14,167.74h4.57l1.52,1.52c1.52,2.28-2.28,1.52-3.04,1.52h-2.28c1.52,0,2.28,1.52,3.8,1.52s4.57,0,3.8,2.28c-1.52,1.52-5.33,0-6.85,0h0s-1.52,0,0-1.52v-3.8M284.57,175.35v-2.28h3.04s6.09,1.52,4.57,3.04c0,1.52-3.8,1.52-5.33,1.52h-3.8M282.29,181.43h0c-1.52,0-3.04,0-3.8-1.52v-3.04h2.28c1.52,0,2.28,0,3.8,1.52h3.04s1.52,0,1.52,1.52c0,3.04-6.09,1.52-6.85,1.52M282.29,186.76h4.57s1.52,0,2.28,1.52c0,0,1.52,1.52,1.52,3.04s2.28,4.57,0,3.8h0c-1.52,0-3.04,0-4.57-1.52-1.52,0-3.04-1.52-3.8-3.04v-2.28M289.9,198.93h-3.04s-1.52-1.52-2.28-2.28c0,0-1.52-1.52-2.28-3.04v-1.52h0s1.52,0,2.28,1.52h4.57v3.8M279.24,195.89v-1.52s0-1.52,1.52-1.52c0,0,1.52,1.52,1.52,2.28,0,1.52,0,2.28,1.52,3.8,0,0,0,3.8-1.52,3.04-1.52,0-2.28-2.28-2.28-3.04v-2.28M279.24,200.46h0M270.11,201.98s-1.52-2.28,0-3.8v-2.28c0-1.52,1.52,0,2.28,0h1.52s.51.25,1.52.76h2.28v3.8s0,1.52-1.52,0c-1.52,0-2.28-3.04-2.28-5.33h0v3.8c0,2.28-1.52,1.52-2.28,0M285.33,230.89s-1.52,1.52-2.28,1.52h0c-1.52,0-2.28-1.52-3.04-2.28,0,0,0-1.52-1.52-2.28-2.28-3.8-3.8-8.37-4.57-12.94,0-1.52,0-3.04-1.52-4.57v-3.8l1.52-1.52h1.52v2.28c0,1.52,0,3.04,1.52,5.33,1.52,3.04,2.28,6.85,3.8,9.89,0,1.52,1.52,3.04,2.28,4.57v4.57M292.94,233.93h-2.28c-1.52,0-2.28-1.52-2.28-2.28v-6.09c0-1.52-1.52-3.04-2.28-4.57-1.52-3.04-3.04-6.85-3.8-9.89v-4.57h3.04c1.52,0,1.52,2.28,2.28,3.04,1.52,3.04,3.04,6.09,4.57,9.89,0,1.52,2.28,3.8,3.04,5.33,0,0,0,1.52,1.52,3.04v1.52s1.52,2.28,1.52,3.8v3.8M298.27,230.13h-2.28s-1.52,0-2.28-1.52c0,0-1.52-1.52-1.52-3.04s-1.52-2.28-2.28-3.8c-1.52-2.28-3.04-5.33-3.8-7.61,0-1.52-1.52-3.04-2.28-4.57,0-1.52,0-2.28-1.52-3.8,0,0-1.52-1.52,0-2.28h3.8v2.28c0,1.52,1.52,3.04,2.28,4.57,1.52,3.04,3.04,6.09,5.33,9.13,0,1.52,2.28,3.04,3.04,4.57,0,0,0,1.52,1.52,2.28v3.8M303.59,230.89h-3.04s-1.52-1.52-2.28-2.28c-1.52-2.28-3.04-3.8-3.8-6.09-2.28-4.57-5.33-8.37-6.85-12.94,0-1.52-1.52-3.04-2.28-3.8,0,0-2.28-3.04-1.52-3.8h3.04c.76,0,1.52,2.28,2.28,3.8,0,1.52,1.52,3.04,2.28,4.57v1.52c1.52,1.52,2.28,3.8,3.8,5.33s2.28,3.8,3.8,5.33c0,0,1.52,1.52,2.28,3.04,0,1.52,1.52,3.04,1.52,4.57v2.28M311.2,227.85h0c-1.52,0-3.04,0-3.8-1.52-3.04-1.52-5.33-5.33-6.85-7.61-2.28-3.8-4.57-7.61-6.85-11.41,0,0,0-1.52-1.52-3.04,0-1.52-1.52-3.04,0-3.8v-1.52s0-1.52,1.52,0c0,0,1.52,2.28,1.52,3.04,1.52,1.52,2.28,3.8,3.8,5.33,2.28,2.28,3.8,5.33,6.09,7.61,1.52,2.28,3.8,3.8,5.33,5.33s1.52,3.04,1.52,5.33v3.04M319.57,221.76h-1.52c-1.52,0-3.04,0-4.57-1.52-1.52,0-2.28-1.52-3.04-2.28l-1.52-1.52-3.04-3.04c-2.28-2.28-3.8-4.57-6.09-6.85,0-1.52-2.28-3.04-3.04-4.57,0-1.52-1.52-2.28-2.28-3.8,0,0-1.52-2.28,0-2.28h1.52c1.52,0,2.28,0,3.8,1.52,0,0,1.52,1.52,2.28,2.28,0,0,1.52,1.52,2.28,2.28,1.52,1.52,3.04,2.28,3.8,3.04,0,0,2.28,1.52,3.04,2.28,1.52,1.52,3.04,2.28,4.57,3.8,0,0,1.52,1.52,2.28,2.28.76.76,1.52,2.28,1.52,3.8v3.8M325.66,214.91h-4.57c-1.52,0-3.04-2.28-4.57-3.04-1.52-1.52-3.04-2.28-4.57-3.8h0c-3.04-2.28-5.33-4.57-8.37-6.85-1.52,0-2.28-2.28-3.04-4.57v-3.8h1.52s1.52,0,2.28,1.52c1.52,1.52,3.8,2.28,5.33,3.8,3.8,2.28,6.85,3.8,10.65,6.09,1.52,0,3.04,1.52,4.57,2.28,1.52,1.52,2.28,3.04,2.28,5.33s0,3.04-1.52,3.8M334.79,205.78h-5.33c-3.8,0-6.85-3.04-10.65-4.57,0,0-1.52,0-3.04-1.52-3.8-2.28-6.85-3.8-9.89-6.09,0,0-2.28-1.52-2.28-2.28h3.8c1.52,0,2.28,1.52,3.04,1.52,2.28,0,4.57,2.28,6.85,3.04,4.57,2.28,9.13,4.57,14.46,5.33h0s1.52,0,2.28,1.52v2.28h0M336.31,198.93h-6.09c-2.28,0-4.57-1.52-6.85-3.04-1.52,0-2.28,0-3.8-1.52-1.52,0-3.8-1.52-5.33-2.28-1.52,0-4.57-1.52-5.33-3.04v-3.04h2.28c1.52,0,3.04,0,4.57,1.52,3.04,0,5.33,2.28,8.37,3.04,2.28,0,4.57,2.28,6.85,3.04,1.52,0,2.28,0,3.8,1.52h3.04v1.52M341.64,195.13c-1.52,2.28-5.33,0-7.61,0s-4.57-1.52-6.85-2.28c-1.52,0-2.28,0-3.8-1.52-3.8-1.52-6.85-3.04-10.65-4.57,0,0-1.52,0-1.52-1.52s1.52-1.52,2.28-2.28c1.52-1.52,3.04,0,4.57,0,3.04,1.52,6.85,2.28,9.89,3.8,2.28,0,4.57,1.52,7.61,2.28,2.28,0,6.09,1.52,6.09,4.57h0M351.53,189.04h0c-1.52,1.52-3.8,1.52-5.33,1.52h-6.09c-2.28,0-4.57-1.52-6.09-2.28-3.8-1.52-8.37-3.04-12.17-4.57-1.52,0-3.04-1.52-4.57-1.52h-1.52v-1.52s0-1.52,1.52-1.52c1.52-1.52,3.04,0,4.57,0s3.04,1.52,5.33,1.52c3.8,0,6.85,2.28,10.65,3.04,3.04,0,5.33,1.52,8.37,1.52h6.09v3.04M361.42,183.72h-16.74c-3.04,0-6.09-1.52-9.13-2.28-3.8,0-6.85-2.28-10.65-3.04h-4.57s0-2.28,1.52-2.28h2.28c1.52,0,3.8,0,5.33,1.52,3.8,0,7.61,1.52,10.65,2.28,4.57,0,8.37,1.52,12.94,2.28h9.13v1.52M369.03,179.15h-18.26c-6.09,0-11.41-2.28-17.5-3.8-2.28,0-4.57,0-7.61-1.52h-2.28s0-2.28,1.52-2.28h5.33c3.8,0,7.61,1.52,10.65,2.28,3.8,0,7.61,1.52,10.65,2.28,3.8,0,7.61,0,10.65,1.52h6.09v1.52M378.92,173.82c0,1.52-3.8,1.52-5.33,1.52h-13.7c-4.57,0-9.13-1.52-12.94-2.28-3.8,0-7.61-1.52-10.65-2.28h-10.65v-1.52h11.41c3.8,0,7.61,1.52,11.41,1.52,6.09,0,12.17,1.52,17.5,2.28,3.8,0,6.85,1.52,10.65,0h-10.65c-6.09,0-12.17-1.52-18.26-2.28h-6.09c-3.04,0-6.85-1.52-9.89-1.52h-4.57s-2.28,0-1.52,0h3.04c3.04,0,6.85,0,9.89,1.52,3.04,0,6.85,1.52,9.89,1.52h5.33c3.8,0,7.61,1.52,10.65,1.52h12.17v3.04c0,1.52,0,0,0,0M383.48,167.74s-1.52,0-2.28,1.52h-9.89c-3.8,0-6.85,0-10.65-1.52h-6.09c-2.28,0-5.33,0-7.61-1.52-3.8,0-7.61-1.52-11.41-1.52h-5.33,38.04c3.8,0,7.61,0,10.65,1.52h3.04s1.52,0,1.52,1.52v1.52M391.09,163.17h-31.96c-6.09,0-11.41,0-17.5-1.52h-10.65v-1.52c1.52,0,3.04,0,3.8-1.52h24.35c5.33,0,10.65,1.52,16.74,1.52s8.37,0,12.17,1.52h2.28s1.52,0,1.52,1.52h0M404.03,157.09s-1.52,1.52-3.04,1.52h-8.37c-4.57,0-8.37,0-12.94-1.52-4.57,0-8.37,0-12.94-1.52h-27.39v-1.52s0-1.52,1.52-1.52c0-1.52,3.04,0,4.57,0h53.26s4.57,1.52,4.57,3.04h0M412.4,148.72s-1.52,1.52-2.28,1.52c-2.28,0-4.57,0-6.85,1.52h-9.89c-7.61,0-15.22,0-22.83-1.52h-26.63s0-1.52,1.52-1.52c1.52-1.52,3.8-2.28,6.09-2.28h58.59s2.28,0,3.04,1.52h0M413.92,143.39s-1.52,0-2.28,1.52h0c-9.13-1.52-18.26-1.52-27.39-1.52h-35.76c0-2.28,2.28-2.28,3.8-2.28h38.04c7.61,0,15.22,0,22.83,2.28h0v1.52M423.81,138.82c-2.28,1.52-4.57,1.52-6.85,1.52h-2.28c-6.85-1.52-14.46-2.28-22.07-2.28h-41.85s0-1.52,1.52-1.52c3.8-2.28,8.37-1.52,12.94-1.52h61.63c0,1.52-2.28,2.28-3.04,3.04M430.66,131.22s-2.28,1.52-3.04,1.52h-71.52v-1.52s3.04-1.52,4.57-1.52h67.72s2.28,0,1.52,1.52M439.79,125.89s-2.28,0-3.04,1.52h-73.81c-1.52,0,1.52-2.28,1.52-2.28h3.04c1.52,0,3.04,0,4.57-1.52h69.24c0,1.52,0,2.28-1.52,2.28M447.4,119.04h-70c-1.52,0-2.28,0,0-2.28,0,0,1.52,0,2.28-1.52h68.48s1.52,0,1.52,1.52v1.52"/>
  <path class="cls-2" d="M212.29,233.93c1.52,0,3.04-2.28,4.57-3.8,1.52-1.52,2.28,0,3.8,0s3.04,0,4.57-2.28h0s2.28-2.28,2.28-3.04v-12.17c0-3.8,3.8-1.52,3.8-3.04s-1.52-1.52-2.28-3.04c0-2.28,2.28,0,1.52-3.04,0-2.28-3.04-5.33-3.8-9.89,0-3.04-1.52-3.8-2.28-5.33-1.52-1.52-2.28,0-3.8,0s-3.04-1.52-2.28-3.04v-1.52q0-1.01,0,0c0,3.04-4.57,4.57-6.85,3.8h-2.28c-.76,0,0-1.52,1.52-2.28,0,0,1.52,0,2.28-1.52h3.04s2.28,0,3.04-1.52h1.52s1.52,0,0,0h0c-1.52,0-1.52,1.52-3.04,1.52,0,0-1.52,0-1.52-1.52v-2.28h-4.57c-3.04,0-1.52-2.28,0-3.04h-4.57q-1.52,0-1.52-1.52h1.52-4.57q-1.52,0,0-1.52h3.04s-2.28,0-3.04-1.52c0,0-1.52,0-2.28-1.52v-1.52s3.04,0,1.52-1.52c-1.52,0-3.8-1.52-4.57-2.28,0-1.52,3.04-1.52,1.52-2.28h-1.52s-3.04,0-2.28-2.28h1.52-1.52s-1.52,0-2.28-1.52c0,0-2.28-1.52,0-2.28h0s-2.28,0-3.04-2.28c0,0-2.28-1.52,0-1.52h-10.65v-1.52h-6.85s1.52,0,0,0h-6.09c-1.52,0-3.04,0-3.04-2.28h-5.33s-7.61-1.52-6.09-2.28h0c-1.52,0-9.89,0-8.37-3.04h-5.33c-2.28,0-6.85,0-8.37-1.52h-7.61v-1.52h22.07c4.57,0,16.74,3.8,28.15,7.61,12.17,3.8,24.35,7.61,27.39,10.65,3.04,3.04,6.85,7.61,9.13,13.7,0,2.28,3.04,3.04,4.57,3.8,1.52,1.52,3.04,2.28,3.8,3.8.76,1.52,0,2.28,2.28,3.8,2.28,1.52,1.52,3.04,3.04,3.8,0,1.52,2.28,2.28,3.8,3.04,0,0,3.8,1.52,3.8,2.28s-1.52,1.52-1.52,2.28,1.52,0,1.52,1.52-2.28,2.28-1.52,3.04v2.28s-1.52,1.52,0,3.04c0,1.52,3.04,1.52,3.04,0v-4.57c0-1.52,1.52-1.52,4.57-3.04,2.28-1.52,4.57,0,6.85-1.52,2.28,0-3.04-1.52-3.8-2.28h0v-1.52c-4.57,0-6.09-3.8-6.09-3.8h-3.04c-3.8-1.52-6.85-6.09-7.61-7.61-1.52-2.28-3.04-3.8-4.57-5.33,0,0-1.52,0-2.28-1.52-1.52-1.52-2.28-3.8-3.04-5.33-2.28-4.57-6.09-9.89-9.89-12.94-3.8-2.28-8.37-4.57-12.17-5.33-12.94-4.57-25.87-7.61-38.8-11.41-5.33-1.52-11.41-2.28-16.74-2.28-7.61,0-15.98-1.52-23.59-1.52s-16.74,0-25.11-1.52c-7.61,0-15.22,0-23.59,2.28-3.8,0-7.61,1.52-10.65,2.28-1.52,0-3.04,0-3.8,1.52v3.04c0,2.28,3.8,3.04,6.09,3.8,0,1.52,0,3.04,2.28,3.8-1.52,5.33,5.33,6.85,9.89,7.61-1.52,1.52-1.52,4.57,0,6.09,1.52,1.52,4.57,1.52,6.85,1.52,0,1.52,0,3.04,2.28,4.57,1.52,1.52,3.8,2.28,6.09,2.28,0,3.04,1.52,3.8,4.57,4.57,0,3.8,5.33,4.57,8.37,5.33,0,3.04,1.52,3.8,4.57,4.57h6.09c1.52,0,2.28,1.52,3.8,2.28-1.52,2.28,0,4.57,3.04,6.09h3.04s1.52,0,3.04,1.52c1.52,0,3.8,1.52,5.33,1.52,0,3.04,0,5.33,3.04,6.09,3.8,1.52,8.37,1.52,12.17,1.52,0,6.09,7.61,6.09,12.17,6.85-1.52,2.28-3.04,4.57,0,6.85,2.28,1.52,5.33.76,7.61.76,0,3.8,4.57,5.33,8.37,4.57,0,3.8,1.52,5.33,5.33,6.09v6.85c0,1.52,3.04,1.52,5.33,1.52,0,2.28,0,4.57,2.28,6.09,1.52,1.52,3.8,1.52,6.09,0,0,4.57,3.04,7.61,7.61,5.33,0,4.57,5.33,3.8,9.13,2.28,1.52,5.33,6.09,3.8,9.13,1.52,0,2.28,3.04,3.04,5.33,1.52M225.98,196.65h0v11.41c0,1.52-1.52,9.89-1.52,10.65,0,1.52,0,5.33-2.28,6.85h-1.52s-3.04,2.28-3.04,1.52v-2.28c0-1.52,0-3.04,1.52-4.57v-16.74c0-1.52,0-2.28,1.52-3.04v-5.33M221.42,192.85c0-1.52,0-4.57,2.28-5.33h0v1.52h0v2.28s0,2.28-2.28,2.28h-1.52v-2.28M222.18,197.41h2.28v4.57s-1.52,2.28-1.52,0v-3.8h0v3.04s-2.28,3.04-3.04,1.52v-5.33s0-2.28,0,0c0,0-1.52,2.28-2.28,3.04,0,0-2.28,1.52-3.04,1.52-1.52,0,0-1.52,0-2.28,0,0,1.52-1.52,2.28-2.28l2.28-2.28h0s1.52,1.52,2.28,1.52,2.28-1.52,3.04,0c0,0,0,2.28,1.52,2.28M216.09,189.04c0-1.52,0-3.04,2.28-3.8h0s0,1.52,1.52,1.52v3.8s-1.52,2.28-3.04,1.52c-2.28,0-1.52-3.04-1.52-4.57M213.05,188.28s0-1.52,1.52-1.52,0,0,0,1.52v4.57c0,1.52-1.52,2.28-2.28,3.04-1.52,0-2.28,1.52-3.8,2.28,0,0-2.28,0-3.8,1.52q-1.52,0-1.52-1.52t2.28-2.28h1.52c1.52,0,2.28-1.52,3.04-2.28,0,0,2.28-1.52,3.04-3.04M211.53,186c1.52,0,0,2.28,0,3.04,0,1.52-2.28,2.28-3.8,3.8-1.52,0-3.04,1.52-5.33,2.28h-3.8s-1.52-1.52,0-2.28h3.8c1.52,0,3.04-1.52,4.57-3.04,0,0,1.52,0,2.28-1.52h3.04M187.18,186.76h-3.8s-1.52-2.28,0-3.04h6.85c3.04,0,6.85-1.52,9.89-3.04h6.09v3.04s-2.28,2.28-3.8,3.04c-3.04,1.52-5.33,2.28-8.37,2.28h-5.33M190.22,189.04h0c0,2.28-3.8,2.28-5.33,0v-1.52h4.57M154.46,149.48h21.3c1.52,0,3.8,0,4.57,2.28v1.52s-1.52,1.52-2.28,1.52h-11.41c-3.8,0-8.37,0-11.41-3.04,0,0-3.04-2.28-1.52-2.28M153.7,147.19s-6.09-2.28-3.8-3.8h25.11s0,1.52,1.52,1.52,1.52,1.52,0,2.28h-24.35M165.11,156.32h16.74s1.52,1.52,1.52,2.28v1.52h0v3.04h-17.5c-2.28,0-4.57-3.8-1.52-5.33M169.68,166.22s0-1.52,1.52-1.52h15.98v5.33h-15.22v-2.28M172.72,171.54h3.04c3.04,0,6.85,0,9.89-1.52h6.85s0,1.52,1.52,2.28c0,0,1.52,0,1.52,1.52s-2.28,1.52-3.04,1.52h-7.61c-3.04,0-6.09,1.52-8.37,0-1.52,0-2.28,0-3.8-1.52,0,0-1.52-1.52-1.52-2.28M178.05,179.15c0-1.52,2.28-2.28,3.04-2.28h14.46c1.52,0,2.28,0,3.04,1.52,0,1.52,0,2.28-1.52,3.04-1.52,0-3.8,1.52-5.33,1.52h-12.94s-1.52,0-1.52-1.52M191.74,188.28h3.8c1.52,0,3.04,0,4.57-1.52,1.52,0,3.04-1.52,3.8-2.28,0,0,1.52,0,1.52-1.52l1.52-1.52h1.52c1.52,0,0,1.52,0,3.04s-1.52,1.52-2.28,2.28c-.76.76-2.28,1.52-3.04,2.28-2.28,1.52-4.57,2.28-7.61,2.28h-3.8s-1.52-2.28,0-3.04M213.05,176.87h3.04s-1.52,2.28-1.52,3.04c0,0-2.28,1.52-3.8,1.52h-2.28s-1.52,0-1.52-1.52h0s0-1.52,1.52-2.28h3.8M205.44,171.54h3.8v2.28h0c-1.52,0-3.04,1.52-4.57,1.52s-3.04,0-4.57-1.52c0-1.52,1.52-2.28,2.28-2.28h3.8M203.16,166.98h1.52v2.28h0s-1.52,0-2.28,1.52h-3.8s-2.28,0-2.28-1.52,0-1.52,1.52-2.28h6.09M200.87,164.69q0,1.52-2.28,1.52h-10.65v-3.04c0-1.52,3.8,0,5.33,0h6.09v1.52M200.11,160.13c1.52,0,0,1.52-1.52,1.52h-8.37c-1.52,0-3.04,0-3.8-2.28v-1.52h12.17v1.52h1.52M197.07,154.8v1.52h-7.61c-3.04,0-5.33,0-7.61-2.28-2.28-2.28,1.52-2.28,3.04-2.28h9.89l1.52,1.52M191.74,147.95h0s1.52,0,1.52,2.28-1.52,1.52-2.28,1.52h-4.57c-2.28,0-5.33,0-7.61-1.52l-1.52-1.52v-1.52h12.94M189.46,141.87v3.04h-3.04c-3.04,0-6.85,0-9.89-2.28,0,0-2.28-2.28,0-3.04h12.94M176.52,136.54h10.65-10.65s0-1.52-1.52-2.28h1.52M173.48,138.82h0s1.52,0,0,1.52c0,1.52-3.8,1.52-5.33,1.52h-19.78c-1.52,0-6.09,0-6.09-3.04s1.52-3.04,3.04-3.04h25.87v2.28M165.87,130.45h2.28s1.52,1.52,2.28,2.28c0,0,3.04,0,2.28,2.28h-25.87c-2.28,0-6.09,0-6.85-2.28v-2.28h28.15M124.02,118.28h14.46c1.52,0,2.28,0,3.04,1.52l2.28,1.52h15.98-22.07c-3.04,0-5.33-1.52-6.85-3.8-1.52-1.52-3.8-1.52-5.33-3.04,0,0-1.52-1.52-1.52-2.28M103.48,112.95h15.98-12.17s-3.8,0-3.8-1.52,1.52,0,2.28,0M60.11,113.72h38.8c0,1.52,0,0-1.52,0h-36.52M47.17,119.8c-1.52,0-2.28-1.52-2.28-2.28h0s1.52,0,3.04-1.52h70s1.52,0,0,1.52h-28.91c-10.65,0-22.07,0-32.72,1.52h-10.65M51.74,122.85h7.61c9.13,0,19.02-1.52,28.15-1.52h35.76l1.52,1.52c0,1.52,0,0-1.52,0h-47.94c-4.57,0-9.13,0-14.46,1.52h-8.37s-1.52,0-1.52-1.52M54.02,128.17h0c0-1.52,2.28-1.52,3.04-2.28h73.81s3.8,3.04,1.52,3.04H54.78M59.35,131.22h-3.8,80.65s1.52,1.52,0,2.28H60.11M67.72,139.59h-3.04s-2.28-1.52-2.28-2.28,0-1.52,2.28-2.28h73.81v1.52h-69.24,74.57v3.04h-73.81M76.09,145.67h-3.8l-1.52-1.52v-1.52h0c0-1.52,2.28-1.52,3.04-1.52h71.52s1.52,0,1.52,1.52,0,1.52-1.52,1.52h-70M80.65,150.24h0c0-1.52,1.52-2.28,2.28-2.28h66.96s2.28,1.52,3.04,2.28h-72.28M89.02,155.56c-1.52,0-3.04,0-4.57-1.52h0s1.52-1.52,2.28-1.52h66.96s0,1.52,1.52,1.52v1.52h-66.96M98.15,160.89h-6.09v-2.28h0c9.89,0,19.02-2.28,28.91-1.52h37.28s3.8,0,3.04,2.28h-29.67c-11.41,0-22.83,0-34.24,2.28M101.96,162.41h0c-1.52-1.52,1.52-1.52,2.28-1.52h57.83s1.52,1.52,1.52,2.28,0,0-1.52,0h-54.78c-1.52,0-3.8,0-4.57-1.52M113.37,171.54s-1.52-1.52-2.28-1.52h-4.57v-1.52s1.52-2.28,3.04-2.28h0c7.61-1.52,15.22,0,22.07,0h32.72s1.52,0,2.28,1.52h1.52-9.13c-4.57,0-9.89,0-14.46,1.52-10.65,0-20.54,0-31.2,1.52h30.44c4.57,0,8.37,0,12.94-1.52h11.41v3.8h-49.46c-2.28,0-4.57,0-6.09-1.52M133.92,180.67h-5.33c-2.28,0-5.33,0-7.61-2.28h0v-3.04c0-1.52,3.8-1.52,5.33-1.52h40.33c1.52,0,4.57-1.52,6.09,0v1.52h0c2.28,3.04-2.28,3.04-3.8,3.04-3.04,0-5.33,0-8.37,1.52-5.33,0-10.65,1.52-15.98,2.28-3.8,0-7.61,1.52-11.41,0M141.52,187.52c-3.04,0-4.57-1.52-4.57-2.28h0v-2.28h9.89c3.8,0,7.61,0,11.41-1.52,3.04,0,6.85,0,9.89-1.52h8.37v1.52c0,1.52,0,3.04-1.52,3.8-1.52,0-3.04,0-4.57,1.52-3.8,0-6.85,1.52-10.65,2.28-2.28,0-5.33,0-7.61,1.52h-10.65M152.18,195.13h-4.57v-3.04l1.52-1.52c1.52-1.52,3.8-1.52,5.33-2.28,2.28,0,4.57,0,6.85-1.52,3.04,0,6.09-1.52,9.13-2.28h9.13s2.28,1.52,0,2.28c0,0-2.28,0-3.8,1.52-2.28,0-4.57,1.52-6.85,2.28-3.04,0-6.09,2.28-9.13,3.8-1.52,0-3.04,1.52-4.57,2.28h-4.57M160.55,200.46h-1.52c-2.28,0-3.04-1.52-3.04-2.28v-1.52h0c4.57-2.28,9.13-4.57,13.7-6.09,2.28,0,4.57-1.52,6.85-2.28h3.04c.76,0,1.52,0,2.28,1.52,0,1.52,0,3.04-2.28,3.8,0,0-2.28,1.52-3.04,1.52-4.57,2.28-8.37,4.57-12.94,6.09h-4.57M166.63,205.78s-2.28,0-2.28-2.28h0v-3.04s1.52,0,1.52-1.52c0,0,1.52,0,2.28-1.52,1.52,0,3.8-1.52,5.33-2.28,1.52-.76,3.04-1.52,4.57-2.28,0,0,1.52,0,2.28-1.52h9.13s0,1.52-1.52,2.28c-2.28,1.52-4.57,3.04-6.09,3.8-2.28,1.52-5.33,3.04-7.61,4.57-1.52,0-2.28,1.52-3.8,2.28-1.52.76-3.8,1.52-5.33,0M175,213.39h-4.57v-5.33s1.52-1.52,2.28-1.52c1.52,0,2.28-1.52,3.8-1.52,2.28-1.52,4.57-2.28,6.85-3.8,2.28-1.52,4.57-2.28,6.09-3.8,1.52-1.52,3.8-3.04,6.09-3.04s1.52,0,1.52,1.52,1.52,1.52,0,2.28l-3.04,3.04c-2.28,2.28-4.57,3.8-6.85,6.09-3.8,3.04-7.61,5.33-12.17,7.61M178.81,221h-1.52v-6.09l1.52-1.52s2.28-1.52,3.04-2.28c2.28-1.52,4.57-2.28,6.09-3.8,3.04-2.28,6.09-4.57,9.13-7.61,3.04-3.04,1.52-2.28,3.04-3.04h3.04v3.8c0,1.52-2.28,3.04-3.04,3.8l-5.33,5.33c-2.28,2.28-3.8,3.8-6.09,6.09,0,0-2.28,1.52-3.04,3.04-1.52,1.52-3.8,3.04-6.09,3.04M186.42,227.09h0s-1.52-1.52-1.52-2.28v-1.52c0-2.28,4.57-6.09,6.85-8.37,2.28-2.28,3.8-4.57,6.09-6.85l5.33-5.33,2.28-2.28h4.57s-1.52,2.28-1.52,3.04c-1.52,2.28-3.04,4.57-3.8,6.09-3.04,4.57-6.09,8.37-9.13,12.17,0,0-1.52,1.52-2.28,3.04-1.52,1.52-3.04,3.04-5.33,3.04M197.07,228.61c-1.52,0-3.04,1.52-4.57,1.52h-1.52v-1.52c0-1.52,0-2.28,1.52-3.8,0-1.52,2.28-3.04,3.04-3.8,2.28-3.04,3.8-5.33,6.09-8.37,0-1.52,2.28-3.04,3.04-4.57,0,0,1.52-2.28,1.52-3.04,0-1.52,0-3.04,3.04-1.52h1.52s1.52,0,0,1.52c0,1.52-1.52,2.28-1.52,3.8-1.52,2.28-2.28,4.57-3.8,6.85-2.28,3.8-4.57,7.61-6.85,11.41,0,0-1.52,2.28-3.04,3.04M206.2,229.37c-1.52,1.52-3.8,2.28-4.57,2.28h0v-3.04c0-.76,0-2.28,1.52-3.04,0,0,1.52-2.28,2.28-3.04,1.52-2.28,2.28-4.57,3.8-6.85,1.52-2.28,2.28-4.57,3.8-6.85,0,0,0-2.28,1.52-3.04,0,0,0-2.28,1.52-3.04h1.52s1.52,0,0,2.28v3.8c0,2.28-1.52,5.33-2.28,7.61,0,1.52-1.52,3.8-2.28,5.33,0,0,0,1.52-1.52,2.28,0,0,0,1.52-1.52,2.28,0,1.52-1.52,1.52-2.28,2.28M209.24,230.89v-4.57c0-1.52,1.52-3.8,3.04-6.09,0,0,0-2.28,1.52-3.04,0-2.28,1.52-5.33,2.28-7.61v-6.09s1.52-1.52,2.28,0v9.13c0,3.04-2.28,10.65-2.28,12.17s-1.52,3.8-2.28,4.57c-.76.76-6.09,6.09-6.85,3.04"/>
  <path class="cls-3" d="M235.11,235.46c-3.04,0-4.57,0-5.33-3.04h0s-1.52-2.28-1.52-3.04v-1.52s-2.28-1.52-2.28-3.04-3.04-3.04-2.28-6.09c0-1.52,0-3.04,3.04-4.57,0,0,3.04-1.52,4.57-1.52s6.85,0,9.89,6.85c2.28,5.33,1.52,10.65,0,12.94,0,1.52-2.28,2.28-3.8,3.04h-2.28M234.35,224.8h1.52c0-1.52,0-2.28-1.52-3.04l-1.52-1.52v3.04h1.52"/>
  <path class="cls-3" d="M227.5,230.13h0c-3.04,0-4.57-2.28-4.57-3.8s-2.28-3.8-2.28-6.09,1.52-4.57,5.33-6.09c0,0,1.52,0,2.28,1.52v7.61h0v6.09s-1.52,1.52-2.28,1.52h0l1.52-.76Z"/>
  <path class="cls-3" d="M224.46,230.13h0c-2.28,0-3.8-1.52-4.57-3.04,0,0-1.52-2.28-2.28-3.8,0-1.52,0-3.8,2.28-5.33h3.04v2.28h0c0,1.52,0,2.28,1.52,3.8h0v5.33s-1.52,1.52-2.28,1.52h2.28v-.76Z"/>
  <path class="cls-5" d="M227.5,214.91c1.52,0,7.61-2.28,10.65,5.33,3.04,6.85,0,12.17-1.52,12.94-3.8,0-5.33,0-5.33-1.52h0c2.28,0,2.28-1.52,2.28-2.28-2.28,1.52-3.8,0-3.8,0v-3.04h0c0,1.52,1.52,1.52,1.52,1.52,1.52,0,5.33,0,4.57,3.04,2.28-5.33,0-13.7-7.61-12.94h0c1.52,2.28,0,3.8,0,4.57v2.28h0c-1.52,0-1.52-1.52-1.52-2.28,0,0-4.57-4.57,0-7.61"/>
  <path class="cls-5" d="M225.98,215.67s-2.28,3.8,0,7.61v3.8h0c-2.28,0-3.04-1.52-3.04-3.04,0,0-4.57-6.09,1.52-9.13h0"/>
  <path class="cls-5" d="M221.42,219.48c0,2.28,0,3.8,2.28,5.33v3.04h0c-2.28,0-2.28-1.52-2.28-1.52,0,0-3.04-3.04,0-6.85h0"/>
  <path class="cls-3" d="M254.13,235.46c-1.52,0-3.04-1.52-3.8-3.04-1.52-2.28-2.28-7.61,0-12.94,3.04-6.09,7.61-6.85,9.89-6.85s3.8,0,4.57,1.52c1.52,1.52,3.04,3.04,3.04,4.57,0,2.28-1.52,4.57-2.28,6.09,0,1.52,0,2.28-2.28,3.04v1.52s0,2.28-1.52,2.28h0c0,3.04-3.04,3.8-5.33,3.8h-2.28M257.94,224.8h0v-3.04l-1.52,1.52s0,2.28-1.52,3.04h1.52c.76,0,0,0,0,0"/>
  <path class="cls-3" d="M264.03,230.13h0c3.04,0,4.57-2.28,4.57-3.8s2.28-3.8,2.28-6.09-1.52-4.57-5.33-6.09c0,0-1.52,0-2.28,1.52v7.61h0v6.09s1.52,1.52,2.28,1.52h0l-1.52-.76Z"/>
  <path class="cls-3" d="M267.07,230.13h0c2.28,0,3.8-1.52,4.57-3.04,0,0,1.52-2.28,2.28-3.8,0-1.52,0-3.8-2.28-5.33h-3.04v2.28h0c0,1.52,0,2.28-1.52,3.8h0v5.33s1.52,1.52,2.28,1.52h-2.28v-.76Z"/>
  <path class="cls-5" d="M264.03,214.91c-1.52,0-7.61-2.28-10.65,5.33-3.04,6.85,0,12.17,1.52,12.94,3.8,0,5.33,0,5.33-1.52h0c-2.28,0-2.28-1.52-2.28-2.28,2.28,1.52,3.8,0,3.8,0v-3.04h0c0,1.52-1.52,1.52-1.52,1.52-1.52,0-5.33,0-4.57,3.04-2.28-5.33,0-13.7,7.61-12.94h0c-1.52,2.28,0,3.8,0,4.57v2.28h0c1.52,0,1.52-1.52,1.52-2.28,0,0,4.57-4.57,0-7.61"/>
  <path class="cls-5" d="M266.31,215.67s2.28,3.8,0,7.61v3.8h0c2.28,0,3.04-1.52,3.04-3.04,0,0,4.57-6.09-1.52-9.13h0"/>
  <path class="cls-5" d="M270.11,219.48c0,2.28,0,3.8-2.28,5.33v3.04h0c2.28,0,2.28-1.52,2.28-1.52,0,0,3.04-3.04,0-6.85h0"/>
  <polygon class="cls-5" points="318.81 299.37 260.98 317.63 248.05 324.48 234.35 313.07 176.52 299.37 156.74 223.28 234.35 229.37 247.29 238.5 259.46 229.37 336.31 223.28 318.81 299.37"/>
  <path class="cls-1" d="M247.29,329.04l-14.46-12.93-59.35-13.7-21.3-82.18,82.94,6.85,12.17,8.37,10.65-8.37,82.18-6.85-19.02,82.18-58.59,19.02-15.22,7.61ZM178.81,296.33l57.07,13.7,12.17,10.65,12.17-6.09,55.54-18.26,15.98-70-71.52,6.09-12.94,9.89-14.46-9.89-71.52-6.09,17.5,69.24h0v.76Z"/>
  <polygon class="cls-5" points="321.85 332.09 261.74 346.55 248.05 352.63 234.35 346.55 172.72 332.09 151.42 239.26 230.55 233.93 247.29 243.83 262.5 233.93 341.64 239.26 321.85 332.09"/>
  <path class="cls-9" d="M261.74,230.13l-14.46,9.13-15.98-9.13-84.46,6.09,22.83,98.91,63.15,14.46,15.22,6.85,15.22-6.85,61.63-14.46,20.54-98.91-83.7-6.09ZM318.81,329.04l-57.83,13.7-12.94,6.09-12.17-6.09-60.11-13.7-19.78-86.74,73.81-5.33,17.5,10.65,15.98-10.65,73.04,5.33-18.26,86.74h.76Z"/>
  <path class="cls-7" d="M174.24,287.2h0c0-8.37,6.09-14.46,14.46-14.46s9.89,3.04,12.17,6.85l-7.61,4.57c0-2.28-2.28-3.04-4.57-3.04s-5.33,3.04-5.33,6.09h0c0,3.8,2.28,6.09,5.33,6.09s3.8-1.52,5.33-3.04l7.61,4.57c-2.28,3.8-6.09,7.61-12.94,7.61s-14.46-5.33-14.46-14.46"/>
  <path class="cls-7" d="M201.63,287.2h0c0-8.37,6.09-14.46,14.46-14.46s9.89,3.04,12.17,6.85l-7.61,4.57c0-2.28-2.28-3.04-4.57-3.04s-5.33,3.04-5.33,6.09h0c0,3.8,2.28,6.09,5.33,6.09s3.8-1.52,5.33-3.04l7.61,4.57c-2.28,3.8-6.09,7.61-12.94,7.61s-14.46-5.33-14.46-14.46"/>
  <polygon class="cls-7" points="230.55 273.5 239.68 273.5 245.77 283.39 251.85 273.5 260.98 273.5 260.98 300.89 251.85 300.89 251.85 287.2 245.77 297.09 245.77 297.09 238.92 287.2 238.92 300.89 230.55 300.89 230.55 273.5"/>
  <path class="cls-9" d="M264.03,273.5h12.17c6.85,0,12.17,3.04,12.17,9.89h0c0,6.85-5.33,9.89-12.17,9.89h-3.04v7.61h-9.13v-27.39h0ZM275.44,287.2c2.28,0,3.8,0,3.8-3.04h0c0-2.28-1.52-3.04-3.8-3.04h-2.28v6.09h2.28Z"/>
  <path class="cls-9" d="M290.66,273.5h12.94c4.57,0,7.61,1.52,9.89,3.04,1.52,1.52,2.28,3.8,2.28,6.09h0c0,3.8-2.28,6.85-5.33,8.37l6.09,9.13h-10.65l-5.33-7.61h-2.28v7.61h-9.13v-27.39h1.52v.76ZM303.59,286.44c2.28,0,3.8,0,3.8-2.28h0c0-1.52-1.52-3.04-3.8-3.04h-3.8v5.33s3.8,0,3.8,0Z"/>
  <polygon class="cls-6" points="232.07 252.96 229.79 259.04 234.35 262.85 228.26 262.09 225.98 267.41 224.46 262.09 218.37 261.33 223.7 258.28 222.18 252.2 226.74 256 232.07 252.96"/>
  <polygon class="cls-6" points="285.33 250.67 283.05 256 287.61 259.8 282.29 259.04 280.01 265.13 278.48 259.04 272.4 258.28 277.72 255.24 276.2 249.91 280.77 253.72 285.33 250.67"/>
  <polygon class="cls-6" points="284.57 306.98 282.29 310.78 286.09 313.83 281.53 313.83 280.01 317.63 278.48 313.07 274.68 313.07 278.48 310.78 276.96 306.22 280.77 309.26 284.57 306.98"/>
  <polygon class="cls-6" points="227.5 316.87 225.98 322.2 230.55 326 224.46 326 222.18 331.33 220.66 326 214.57 325.24 219.9 322.2 218.37 316.11 222.94 319.91 227.5 316.87"/>
  <polygon class="cls-6" points="251.85 305.46 251.09 308.5 253.37 310.78 249.57 310.78 248.81 314.59 247.29 310.78 244.24 310.78 247.29 308.5 246.53 304.7 248.81 306.98 251.85 305.46"/>
</svg>